{
copyright = "Copyright (c) 2015, Cadson Demak (info@cadsondemak.com)";
customParameters = (
{
name = vendorID;
value = CDK;
},
{
name = description;
value = "Copyright (c) 2015, Cadson Demak (info@cadsondemak.com)";
},
{
name = license;

glyphs = (
{
glyphname = A;
lastChange = "2015-08-01 11:25:26 +0000";
layers = (
{
layerId = "80E8E25D-437F-49DC-8A9F-EB5C20E09398";
name = Light;
paths = (
{
closed = 1;
nodes = (
"246 0 LINE",
"246 59 LINE",
"192 59 LINE",
"244 205 LINE",
"478 205 LINE",
"529 59 LINE",
"475 59 LINE",
"475 0 LINE",
"682 0 LINE",
"682 59 LINE",
"650 59 LINE SMOOTH",
"622 59 OFFCURVE",
"605 68 OFFCURVE",
"595 95 CURVE SMOOTH",
"399 647 LINE",
"324 647 LINE",
"126 95 LINE SMOOTH",
"116 68 OFFCURVE",
"99 59 OFFCURVE",
"72 59 CURVE SMOOTH",
"39 59 LINE",
"39 0 LINE"
);
},
{
closed = 1;
nodes = (
"361 540 LINE",
"460 259 LINE",
"262 259 LINE"
);
}
);
width = 721;
}
);
leftKerningGroup = A;
note = A;
rightKerningGroup = A;
unicode = 0041;
},
{
glyphname = Aacute;
lastChange = "2015-08-01 11:25:26 +0000";
layers = (
{
layerId = "80E8E25D-437F-49DC-8A9F-EB5C20E09398";
name = Light;
paths = (
{
closed = 1;
nodes = (
"246 0 LINE",
"246 59 LINE",
"192 59 LINE",
"244 205 LINE",
"478 205 LINE",
"529 59 LINE",
"475 59 LINE",
"475 0 LINE",
"682 0 LINE",
"682 59 LINE",
"650 59 LINE SMOOTH",
"622 59 OFFCURVE",
"605 68 OFFCURVE",
"595 95 CURVE SMOOTH",
"399 647 LINE",
"324 647 LINE",
"126 95 LINE SMOOTH",
"116 68 OFFCURVE",
"99 59 OFFCURVE",
"72 59 CURVE SMOOTH",
"39 59 LINE",
"39 0 LINE"
);
},
{
closed = 1;
nodes = (
"361 540 LINE",
"460 259 LINE",
"262 259 LINE"
);
},
{
closed = 1;
nodes = (
"393 701 LINE",
"508 880 LINE",
"406 880 LINE",
"323 701 LINE"
);
}
);
width = 721;
}
);
leftKerningGroup = A;
note = Aacute;
rightKerningGroup = A;
unicode = 00C1;
},
{
glyphname = Abreve;
lastChange = "2015-08-01 11:25:26 +0000";
layers = (
{
layerId = "80E8E25D-437F-49DC-8A9F-EB5C20E09398";
name = Light;
paths = (
{
closed = 1;
nodes = (
"246 0 LINE",
"246 59 LINE",
"192 59 LINE",
"244 205 LINE",
"478 205 LINE",
"529 59 LINE",
"475 59 LINE",
"475 0 LINE",
"682 0 LINE",
"682 59 LINE",
"650 59 LINE SMOOTH",
"622 59 OFFCURVE",
"605 68 OFFCURVE",
"595 95 CURVE SMOOTH",
"399 647 LINE",
"324 647 LINE",
"126 95 LINE SMOOTH",
"116 68 OFFCURVE",
"99 59 OFFCURVE",
"72 59 CURVE SMOOTH",
"39 59 LINE",
"39 0 LINE"
);
},
{
closed = 1;
nodes = (
"361 540 LINE",
"460 259 LINE",
"262 259 LINE"
);
},
{
closed = 1;
nodes = (
"449 701 OFFCURVE",
"510 754 OFFCURVE",
"510 838 CURVE",
"445 838 LINE",
"445 785 OFFCURVE",
"413 757 OFFCURVE",
"361 757 CURVE SMOOTH",
"310 757 OFFCURVE",
"276 785 OFFCURVE",
"276 838 CURVE",
"211 838 LINE",
"211 754 OFFCURVE",
"272 701 OFFCURVE",
"361 701 CURVE SMOOTH"
);
}
);
width = 721;
}
);
leftKerningGroup = A;
note = Abreve;
rightKerningGroup = A;
unicode = 0102;
},
{
glyphname = Abreveacute;
lastChange = "2015-08-01 11:25:24 +0000";
layers = (
{
layerId = "80E8E25D-437F-49DC-8A9F-EB5C20E09398";
name = Light;
paths = (
{
closed = 1;
nodes = (
"246 0 LINE",
"246 59 LINE",
"192 59 LINE",
"244 205 LINE",
"478 205 LINE",
"529 59 LINE",
"475 59 LINE",
"475 0 LINE",
"682 0 LINE",
"682 59 LINE",
"650 59 LINE SMOOTH",
"622 59 OFFCURVE",
"605 68 OFFCURVE",
"595 95 CURVE SMOOTH",
"399 647 LINE",
"324 647 LINE",
"126 95 LINE SMOOTH",
"116 68 OFFCURVE",
"99 59 OFFCURVE",
"72 59 CURVE SMOOTH",
"39 59 LINE",
"39 0 LINE"
);
},
{
closed = 1;
nodes = (
"361 540 LINE",
"460 259 LINE",
"262 259 LINE"
);
},
{
closed = 1;
nodes = (
"447 701 OFFCURVE",
"513 754 OFFCURVE",
"513 841 CURVE",
"454 841 LINE",
"454 786 OFFCURVE",
"419 755 OFFCURVE",
"361 755 CURVE SMOOTH",
"304 755 OFFCURVE",
"268 786 OFFCURVE",
"268 841 CURVE",
"209 841 LINE",
"209 754 OFFCURVE",
"275 701 OFFCURVE",
"361 701 CURVE SMOOTH"
);
},
{
closed = 1;
nodes = (
"377 839 LINE",
"481 985 LINE",
"386 985 LINE",
"316 839 LINE"
);
}
);
width = 721;
}
);
leftKerningGroup = A;
note = Abreveacute;
rightKerningGroup = A;
unicode = 1EAE;
},
{
glyphname = Abrevedotbelow;
lastChange = "2015-08-01 11:25:25 +0000";
layers = (
{
layerId = "80E8E25D-437F-49DC-8A9F-EB5C20E09398";
name = Light;
paths = (
{
closed = 1;
nodes = (
"246 0 LINE",
"246 59 LINE",
"192 59 LINE",
"244 205 LINE",
"478 205 LINE",
"529 59 LINE",
"475 59 LINE",
"475 0 LINE",
"682 0 LINE",
"682 59 LINE",
"650 59 LINE SMOOTH",
"622 59 OFFCURVE",
"605 68 OFFCURVE",
"595 95 CURVE SMOOTH",
"399 647 LINE",
"324 647 LINE",
"126 95 LINE SMOOTH",
"116 68 OFFCURVE",
"99 59 OFFCURVE",
"72 59 CURVE SMOOTH",
"39 59 LINE",
"39 0 LINE"
);
},
{
closed = 1;
nodes = (
"401 -145 LINE",
"401 -63 LINE",
"321 -63 LINE",
"321 -145 LINE"
);
},
{
closed = 1;
nodes = (
"361 540 LINE",
"460 259 LINE",
"262 259 LINE"
);
},
{
closed = 1;
nodes = (
"449 701 OFFCURVE",
"510 754 OFFCURVE",
"510 838 CURVE",
"445 838 LINE",
"445 785 OFFCURVE",
"413 757 OFFCURVE",
"361 757 CURVE SMOOTH",
"310 757 OFFCURVE",
"276 785 OFFCURVE",
"276 838 CURVE",
"211 838 LINE",
"211 754 OFFCURVE",
"272 701 OFFCURVE",
"361 701 CURVE SMOOTH"
);
}
);
width = 721;
}
);
leftKerningGroup = A;
note = Abrevedotbelow;
rightKerningGroup = A;
unicode = 1EB6;
},
{
glyphname = Abrevegrave;
lastChange = "2015-08-01 11:25:26 +0000";
layers = (
{
layerId = "80E8E25D-437F-49DC-8A9F-EB5C20E09398";
name = Light;
paths = (
{
closed = 1;
nodes = (
"246 0 LINE",
"246 59 LINE",
"192 59 LINE",
"244 205 LINE",
"478 205 LINE",
"529 59 LINE",
"475 59 LINE",
"475 0 LINE",
"682 0 LINE",
"682 59 LINE",
"650 59 LINE SMOOTH",
"622 59 OFFCURVE",
"605 68 OFFCURVE",
"595 95 CURVE SMOOTH",
"399 647 LINE",
"324 647 LINE",
"126 95 LINE SMOOTH",
"116 68 OFFCURVE",
"99 59 OFFCURVE",
"72 59 CURVE SMOOTH",
"39 59 LINE",
"39 0 LINE"
);
},
{
closed = 1;
nodes = (
"361 540 LINE",
"460 259 LINE",
"262 259 LINE"
);
},
{
closed = 1;
nodes = (
"448 701 OFFCURVE",
"514 754 OFFCURVE",
"514 841 CURVE",
"455 841 LINE",
"455 786 OFFCURVE",
"419 755 OFFCURVE",
"362 755 CURVE SMOOTH",
"304 755 OFFCURVE",
"269 786 OFFCURVE",
"269 841 CURVE",
"210 841 LINE",
"210 754 OFFCURVE",
"276 701 OFFCURVE",
"362 701 CURVE SMOOTH"
);
},
{
closed = 1;
nodes = (
"410 839 LINE",
"339 985 LINE",
"245 985 LINE",
"349 839 LINE"
);
}
);
width = 721;
}
);
leftKerningGroup = A;
note = Abrevegrave;
rightKerningGroup = A;
unicode = 1EB0;
},
{
glyphname = Abrevehookabove;
lastChange = "2015-08-01 11:25:24 +0000";
layers = (
{
layerId = "80E8E25D-437F-49DC-8A9F-EB5C20E09398";
name = Light;
paths = (
{
closed = 1;
nodes = (
"246 0 LINE",
"246 59 LINE",
"192 59 LINE",
"244 205 LINE",
"478 205 LINE",
"529 59 LINE",
"475 59 LINE",
"475 0 LINE",
"682 0 LINE",
"682 59 LINE",
"650 59 LINE SMOOTH",
"622 59 OFFCURVE",
"605 68 OFFCURVE",
"595 95 CURVE SMOOTH",
"399 647 LINE",
"324 647 LINE",
"126 95 LINE SMOOTH",
"116 68 OFFCURVE",
"99 59 OFFCURVE",
"72 59 CURVE SMOOTH",
"39 59 LINE",
"39 0 LINE"
);
},
{
closed = 1;
nodes = (
"361 540 LINE",
"460 259 LINE",
"262 259 LINE"
);
},
{
closed = 1;
nodes = (
"448 701 OFFCURVE",
"514 754 OFFCURVE",
"514 841 CURVE",
"455 841 LINE",
"455 786 OFFCURVE",
"420 755 OFFCURVE",
"362 755 CURVE SMOOTH",
"305 755 OFFCURVE",
"269 786 OFFCURVE",
"269 841 CURVE",
"210 841 LINE",
"210 754 OFFCURVE",
"276 701 OFFCURVE",
"362 701 CURVE SMOOTH"
);
},
{
closed = 1;
nodes = (
"383 831 LINE",
"383 854 LINE",
"428 861 OFFCURVE",
"448 881 OFFCURVE",
"448 920 CURVE SMOOTH",
"448 964 OFFCURVE",
"422 991 OFFCURVE",
"367 991 CURVE SMOOTH",
"344 991 OFFCURVE",
"322 987 OFFCURVE",
"308 982 CURVE",
"308 936 LINE",
"320 940 OFFCURVE",
"336 944 OFFCURVE",
"353 944 CURVE SMOOTH",
"375 944 OFFCURVE",
"390 936 OFFCURVE",
"390 916 CURVE SMOOTH",
"390 888 OFFCURVE",
"376 880 OFFCURVE",
"325 880 CURVE",
"325 831 LINE"
);
}
);
width = 721;
}
);
leftKerningGroup = A;
note = Abrevehookabove;
rightKerningGroup = A;
unicode = 1EB2;
},
{
glyphname = Abrevetilde;
lastChange = "2015-08-01 11:25:24 +0000";
layers = (
{
layerId = "80E8E25D-437F-49DC-8A9F-EB5C20E09398";
name = Light;
paths = (
{
closed = 1;
nodes = (
"246 0 LINE",
"246 59 LINE",
"192 59 LINE",
"244 205 LINE",
"478 205 LINE",
"529 59 LINE",
"475 59 LINE",
"475 0 LINE",
"682 0 LINE",
"682 59 LINE",
"650 59 LINE SMOOTH",
"622 59 OFFCURVE",
"605 68 OFFCURVE",
"595 95 CURVE SMOOTH",
"399 647 LINE",
"324 647 LINE",
"126 95 LINE SMOOTH",
"116 68 OFFCURVE",
"99 59 OFFCURVE",
"72 59 CURVE SMOOTH",
"39 59 LINE",
"39 0 LINE"
);
},
{
closed = 1;
nodes = (
"361 540 LINE",
"460 259 LINE",
"262 259 LINE"
);
},
{
closed = 1;
nodes = (
"448 701 OFFCURVE",
"514 754 OFFCURVE",
"514 841 CURVE",
"455 841 LINE",
"455 786 OFFCURVE",
"419 755 OFFCURVE",
"362 755 CURVE SMOOTH",
"305 755 OFFCURVE",
"269 786 OFFCURVE",
"269 841 CURVE",
"210 841 LINE",
"210 754 OFFCURVE",
"276 701 OFFCURVE",
"362 701 CURVE SMOOTH"
);
},
{
closed = 1;
nodes = (
"480 878 OFFCURVE",
"507 903 OFFCURVE",
"507 975 CURVE",
"454 975 LINE",
"454 946 OFFCURVE",
"447 930 OFFCURVE",
"424 930 CURVE SMOOTH",
"387 930 OFFCURVE",
"347 976 OFFCURVE",
"296 976 CURVE SMOOTH",
"244 976 OFFCURVE",
"215 952 OFFCURVE",
"215 879 CURVE",
"268 879 LINE",
"268 908 OFFCURVE",
"275 924 OFFCURVE",
"299 924 CURVE SMOOTH",
"336 924 OFFCURVE",
"378 878 OFFCURVE",
"428 878 CURVE SMOOTH"
);
}
);
width = 721;
}
);
leftKerningGroup = A;
note = Abrevetilde;
rightKerningGroup = A;
unicode = 1EB4;
},
{
glyphname = Acaron;
lastChange = "2015-08-01 11:25:24 +0000";
layers = (
{
layerId = "80E8E25D-437F-49DC-8A9F-EB5C20E09398";
name = Light;
paths = (
{
closed = 1;
nodes = (
"246 0 LINE",
"246 59 LINE",
"192 59 LINE",
"244 205 LINE",
"478 205 LINE",
"529 59 LINE",
"475 59 LINE",
"475 0 LINE",
"682 0 LINE",
"682 59 LINE",
"650 59 LINE SMOOTH",
"622 59 OFFCURVE",
"605 68 OFFCURVE",
"595 95 CURVE SMOOTH",
"399 647 LINE",
"324 647 LINE",
"126 95 LINE SMOOTH",
"116 68 OFFCURVE",
"99 59 OFFCURVE",
"72 59 CURVE SMOOTH",
"39 59 LINE",
"39 0 LINE"
);
},
{
closed = 1;
nodes = (
"361 540 LINE",
"460 259 LINE",
"262 259 LINE"
);
},
{
closed = 1;
nodes = (
"405 701 LINE",
"525 884 LINE",
"446 884 LINE",
"362 751 LINE",
"278 884 LINE",
"199 884 LINE",
"319 701 LINE"
);
}
);
width = 721;
}
);
leftKerningGroup = A;
note = Acaron;
rightKerningGroup = A;
unicode = 01CD;
},
{
glyphname = Acircumflex;
lastChange = "2015-08-01 11:25:25 +0000";
layers = (
{
layerId = "80E8E25D-437F-49DC-8A9F-EB5C20E09398";
name = Light;
paths = (
{
closed = 1;
nodes = (
"246 0 LINE",
"246 59 LINE",
"192 59 LINE",
"244 205 LINE",
"478 205 LINE",
"529 59 LINE",
"475 59 LINE",
"475 0 LINE",
"682 0 LINE",
"682 59 LINE",
"650 59 LINE SMOOTH",
"622 59 OFFCURVE",
"605 68 OFFCURVE",
"595 95 CURVE SMOOTH",
"399 647 LINE",
"324 647 LINE",
"126 95 LINE SMOOTH",
"116 68 OFFCURVE",
"99 59 OFFCURVE",
"72 59 CURVE SMOOTH",
"39 59 LINE",
"39 0 LINE"
);
},
{
closed = 1;
nodes = (
"361 540 LINE",
"460 259 LINE",
"262 259 LINE"
);
},
{
closed = 1;
nodes = (
"277 702 LINE",
"361 834 LINE",
"445 702 LINE",
"524 702 LINE",
"404 885 LINE",
"318 885 LINE",
"198 702 LINE"
);
}
);
width = 721;
}
);
leftKerningGroup = A;
note = Acircumflex;
rightKerningGroup = A;
unicode = 00C2;
},
{
glyphname = Acircumflexacute;
lastChange = "2015-08-01 11:25:26 +0000";
layers = (
{
layerId = "80E8E25D-437F-49DC-8A9F-EB5C20E09398";
name = Light;
paths = (
{
closed = 1;
nodes = (
"246 0 LINE",
"246 59 LINE",
"192 59 LINE",
"244 205 LINE",
"478 205 LINE",
"529 59 LINE",
"475 59 LINE",
"475 0 LINE",
"682 0 LINE",
"682 59 LINE",
"650 59 LINE SMOOTH",
"622 59 OFFCURVE",
"605 68 OFFCURVE",
"595 95 CURVE SMOOTH",
"399 647 LINE",
"324 647 LINE",
"126 95 LINE SMOOTH",
"116 68 OFFCURVE",
"99 59 OFFCURVE",
"72 59 CURVE SMOOTH",
"39 59 LINE",
"39 0 LINE"
);
},
{
closed = 1;
nodes = (
"361 540 LINE",
"460 259 LINE",
"262 259 LINE"
);
},
{
closed = 1;
nodes = (
"292 703 LINE",
"362 795 LINE",
"431 703 LINE",
"508 703 LINE",
"404 834 LINE",
"320 834 LINE",
"216 703 LINE"
);
},
{
closed = 1;
nodes = (
"519 810 LINE",
"615 931 LINE",
"519 931 LINE",
"456 810 LINE"
);
}
);
width = 721;
}
);
leftKerningGroup = A;
note = Acircumflexacute;
rightKerningGroup = A;
unicode = 1EA4;
},
{
glyphname = Acircumflexdotbelow;
lastChange = "2015-08-01 11:25:24 +0000";
layers = (
{
layerId = "80E8E25D-437F-49DC-8A9F-EB5C20E09398";
name = Light;
paths = (
{
closed = 1;
nodes = (
"246 0 LINE",
"246 59 LINE",
"192 59 LINE",
"244 205 LINE",
"478 205 LINE",
"529 59 LINE",
"475 59 LINE",
"475 0 LINE",
"682 0 LINE",
"682 59 LINE",
"650 59 LINE SMOOTH",
"622 59 OFFCURVE",
"605 68 OFFCURVE",
"595 95 CURVE SMOOTH",
"399 647 LINE",
"324 647 LINE",
"126 95 LINE SMOOTH",
"116 68 OFFCURVE",
"99 59 OFFCURVE",
"72 59 CURVE SMOOTH",
"39 59 LINE",
"39 0 LINE"
);
},
{
closed = 1;
nodes = (
"401 -145 LINE",
"401 -63 LINE",
"321 -63 LINE",
"321 -145 LINE"
);
},
{
closed = 1;
nodes = (
"361 540 LINE",
"460 259 LINE",
"262 259 LINE"
);
},
{
closed = 1;
nodes = (
"277 702 LINE",
"361 834 LINE",
"445 702 LINE",
"524 702 LINE",
"404 885 LINE",
"318 885 LINE",
"198 702 LINE"
);
}
);
width = 721;
}
);
leftKerningGroup = A;
note = Acircumflexdotbelow;
rightKerningGroup = A;
unicode = 1EAC;
},
{
glyphname = Acircumflexgrave;
lastChange = "2015-08-01 11:25:26 +0000";
layers = (
{
layerId = "80E8E25D-437F-49DC-8A9F-EB5C20E09398";
name = Light;
paths = (
{
closed = 1;
nodes = (
"246 0 LINE",
"246 59 LINE",
"192 59 LINE",
"244 205 LINE",
"478 205 LINE",
"529 59 LINE",
"475 59 LINE",
"475 0 LINE",
"682 0 LINE",
"682 59 LINE",
"650 59 LINE SMOOTH",
"622 59 OFFCURVE",
"605 68 OFFCURVE",
"595 95 CURVE SMOOTH",
"399 647 LINE",
"324 647 LINE",
"126 95 LINE SMOOTH",
"116 68 OFFCURVE",
"99 59 OFFCURVE",
"72 59 CURVE SMOOTH",
"39 59 LINE",
"39 0 LINE"
);
},
{
closed = 1;
nodes = (
"361 540 LINE",
"460 259 LINE",
"262 259 LINE"
);
},
{
closed = 1;
nodes = (
"266 810 LINE",
"203 931 LINE",
"107 931 LINE",
"203 810 LINE"
);
},
{
closed = 1;
nodes = (
"291 703 LINE",
"361 795 LINE",
"431 703 LINE",
"506 703 LINE",
"403 834 LINE",
"318 834 LINE",
"215 703 LINE"
);
}
);
width = 721;
}
);
leftKerningGroup = A;
note = Acircumflexgrave;
rightKerningGroup = A;
unicode = 1EA6;
},
{
glyphname = Acircumflexhookabove;
lastChange = "2015-08-01 11:25:25 +0000";
layers = (
{
layerId = "80E8E25D-437F-49DC-8A9F-EB5C20E09398";
name = Light;
paths = (
{
closed = 1;
nodes = (
"246 0 LINE",
"246 59 LINE",
"192 59 LINE",
"244 205 LINE",
"478 205 LINE",
"529 59 LINE",
"475 59 LINE",
"475 0 LINE",
"682 0 LINE",
"682 59 LINE",
"650 59 LINE SMOOTH",
"622 59 OFFCURVE",
"605 68 OFFCURVE",
"595 95 CURVE SMOOTH",
"399 647 LINE",
"324 647 LINE",
"126 95 LINE SMOOTH",
"116 68 OFFCURVE",
"99 59 OFFCURVE",
"72 59 CURVE SMOOTH",
"39 59 LINE",
"39 0 LINE"
);
},
{
closed = 1;
nodes = (
"361 540 LINE",
"460 259 LINE",
"262 259 LINE"
);
},
{
closed = 1;
nodes = (
"292 702 LINE",
"361 794 LINE",
"431 702 LINE",
"507 702 LINE",
"404 833 LINE",
"319 833 LINE",
"216 702 LINE"
);
},
{
closed = 1;
nodes = (
"492 822 LINE",
"492 845 LINE",
"538 852 OFFCURVE",
"557 872 OFFCURVE",
"557 911 CURVE SMOOTH",
"557 955 OFFCURVE",
"532 982 OFFCURVE",
"476 982 CURVE SMOOTH",
"454 982 OFFCURVE",
"431 978 OFFCURVE",
"418 973 CURVE",
"418 927 LINE",
"430 931 OFFCURVE",
"446 935 OFFCURVE",
"462 935 CURVE SMOOTH",
"484 935 OFFCURVE",
"499 927 OFFCURVE",
"499 907 CURVE SMOOTH",
"499 879 OFFCURVE",
"486 871 OFFCURVE",
"435 871 CURVE",
"435 822 LINE"
);
}
);
width = 721;
}
);
leftKerningGroup = A;
note = Acircumflexhookabove;
rightKerningGroup = A;
unicode = 1EA8;
},
{
glyphname = Acircumflextilde;
lastChange = "2015-08-01 11:25:26 +0000";
layers = (
{
layerId = "80E8E25D-437F-49DC-8A9F-EB5C20E09398";
name = Light;
paths = (
{
closed = 1;
nodes = (
"246 0 LINE",
"246 59 LINE",
"192 59 LINE",
"244 205 LINE",
"478 205 LINE",
"529 59 LINE",
"475 59 LINE",
"475 0 LINE",
"682 0 LINE",
"682 59 LINE",
"650 59 LINE SMOOTH",
"622 59 OFFCURVE",
"605 68 OFFCURVE",
"595 95 CURVE SMOOTH",
"399 647 LINE",
"324 647 LINE",
"126 95 LINE SMOOTH",
"116 68 OFFCURVE",
"99 59 OFFCURVE",
"72 59 CURVE SMOOTH",
"39 59 LINE",
"39 0 LINE"
);
},
{
closed = 1;
nodes = (
"361 540 LINE",
"460 259 LINE",
"262 259 LINE"
);
},
{
closed = 1;
nodes = (
"291 702 LINE",
"360 794 LINE",
"430 702 LINE",
"506 702 LINE",
"403 833 LINE",
"318 833 LINE",
"215 702 LINE"
);
},
{
closed = 1;
nodes = (
"480 853 OFFCURVE",
"507 878 OFFCURVE",
"507 950 CURVE",
"454 950 LINE",
"454 921 OFFCURVE",
"447 905 OFFCURVE",
"423 905 CURVE SMOOTH",
"386 905 OFFCURVE",
"347 951 OFFCURVE",
"295 951 CURVE SMOOTH",
"243 951 OFFCURVE",
"215 927 OFFCURVE",
"215 854 CURVE",
"268 854 LINE",
"268 883 OFFCURVE",
"275 899 OFFCURVE",
"298 899 CURVE SMOOTH",
"336 899 OFFCURVE",
"377 853 OFFCURVE",
"428 853 CURVE SMOOTH"
);
}
);
width = 721;
}
);
leftKerningGroup = A;
note = Acircumflextilde;
rightKerningGroup = A;
unicode = 1EAA;
},
{
glyphname = Adieresis;
lastChange = "2015-08-01 11:25:24 +0000";
layers = (
{
layerId = "80E8E25D-437F-49DC-8A9F-EB5C20E09398";
name = Light;
paths = (
{
closed = 1;
nodes = (
"246 0 LINE",
"246 59 LINE",
"192 59 LINE",
"244 205 LINE",
"478 205 LINE",
"529 59 LINE",
"475 59 LINE",
"475 0 LINE",
"682 0 LINE",
"682 59 LINE",
"650 59 LINE SMOOTH",
"622 59 OFFCURVE",
"605 68 OFFCURVE",
"595 95 CURVE SMOOTH",
"399 647 LINE",
"324 647 LINE",
"126 95 LINE SMOOTH",
"116 68 OFFCURVE",
"99 59 OFFCURVE",
"72 59 CURVE SMOOTH",
"39 59 LINE",
"39 0 LINE"
);
},
{
closed = 1;
nodes = (
"361 540 LINE",
"460 259 LINE",
"262 259 LINE"
);
},
{
closed = 1;
nodes = (
"301 721 LINE",
"301 803 LINE",
"221 803 LINE",
"221 721 LINE"
);
},
{
closed = 1;
nodes = (
"502 721 LINE",
"502 803 LINE",
"422 803 LINE",
"422 721 LINE"
);
}
);
width = 721;
}
);
leftKerningGroup = A;
note = Adieresis;
rightKerningGroup = A;
unicode = 00C4;
},
{
glyphname = Adotbelow;
lastChange = "2015-08-01 11:25:26 +0000";
layers = (
{
layerId = "80E8E25D-437F-49DC-8A9F-EB5C20E09398";
name = Light;
paths = (
{
closed = 1;
nodes = (
"246 0 LINE",
"246 59 LINE",
"192 59 LINE",
"244 205 LINE",
"478 205 LINE",
"529 59 LINE",
"475 59 LINE",
"475 0 LINE",
"682 0 LINE",
"682 59 LINE",
"650 59 LINE SMOOTH",
"622 59 OFFCURVE",
"605 68 OFFCURVE",
"595 95 CURVE SMOOTH",
"399 647 LINE",
"324 647 LINE",
"126 95 LINE SMOOTH",
"116 68 OFFCURVE",
"99 59 OFFCURVE",
"72 59 CURVE SMOOTH",
"39 59 LINE",
"39 0 LINE"
);
},
{
closed = 1;
nodes = (
"401 -145 LINE",
"401 -63 LINE",
"321 -63 LINE",
"321 -145 LINE"
);
},
{
closed = 1;
nodes = (
"361 540 LINE",
"460 259 LINE",
"262 259 LINE"
);
}
);
width = 721;
}
);
leftKerningGroup = A;
note = Adotbelow;
rightKerningGroup = A;
unicode = 1EA0;
},
{
glyphname = Agrave;
lastChange = "2015-08-01 11:25:25 +0000";
layers = (
{
layerId = "80E8E25D-437F-49DC-8A9F-EB5C20E09398";
name = Light;
paths = (
{
closed = 1;
nodes = (
"246 0 LINE",
"246 59 LINE",
"192 59 LINE",
"244 205 LINE",
"478 205 LINE",
"529 59 LINE",
"475 59 LINE",
"475 0 LINE",
"682 0 LINE",
"682 59 LINE",
"650 59 LINE SMOOTH",
"622 59 OFFCURVE",
"605 68 OFFCURVE",
"595 95 CURVE SMOOTH",
"399 647 LINE",
"324 647 LINE",
"126 95 LINE SMOOTH",
"116 68 OFFCURVE",
"99 59 OFFCURVE",
"72 59 CURVE SMOOTH",
"39 59 LINE",
"39 0 LINE"
);
},
{
closed = 1;
nodes = (
"361 540 LINE",
"460 259 LINE",
"262 259 LINE"
);
},
{
closed = 1;
nodes = (
"397 701 LINE",
"314 880 LINE",
"212 880 LINE",
"327 701 LINE"
);
}
);
width = 721;
}
);
leftKerningGroup = A;
note = Agrave;
rightKerningGroup = A;
unicode = 00C0;
},
{
glyphname = Ahookabove;
lastChange = "2015-08-01 11:25:25 +0000";
layers = (
{
layerId = "80E8E25D-437F-49DC-8A9F-EB5C20E09398";
name = Light;
paths = (
{
closed = 1;
nodes = (
"246 0 LINE",
"246 59 LINE",
"192 59 LINE",
"244 205 LINE",
"478 205 LINE",
"529 59 LINE",
"475 59 LINE",
"475 0 LINE",
"682 0 LINE",
"682 59 LINE",
"650 59 LINE SMOOTH",
"622 59 OFFCURVE",
"605 68 OFFCURVE",
"595 95 CURVE SMOOTH",
"399 647 LINE",
"324 647 LINE",
"126 95 LINE SMOOTH",
"116 68 OFFCURVE",
"99 59 OFFCURVE",
"72 59 CURVE SMOOTH",
"39 59 LINE",
"39 0 LINE"
);
},
{
closed = 1;
nodes = (
"361 540 LINE",
"460 259 LINE",
"262 259 LINE"
);
},
{
closed = 1;
nodes = (
"394 701 LINE",
"394 740 LINE",
"438 751 OFFCURVE",
"462 777 OFFCURVE",
"462 819 CURVE SMOOTH",
"462 880 OFFCURVE",
"420 902 OFFCURVE",
"354 902 CURVE SMOOTH",
"329 902 OFFCURVE",
"305 897 OFFCURVE",
"290 892 CURVE",
"290 842 LINE",
"303 846 OFFCURVE",
"321 850 OFFCURVE",
"339 850 CURVE SMOOTH",
"379 850 OFFCURVE",
"396 842 OFFCURVE",
"396 813 CURVE SMOOTH",
"396 785 OFFCURVE",
"382 766 OFFCURVE",
"329 766 CURVE",
"329 701 LINE"
);
}
);
width = 721;
}
);
leftKerningGroup = A;
note = Ahookabove;
rightKerningGroup = A;
unicode = 1EA2;
},
{
glyphname = Amacron;
lastChange = "2015-08-01 11:25:25 +0000";
layers = (
{
layerId = "80E8E25D-437F-49DC-8A9F-EB5C20E09398";
name = Light;
paths = (
{
closed = 1;
nodes = (
"246 0 LINE",
"246 59 LINE",
"192 59 LINE",
"244 205 LINE",
"478 205 LINE",
"529 59 LINE",
"475 59 LINE",
"475 0 LINE",
"682 0 LINE",
"682 59 LINE",
"650 59 LINE SMOOTH",
"622 59 OFFCURVE",
"605 68 OFFCURVE",
"595 95 CURVE SMOOTH",
"399 647 LINE",
"324 647 LINE",
"126 95 LINE SMOOTH",
"116 68 OFFCURVE",
"99 59 OFFCURVE",
"72 59 CURVE SMOOTH",
"39 59 LINE",
"39 0 LINE"
);
},
{
closed = 1;
nodes = (
"361 540 LINE",
"460 259 LINE",
"262 259 LINE"
);
},
{
closed = 1;
nodes = (
"501 722 LINE",
"501 779 LINE",
"221 779 LINE",
"221 722 LINE"
);
}
);
width = 721;
}
);
leftKerningGroup = A;
note = Amacron;
rightKerningGroup = A;
unicode = 0100;
},
{
glyphname = Aogonek;
lastChange = "2015-08-01 11:25:24 +0000";
layers = (
{
layerId = "80E8E25D-437F-49DC-8A9F-EB5C20E09398";
name = Light;
paths = (
{
closed = 1;
nodes = (
"246 0 LINE",
"246 59 LINE",
"192 59 LINE",
"244 205 LINE",
"478 205 LINE",
"529 59 LINE",
"475 59 LINE",
"475 0 LINE",
"682 0 LINE",
"682 59 LINE",
"650 59 LINE SMOOTH",
"622 59 OFFCURVE",
"605 68 OFFCURVE",
"595 95 CURVE SMOOTH",
"399 647 LINE",
"324 647 LINE",
"126 95 LINE SMOOTH",
"116 68 OFFCURVE",
"99 59 OFFCURVE",
"72 59 CURVE SMOOTH",
"39 59 LINE",
"39 0 LINE"
);
},
{
closed = 1;
nodes = (
"614 -205 OFFCURVE",
"634 -200 OFFCURVE",
"648 -191 CURVE",
"648 -142 LINE",
"633 -147 OFFCURVE",
"617 -149 OFFCURVE",
"603 -149 CURVE SMOOTH",
"576 -149 OFFCURVE",
"563 -134 OFFCURVE",
"563 -99 CURVE SMOOTH",
"563 -60 OFFCURVE",
"580 -29 OFFCURVE",
"613 0 CURVE",
"547 0 LINE",
"516 -29 OFFCURVE",
"497 -66 OFFCURVE",
"497 -109 CURVE SMOOTH",
"497 -175 OFFCURVE",
"536 -205 OFFCURVE",
"591 -205 CURVE SMOOTH"
);
},
{
closed = 1;
nodes = (
"361 540 LINE",
"460 259 LINE",
"262 259 LINE"
);
}
);
width = 721;
}
);
leftKerningGroup = A;
note = Aogonek;
rightKerningGroup = A;
unicode = 0104;
},
{
glyphname = Aring;
lastChange = "2015-08-01 11:25:25 +0000";
layers = (
{
layerId = "80E8E25D-437F-49DC-8A9F-EB5C20E09398";
name = Light;
paths = (
{
closed = 1;
nodes = (
"246 0 LINE",
"246 59 LINE",
"192 59 LINE",
"244 205 LINE",
"478 205 LINE",
"529 59 LINE",
"475 59 LINE",
"475 0 LINE",
"682 0 LINE",
"682 59 LINE",
"650 59 LINE SMOOTH",
"622 59 OFFCURVE",
"605 68 OFFCURVE",
"595 95 CURVE SMOOTH",
"399 647 LINE",
"324 647 LINE",
"126 95 LINE SMOOTH",
"116 68 OFFCURVE",
"99 59 OFFCURVE",
"72 59 CURVE SMOOTH",
"39 59 LINE",
"39 0 LINE"
);
},
{
closed = 1;
nodes = (
"361 540 LINE",
"460 259 LINE",
"262 259 LINE"
);
},
{
closed = 1;
nodes = (
"422 602 OFFCURVE",
"472 651 OFFCURVE",
"472 712 CURVE SMOOTH",
"472 774 OFFCURVE",
"422 823 OFFCURVE",
"361 823 CURVE SMOOTH",
"299 823 OFFCURVE",
"251 774 OFFCURVE",
"251 712 CURVE SMOOTH",
"251 651 OFFCURVE",
"299 602 OFFCURVE",
"361 602 CURVE SMOOTH"
);
},
{
closed = 1;
nodes = (
"327 654 OFFCURVE",
"302 679 OFFCURVE",
"302 712 CURVE SMOOTH",
"302 746 OFFCURVE",
"327 772 OFFCURVE",
"361 772 CURVE SMOOTH",
"394 772 OFFCURVE",
"420 746 OFFCURVE",
"420 712 CURVE SMOOTH",
"420 679 OFFCURVE",
"394 654 OFFCURVE",
"361 654 CURVE SMOOTH"
);
}
);
width = 721;
}
);
leftKerningGroup = A;
note = Aring;
rightKerningGroup = A;
unicode = 00C5;
},
{
glyphname = Aringacute;
lastChange = "2015-08-01 11:25:25 +0000";
layers = (
{
layerId = "80E8E25D-437F-49DC-8A9F-EB5C20E09398";
name = Light;
paths = (
{
closed = 1;
nodes = (
"246 0 LINE",
"246 59 LINE",
"192 59 LINE",
"244 205 LINE",
"478 205 LINE",
"529 59 LINE",
"475 59 LINE",
"475 0 LINE",
"682 0 LINE",
"682 59 LINE",
"650 59 LINE SMOOTH",
"622 59 OFFCURVE",
"605 68 OFFCURVE",
"595 95 CURVE SMOOTH",
"399 647 LINE",
"324 647 LINE",
"126 95 LINE SMOOTH",
"116 68 OFFCURVE",
"99 59 OFFCURVE",
"72 59 CURVE SMOOTH",
"39 59 LINE",
"39 0 LINE"
);
},
{
closed = 1;
nodes = (
"361 540 LINE",
"460 259 LINE",
"262 259 LINE"
);
},
{
closed = 1;
nodes = (
"422 603 OFFCURVE",
"472 652 OFFCURVE",
"472 713 CURVE SMOOTH",
"472 775 OFFCURVE",
"422 824 OFFCURVE",
"361 824 CURVE SMOOTH",
"299 824 OFFCURVE",
"251 775 OFFCURVE",
"251 713 CURVE SMOOTH",
"251 652 OFFCURVE",
"299 603 OFFCURVE",
"361 603 CURVE SMOOTH"
);
},
{
closed = 1;
nodes = (
"327 655 OFFCURVE",
"302 680 OFFCURVE",
"302 713 CURVE SMOOTH",
"302 747 OFFCURVE",
"327 773 OFFCURVE",
"361 773 CURVE SMOOTH",
"394 773 OFFCURVE",
"420 747 OFFCURVE",
"420 713 CURVE SMOOTH",
"420 680 OFFCURVE",
"394 655 OFFCURVE",
"361 655 CURVE SMOOTH"
);
},
{
closed = 1;
nodes = (
"386 850 LINE",
"501 1029 LINE",
"399 1029 LINE",
"316 850 LINE"
);
}
);
width = 721;
}
);
leftKerningGroup = A;
note = Aringacute;
rightKerningGroup = A;
unicode = 01FA;
},
{
glyphname = Atilde;
lastChange = "2015-08-01 11:25:26 +0000";
layers = (
{
layerId = "80E8E25D-437F-49DC-8A9F-EB5C20E09398";
name = Light;
paths = (
{
closed = 1;
nodes = (
"246 0 LINE",
"246 59 LINE",
"192 59 LINE",
"244 205 LINE",
"478 205 LINE",
"529 59 LINE",
"475 59 LINE",
"475 0 LINE",
"682 0 LINE",
"682 59 LINE",
"650 59 LINE SMOOTH",
"622 59 OFFCURVE",
"605 68 OFFCURVE",
"595 95 CURVE SMOOTH",
"399 647 LINE",
"324 647 LINE",
"126 95 LINE SMOOTH",
"116 68 OFFCURVE",
"99 59 OFFCURVE",
"72 59 CURVE SMOOTH",
"39 59 LINE",
"39 0 LINE"
);
},
{
closed = 1;
nodes = (
"361 540 LINE",
"460 259 LINE",
"262 259 LINE"
);
},
{
closed = 1;
nodes = (
"239 702 LINE",
"239 747 OFFCURVE",
"255 758 OFFCURVE",
"284 758 CURVE SMOOTH",
"340 758 OFFCURVE",
"379 702 OFFCURVE",
"447 702 CURVE SMOOTH",
"513 702 OFFCURVE",
"547 738 OFFCURVE",
"547 823 CURVE",
"484 823 LINE",
"484 778 OFFCURVE",
"469 766 OFFCURVE",
"440 766 CURVE SMOOTH",
"389 766 OFFCURVE",
"348 823 OFFCURVE",
"277 823 CURVE SMOOTH",
"211 823 OFFCURVE",
"176 786 OFFCURVE",
"176 702 CURVE"
);
}
);
width = 721;
}
);
leftKerningGroup = A;
note = Atilde;
rightKerningGroup = A;
unicode = 00C3;
},
{
glyphname = AE;
lastChange = "2015-08-01 11:25:25 +0000";
layers = (
{
layerId = "80E8E25D-437F-49DC-8A9F-EB5C20E09398";
name = Light;
paths = (
{
closed = 1;
nodes = (
"246 0 LINE",
"246 59 LINE",
"192 59 LINE",
"248 205 LINE",
"416 205 LINE",
"416 117 LINE SMOOTH",
"416 79 OFFCURVE",
"416 59 OFFCURVE",
"379 59 CURVE SMOOTH",
"349 59 LINE",
"349 0 LINE",
"805 0 LINE",
"805 117 LINE",
"733 117 LINE",
"733 94 LINE SMOOTH",
"733 69 OFFCURVE",
"723 59 OFFCURVE",
"696 59 CURVE SMOOTH",
"494 59 LINE",
"494 295 LINE",
"678 295 LINE",
"678 354 LINE",
"494 354 LINE",
"494 588 LINE",
"672 588 LINE SMOOTH",
"713 588 OFFCURVE",
"733 585 OFFCURVE",
"733 552 CURVE SMOOTH",
"733 531 LINE",
"805 531 LINE",
"805 647 LINE",
"340 647 LINE",
"126 95 LINE SMOOTH",
"116 68 OFFCURVE",
"99 59 OFFCURVE",
"72 59 CURVE SMOOTH",
"39 59 LINE",
"39 0 LINE"
);
},
{
closed = 1;
nodes = (
"393 588 LINE",
"416 588 LINE",
"416 264 LINE",
"268 264 LINE"
);
}
);
width = 844;
}
);
leftKerningGroup = A;
note = AE;
rightKerningGroup = E;
unicode = 00C6;
},
{
glyphname = AEacute;
lastChange = "2015-08-01 11:25:26 +0000";
layers = (
{
layerId = "80E8E25D-437F-49DC-8A9F-EB5C20E09398";
name = Light;
paths = (
{
closed = 1;
nodes = (
"246 0 LINE",
"246 59 LINE",
"192 59 LINE",
"248 205 LINE",
"416 205 LINE",
"416 117 LINE SMOOTH",
"416 79 OFFCURVE",
"416 59 OFFCURVE",
"379 59 CURVE SMOOTH",
"349 59 LINE",
"349 0 LINE",
"805 0 LINE",
"805 117 LINE",
"733 117 LINE",
"733 94 LINE SMOOTH",
"733 69 OFFCURVE",
"723 59 OFFCURVE",
"696 59 CURVE SMOOTH",
"494 59 LINE",
"494 295 LINE",
"678 295 LINE",
"678 354 LINE",
"494 354 LINE",
"494 588 LINE",
"672 588 LINE SMOOTH",
"713 588 OFFCURVE",
"733 585 OFFCURVE",
"733 552 CURVE SMOOTH",
"733 531 LINE",
"805 531 LINE",
"805 647 LINE",
"340 647 LINE",
"126 95 LINE SMOOTH",
"116 68 OFFCURVE",
"99 59 OFFCURVE",
"72 59 CURVE SMOOTH",
"39 59 LINE",
"39 0 LINE"
);
},
{
closed = 1;
nodes = (
"393 588 LINE",
"416 588 LINE",
"416 264 LINE",
"268 264 LINE"
);
},
{
closed = 1;
nodes = (
"531 701 LINE",
"646 880 LINE",
"544 880 LINE",
"461 701 LINE"
);
}
);
width = 844;
}
);
leftKerningGroup = A;
note = AEacute;
rightKerningGroup = E;
unicode = 01FC;
},
{
glyphname = B;
lastChange = "2015-08-01 11:25:26 +0000";
layers = (
{
layerId = "80E8E25D-437F-49DC-8A9F-EB5C20E09398";
name = Light;
paths = (
{
closed = 1;
nodes = (
"376 0 LINE SMOOTH",
"487 0 OFFCURVE",
"544 81 OFFCURVE",
"544 177 CURVE SMOOTH",
"544 250 OFFCURVE",
"512 308 OFFCURVE",
"443 329 CURVE",
"504 355 OFFCURVE",
"532 412 OFFCURVE",
"532 477 CURVE SMOOTH",
"532 582 OFFCURVE",
"474 647 OFFCURVE",
"357 647 CURVE SMOOTH",
"39 647 LINE",
"39 588 LINE",
"71 588 LINE SMOOTH",
"97 588 OFFCURVE",
"106 578 OFFCURVE",
"106 552 CURVE SMOOTH",
"106 96 LINE SMOOTH",
"106 69 OFFCURVE",
"97 59 OFFCURVE",
"71 59 CURVE SMOOTH",
"39 59 LINE",
"39 0 LINE"
);
},
{
closed = 1;
nodes = (
"186 297 LINE",
"340 297 LINE SMOOTH",
"430 297 OFFCURVE",
"467 260 OFFCURVE",
"467 179 CURVE SMOOTH",
"467 98 OFFCURVE",
"426 59 OFFCURVE",
"360 59 CURVE SMOOTH",
"186 59 LINE"
);
},
{
closed = 1;
nodes = (
"186 588 LINE",
"340 588 LINE SMOOTH",
"424 588 OFFCURVE",
"455 552 OFFCURVE",
"455 474 CURVE SMOOTH",
"455 400 OFFCURVE",
"412 356 OFFCURVE",
"332 356 CURVE SMOOTH",
"186 356 LINE"
);
}
);
width = 583;
}
);
note = B;
unicode = 0042;
},
{
glyphname = C;
lastChange = "2015-08-01 11:25:25 +0000";
layers = (
{
layerId = "80E8E25D-437F-49DC-8A9F-EB5C20E09398";
name = Light;
paths = (
{
closed = 1;
nodes = (
"437 -15 OFFCURVE",
"496 -4 OFFCURVE",
"552 32 CURVE",
"520 82 LINE",
"475 55 OFFCURVE",
"426 45 OFFCURVE",
"363 45 CURVE SMOOTH",
"215 45 OFFCURVE",
"116 148 OFFCURVE",
"116 320 CURVE SMOOTH",
"116 496 OFFCURVE",
"204 602 OFFCURVE",
"352 602 CURVE SMOOTH",
"404 602 OFFCURVE",
"446 594 OFFCURVE",
"479 578 CURVE",
"479 518 LINE",
"558 518 LINE",
"558 608 LINE",
"509 644 OFFCURVE",
"442 662 OFFCURVE",
"352 662 CURVE SMOOTH",
"139 662 OFFCURVE",
"39 514 OFFCURVE",
"39 320 CURVE SMOOTH",
"39 126 OFFCURVE",
"152 -15 OFFCURVE",
"361 -15 CURVE SMOOTH"
);
}
);
width = 597;
}
);
leftKerningGroup = C;
note = C;
unicode = 0043;
},
{
glyphname = Cacute;
lastChange = "2015-08-01 11:25:25 +0000";
layers = (
{
layerId = "80E8E25D-437F-49DC-8A9F-EB5C20E09398";
name = Light;
paths = (
{
closed = 1;
nodes = (
"437 -15 OFFCURVE",
"496 -4 OFFCURVE",
"552 32 CURVE",
"520 82 LINE",
"475 55 OFFCURVE",
"426 45 OFFCURVE",
"363 45 CURVE SMOOTH",
"215 45 OFFCURVE",
"116 148 OFFCURVE",
"116 320 CURVE SMOOTH",
"116 496 OFFCURVE",
"204 602 OFFCURVE",
"352 602 CURVE SMOOTH",
"404 602 OFFCURVE",
"446 594 OFFCURVE",
"479 578 CURVE",
"479 518 LINE",
"558 518 LINE",
"558 608 LINE",
"509 644 OFFCURVE",
"442 662 OFFCURVE",
"352 662 CURVE SMOOTH",
"139 662 OFFCURVE",
"39 514 OFFCURVE",
"39 320 CURVE SMOOTH",
"39 126 OFFCURVE",
"152 -15 OFFCURVE",
"361 -15 CURVE SMOOTH"
);
},
{
closed = 1;
nodes = (
"376 701 LINE",
"491 880 LINE",
"389 880 LINE",
"306 701 LINE"
);
}
);
width = 597;
}
);
leftKerningGroup = C;
note = Cacute;
unicode = 0106;
},
{
glyphname = Ccaron;
lastChange = "2015-08-01 11:25:25 +0000";
layers = (
{
layerId = "80E8E25D-437F-49DC-8A9F-EB5C20E09398";
name = Light;
paths = (
{
closed = 1;
nodes = (
"437 -15 OFFCURVE",
"496 -4 OFFCURVE",
"552 32 CURVE",
"520 82 LINE",
"475 55 OFFCURVE",
"426 45 OFFCURVE",
"363 45 CURVE SMOOTH",
"215 45 OFFCURVE",
"116 148 OFFCURVE",
"116 320 CURVE SMOOTH",
"116 496 OFFCURVE",
"204 602 OFFCURVE",
"352 602 CURVE SMOOTH",
"404 602 OFFCURVE",
"446 594 OFFCURVE",
"479 578 CURVE",
"479 518 LINE",
"558 518 LINE",
"558 608 LINE",
"509 644 OFFCURVE",
"442 662 OFFCURVE",
"352 662 CURVE SMOOTH",
"139 662 OFFCURVE",
"39 514 OFFCURVE",
"39 320 CURVE SMOOTH",
"39 126 OFFCURVE",
"152 -15 OFFCURVE",
"361 -15 CURVE SMOOTH"
);
},
{
closed = 1;
nodes = (
"397 702 LINE",
"517 885 LINE",
"438 885 LINE",
"354 752 LINE",
"270 885 LINE",
"191 885 LINE",
"311 702 LINE"
);
}
);
width = 597;
}
);
leftKerningGroup = C;
note = Ccaron;
unicode = 010C;
},
{
glyphname = Ccedilla;
lastChange = "2015-08-01 11:25:25 +0000";
layers = (
{
layerId = "80E8E25D-437F-49DC-8A9F-EB5C20E09398";
name = Light;
paths = (
{
closed = 1;
nodes = (
"417 -228 OFFCURVE",
"461 -196 OFFCURVE",
"461 -136 CURVE SMOOTH",
"461 -90 OFFCURVE",
"440 -59 OFFCURVE",
"378 -50 CURVE",
"383 -14 LINE",
"449 -12 OFFCURVE",
"501 0 OFFCURVE",
"552 32 CURVE",
"520 82 LINE",
"475 55 OFFCURVE",
"426 45 OFFCURVE",
"363 45 CURVE SMOOTH",
"215 45 OFFCURVE",
"116 148 OFFCURVE",
"116 320 CURVE SMOOTH",
"116 496 OFFCURVE",
"204 602 OFFCURVE",
"352 602 CURVE SMOOTH",
"404 602 OFFCURVE",
"446 594 OFFCURVE",
"479 578 CURVE",
"479 518 LINE",
"558 518 LINE",
"558 608 LINE",
"509 644 OFFCURVE",
"442 662 OFFCURVE",
"352 662 CURVE SMOOTH",
"139 662 OFFCURVE",
"39 514 OFFCURVE",
"39 320 CURVE SMOOTH",
"39 141 OFFCURVE",
"135 7 OFFCURVE",
"314 -12 CURVE",
"303 -84 LINE",
"379 -84 OFFCURVE",
"395 -99 OFFCURVE",
"395 -136 CURVE SMOOTH",
"395 -164 OFFCURVE",
"373 -177 OFFCURVE",
"329 -177 CURVE SMOOTH",
"306 -177 OFFCURVE",
"285 -172 OFFCURVE",
"270 -167 CURVE",
"270 -217 LINE",
"290 -224 OFFCURVE",
"311 -228 OFFCURVE",
"335 -228 CURVE SMOOTH"
);
}
);
width = 597;
}
);
leftKerningGroup = C;
note = Ccedilla;
unicode = 00C7;
},
{
glyphname = Ccircumflex;
lastChange = "2015-08-01 11:25:26 +0000";
layers = (
{
layerId = "80E8E25D-437F-49DC-8A9F-EB5C20E09398";
name = Light;
paths = (
{
closed = 1;
nodes = (
"437 -15 OFFCURVE",
"496 -4 OFFCURVE",
"552 32 CURVE",
"520 82 LINE",
"475 55 OFFCURVE",
"426 45 OFFCURVE",
"363 45 CURVE SMOOTH",
"215 45 OFFCURVE",
"116 148 OFFCURVE",
"116 320 CURVE SMOOTH",
"116 496 OFFCURVE",
"204 602 OFFCURVE",
"352 602 CURVE SMOOTH",
"404 602 OFFCURVE",
"446 594 OFFCURVE",
"479 578 CURVE",
"479 518 LINE",
"558 518 LINE",
"558 608 LINE",
"509 644 OFFCURVE",
"442 662 OFFCURVE",
"352 662 CURVE SMOOTH",
"139 662 OFFCURVE",
"39 514 OFFCURVE",
"39 320 CURVE SMOOTH",
"39 126 OFFCURVE",
"152 -15 OFFCURVE",
"361 -15 CURVE SMOOTH"
);
},
{
closed = 1;
nodes = (
"273 702 LINE",
"357 834 LINE",
"441 702 LINE",
"520 702 LINE",
"400 885 LINE",
"314 885 LINE",
"194 702 LINE"
);
}
);
width = 597;
}
);
leftKerningGroup = C;
note = Ccircumflex;
unicode = 0108;
},
{
glyphname = Cdotaccent;
lastChange = "2015-11-24 06:12:11 +0000";
layers = (
{
layerId = "80E8E25D-437F-49DC-8A9F-EB5C20E09398";
name = Light;
paths = (
{
closed = 1;
nodes = (
"437 -15 OFFCURVE",
"496 -4 OFFCURVE",
"552 32 CURVE",
"520 82 LINE",
"475 55 OFFCURVE",
"426 45 OFFCURVE",
"363 45 CURVE SMOOTH",
"215 45 OFFCURVE",
"116 148 OFFCURVE",
"116 320 CURVE SMOOTH",
"116 496 OFFCURVE",
"204 602 OFFCURVE",
"352 602 CURVE SMOOTH",
"404 602 OFFCURVE",
"446 594 OFFCURVE",
"479 578 CURVE",
"479 518 LINE",
"558 518 LINE",
"558 608 LINE",
"509 644 OFFCURVE",
"442 662 OFFCURVE",
"352 662 CURVE SMOOTH",
"139 662 OFFCURVE",
"39 514 OFFCURVE",
"39 320 CURVE SMOOTH",
"39 126 OFFCURVE",
"152 -15 OFFCURVE",
"361 -15 CURVE SMOOTH"
);
},
{
closed = 1;
nodes = (
"403 721 LINE",
"403 803 LINE",
"323 803 LINE",
"323 721 LINE"
);
}
);
width = 597;
}
);
leftKerningGroup = C;
note = Cdotaccent;
unicode = 010A;
},
{
glyphname = D;
lastChange = "2015-08-01 11:25:25 +0000";
layers = (
{
layerId = "80E8E25D-437F-49DC-8A9F-EB5C20E09398";
name = Light;
paths = (
{
closed = 1;
nodes = (
"315 0 LINE SMOOTH",
"498 0 OFFCURVE",
"585 130 OFFCURVE",
"585 321 CURVE SMOOTH",
"585 518 OFFCURVE",
"504 647 OFFCURVE",
"315 647 CURVE SMOOTH",
"39 647 LINE",
"39 588 LINE",
"63 588 LINE SMOOTH",
"89 588 OFFCURVE",
"98 578 OFFCURVE",
"98 552 CURVE SMOOTH",
"98 96 LINE SMOOTH",
"98 69 OFFCURVE",
"89 59 OFFCURVE",
"63 59 CURVE SMOOTH",
"39 59 LINE",
"39 0 LINE"
);
},
{
closed = 1;
nodes = (
"178 588 LINE",
"305 588 LINE SMOOTH",
"451 588 OFFCURVE",
"508 496 OFFCURVE",
"508 321 CURVE SMOOTH",
"508 150 OFFCURVE",
"450 59 OFFCURVE",
"305 59 CURVE SMOOTH",
"178 59 LINE"
);
}
);
width = 624;
}
);
note = D;
rightKerningGroup = D;
unicode = 0044;
},
{
glyphname = Eth;
lastChange = "2015-08-01 11:25:26 +0000";
layers = (
{
layerId = "80E8E25D-437F-49DC-8A9F-EB5C20E09398";
name = Light;
paths = (
{
closed = 1;
nodes = (
"315 0 LINE SMOOTH",
"498 0 OFFCURVE",
"585 130 OFFCURVE",
"585 321 CURVE SMOOTH",
"585 518 OFFCURVE",
"504 647 OFFCURVE",
"315 647 CURVE SMOOTH",
"39 647 LINE",
"39 588 LINE",
"63 588 LINE SMOOTH",
"89 588 OFFCURVE",
"98 578 OFFCURVE",
"98 552 CURVE SMOOTH",
"98 353 LINE",
"39 353 LINE",
"39 294 LINE",
"98 294 LINE",
"98 96 LINE SMOOTH",
"98 69 OFFCURVE",
"89 59 OFFCURVE",
"63 59 CURVE SMOOTH",
"39 59 LINE",
"39 0 LINE"
);
},
{
closed = 1;
nodes = (
"178 294 LINE",
"326 294 LINE",
"326 353 LINE",
"178 353 LINE",
"178 588 LINE",
"305 588 LINE SMOOTH",
"451 588 OFFCURVE",
"508 496 OFFCURVE",
"508 321 CURVE SMOOTH",
"508 150 OFFCURVE",
"450 59 OFFCURVE",
"305 59 CURVE SMOOTH",
"178 59 LINE"
);
}
);
width = 624;
}
);
note = Eth;
rightKerningGroup = D;
unicode = 00D0;
},
{
glyphname = Dcaron;
lastChange = "2015-08-01 11:25:24 +0000";
layers = (
{
layerId = "80E8E25D-437F-49DC-8A9F-EB5C20E09398";
name = Light;
paths = (
{
closed = 1;
nodes = (
"315 0 LINE SMOOTH",
"498 0 OFFCURVE",
"585 130 OFFCURVE",
"585 321 CURVE SMOOTH",
"585 518 OFFCURVE",
"504 647 OFFCURVE",
"315 647 CURVE SMOOTH",
"39 647 LINE",
"39 588 LINE",
"63 588 LINE SMOOTH",
"89 588 OFFCURVE",
"98 578 OFFCURVE",
"98 552 CURVE SMOOTH",
"98 96 LINE SMOOTH",
"98 69 OFFCURVE",
"89 59 OFFCURVE",
"63 59 CURVE SMOOTH",
"39 59 LINE",
"39 0 LINE"
);
},
{
closed = 1;
nodes = (
"178 588 LINE",
"305 588 LINE SMOOTH",
"451 588 OFFCURVE",
"508 496 OFFCURVE",
"508 321 CURVE SMOOTH",
"508 150 OFFCURVE",
"450 59 OFFCURVE",
"305 59 CURVE SMOOTH",
"178 59 LINE"
);
},
{
closed = 1;
nodes = (
"315 702 LINE",
"435 885 LINE",
"356 885 LINE",
"272 752 LINE",
"188 885 LINE",
"109 885 LINE",
"229 702 LINE"
);
}
);
width = 624;
}
);
note = Dcaron;
rightKerningGroup = D;
unicode = 010E;
},
{
glyphname = Dcroat;
lastChange = "2015-08-01 11:25:26 +0000";
layers = (
{
layerId = "80E8E25D-437F-49DC-8A9F-EB5C20E09398";
name = Light;
paths = (
{
closed = 1;
nodes = (
"315 0 LINE SMOOTH",
"498 0 OFFCURVE",
"585 130 OFFCURVE",
"585 321 CURVE SMOOTH",
"585 518 OFFCURVE",
"504 647 OFFCURVE",
"315 647 CURVE SMOOTH",
"39 647 LINE",
"39 588 LINE",
"63 588 LINE SMOOTH",
"89 588 OFFCURVE",
"98 578 OFFCURVE",
"98 552 CURVE SMOOTH",
"98 353 LINE",
"39 353 LINE",
"39 294 LINE",
"98 294 LINE",
"98 96 LINE SMOOTH",
"98 69 OFFCURVE",
"89 59 OFFCURVE",
"63 59 CURVE SMOOTH",
"39 59 LINE",
"39 0 LINE"
);
},
{
closed = 1;
nodes = (
"178 294 LINE",
"326 294 LINE",
"326 353 LINE",
"178 353 LINE",
"178 588 LINE",
"305 588 LINE SMOOTH",
"451 588 OFFCURVE",
"508 496 OFFCURVE",
"508 321 CURVE SMOOTH",
"508 150 OFFCURVE",
"450 59 OFFCURVE",
"305 59 CURVE SMOOTH",
"178 59 LINE"
);
}
);
width = 624;
}
);
note = Dcroat;
rightKerningGroup = D;
unicode = 0110;
},
{
glyphname = Ddotbelow;
lastChange = "2015-08-01 11:25:25 +0000";
layers = (
{
layerId = "80E8E25D-437F-49DC-8A9F-EB5C20E09398";
name = Light;
paths = (
{
closed = 1;
nodes = (
"315 0 LINE SMOOTH",
"498 0 OFFCURVE",
"585 130 OFFCURVE",
"585 321 CURVE SMOOTH",
"585 518 OFFCURVE",
"504 647 OFFCURVE",
"315 647 CURVE SMOOTH",
"39 647 LINE",
"39 588 LINE",
"63 588 LINE SMOOTH",
"89 588 OFFCURVE",
"98 578 OFFCURVE",
"98 552 CURVE SMOOTH",
"98 96 LINE SMOOTH",
"98 69 OFFCURVE",
"89 59 OFFCURVE",
"63 59 CURVE SMOOTH",
"39 59 LINE",
"39 0 LINE"
);
},
{
closed = 1;
nodes = (
"306 -145 LINE",
"306 -63 LINE",
"226 -63 LINE",
"226 -145 LINE"
);
},
{
closed = 1;
nodes = (
"178 588 LINE",
"305 588 LINE SMOOTH",
"451 588 OFFCURVE",
"508 496 OFFCURVE",
"508 321 CURVE SMOOTH",
"508 150 OFFCURVE",
"450 59 OFFCURVE",
"305 59 CURVE SMOOTH",
"178 59 LINE"
);
}
);
width = 624;
}
);
note = Ddotbelow;
rightKerningGroup = D;
unicode = 1E0C;
},
{
glyphname = Dlinebelow;
lastChange = "2015-08-01 11:25:26 +0000";
layers = (
{
layerId = "80E8E25D-437F-49DC-8A9F-EB5C20E09398";
name = Light;
paths = (
{
closed = 1;
nodes = (
"315 0 LINE SMOOTH",
"498 0 OFFCURVE",
"585 130 OFFCURVE",
"585 321 CURVE SMOOTH",
"585 518 OFFCURVE",
"504 647 OFFCURVE",
"315 647 CURVE SMOOTH",
"39 647 LINE",
"39 588 LINE",
"63 588 LINE SMOOTH",
"89 588 OFFCURVE",
"98 578 OFFCURVE",
"98 552 CURVE SMOOTH",
"98 96 LINE SMOOTH",
"98 69 OFFCURVE",
"89 59 OFFCURVE",
"63 59 CURVE SMOOTH",
"39 59 LINE",
"39 0 LINE"
);
},
{
closed = 1;
nodes = (
"410 -127 LINE",
"410 -70 LINE",
"130 -70 LINE",
"130 -127 LINE"
);
},
{
closed = 1;
nodes = (
"178 588 LINE",
"305 588 LINE SMOOTH",
"451 588 OFFCURVE",
"508 496 OFFCURVE",
"508 321 CURVE SMOOTH",
"508 150 OFFCURVE",
"450 59 OFFCURVE",
"305 59 CURVE SMOOTH",
"178 59 LINE"
);
}
);
width = 624;
}
);
note = Dlinebelow;
rightKerningGroup = D;
unicode = 1E0E;
},
{
glyphname = E;
lastChange = "2015-08-01 11:25:24 +0000";
layers = (
{
layerId = "80E8E25D-437F-49DC-8A9F-EB5C20E09398";
name = Light;
paths = (
{
closed = 1;
nodes = (
"505 0 LINE",
"505 117 LINE",
"433 117 LINE",
"433 94 LINE SMOOTH",
"433 69 OFFCURVE",
"423 59 OFFCURVE",
"396 59 CURVE SMOOTH",
"186 59 LINE",
"186 295 LINE",
"378 295 LINE",
"378 354 LINE",
"186 354 LINE",
"186 588 LINE",
"396 588 LINE SMOOTH",
"423 588 OFFCURVE",
"433 578 OFFCURVE",
"433 553 CURVE SMOOTH",
"433 531 LINE",
"505 531 LINE",
"505 647 LINE",
"39 647 LINE",
"39 588 LINE",
"71 588 LINE SMOOTH",
"97 588 OFFCURVE",
"106 578 OFFCURVE",
"106 552 CURVE SMOOTH",
"106 96 LINE SMOOTH",
"106 69 OFFCURVE",
"97 59 OFFCURVE",
"71 59 CURVE SMOOTH",
"39 59 LINE",
"39 0 LINE"
);
}
);
width = 544;
}
);
leftKerningGroup = E;
note = E;
rightKerningGroup = E;
unicode = 0045;
},
{
glyphname = Eacute;
lastChange = "2015-08-01 11:25:24 +0000";
layers = (
{
layerId = "80E8E25D-437F-49DC-8A9F-EB5C20E09398";
name = Light;
paths = (
{
closed = 1;
nodes = (
"505 0 LINE",
"505 117 LINE",
"433 117 LINE",
"433 94 LINE SMOOTH",
"433 69 OFFCURVE",
"423 59 OFFCURVE",
"396 59 CURVE SMOOTH",
"186 59 LINE",
"186 295 LINE",
"378 295 LINE",
"378 354 LINE",
"186 354 LINE",
"186 588 LINE",
"396 588 LINE SMOOTH",
"423 588 OFFCURVE",
"433 578 OFFCURVE",
"433 553 CURVE SMOOTH",
"433 531 LINE",
"505 531 LINE",
"505 647 LINE",
"39 647 LINE",
"39 588 LINE",
"71 588 LINE SMOOTH",
"97 588 OFFCURVE",
"106 578 OFFCURVE",
"106 552 CURVE SMOOTH",
"106 96 LINE SMOOTH",
"106 69 OFFCURVE",
"97 59 OFFCURVE",
"71 59 CURVE SMOOTH",
"39 59 LINE",
"39 0 LINE"
);
},
{
closed = 1;
nodes = (
"294 701 LINE",
"409 880 LINE",
"307 880 LINE",
"224 701 LINE"
);
}
);
width = 544;
}
);
leftKerningGroup = E;
note = Eacute;
rightKerningGroup = E;
unicode = 00C9;
},
{
glyphname = Ebreve;
lastChange = "2015-08-01 11:25:25 +0000";
layers = (
{
layerId = "80E8E25D-437F-49DC-8A9F-EB5C20E09398";
name = Light;
paths = (
{
closed = 1;
nodes = (
"505 0 LINE",
"505 117 LINE",
"433 117 LINE",
"433 94 LINE SMOOTH",
"433 69 OFFCURVE",
"423 59 OFFCURVE",
"396 59 CURVE SMOOTH",
"186 59 LINE",
"186 295 LINE",
"378 295 LINE",
"378 354 LINE",
"186 354 LINE",
"186 588 LINE",
"396 588 LINE SMOOTH",
"423 588 OFFCURVE",
"433 578 OFFCURVE",
"433 553 CURVE SMOOTH",
"433 531 LINE",
"505 531 LINE",
"505 647 LINE",
"39 647 LINE",
"39 588 LINE",
"71 588 LINE SMOOTH",
"97 588 OFFCURVE",
"106 578 OFFCURVE",
"106 552 CURVE SMOOTH",
"106 96 LINE SMOOTH",
"106 69 OFFCURVE",
"97 59 OFFCURVE",
"71 59 CURVE SMOOTH",
"39 59 LINE",
"39 0 LINE"
);
},
{
closed = 1;
nodes = (
"378 701 OFFCURVE",
"439 754 OFFCURVE",
"439 838 CURVE",
"374 838 LINE",
"374 785 OFFCURVE",
"342 757 OFFCURVE",
"290 757 CURVE SMOOTH",
"239 757 OFFCURVE",
"205 785 OFFCURVE",
"205 838 CURVE",
"140 838 LINE",
"140 754 OFFCURVE",
"201 701 OFFCURVE",
"290 701 CURVE SMOOTH"
);
}
);
width = 544;
}
);
leftKerningGroup = E;
note = Ebreve;
rightKerningGroup = E;
unicode = 0114;
},
{
glyphname = Ecaron;
lastChange = "2015-08-01 11:25:24 +0000";
layers = (
{
layerId = "80E8E25D-437F-49DC-8A9F-EB5C20E09398";
name = Light;
paths = (
{
closed = 1;
nodes = (
"505 0 LINE",
"505 117 LINE",
"433 117 LINE",
"433 94 LINE SMOOTH",
"433 69 OFFCURVE",
"423 59 OFFCURVE",
"396 59 CURVE SMOOTH",
"186 59 LINE",
"186 295 LINE",
"378 295 LINE",
"378 354 LINE",
"186 354 LINE",
"186 588 LINE",
"396 588 LINE SMOOTH",
"423 588 OFFCURVE",
"433 578 OFFCURVE",
"433 553 CURVE SMOOTH",
"433 531 LINE",
"505 531 LINE",
"505 647 LINE",
"39 647 LINE",
"39 588 LINE",
"71 588 LINE SMOOTH",
"97 588 OFFCURVE",
"106 578 OFFCURVE",
"106 552 CURVE SMOOTH",
"106 96 LINE SMOOTH",
"106 69 OFFCURVE",
"97 59 OFFCURVE",
"71 59 CURVE SMOOTH",
"39 59 LINE",
"39 0 LINE"
);
},
{
closed = 1;
nodes = (
"325 702 LINE",
"445 885 LINE",
"366 885 LINE",
"282 752 LINE",
"198 885 LINE",
"119 885 LINE",
"239 702 LINE"
);
}
);
width = 544;
}
);
leftKerningGroup = E;
note = Ecaron;
rightKerningGroup = E;
unicode = 011A;
},
{
glyphname = Ecircumflex;
lastChange = "2015-08-01 11:25:24 +0000";
layers = (
{
layerId = "80E8E25D-437F-49DC-8A9F-EB5C20E09398";
name = Light;
paths = (
{
closed = 1;
nodes = (
"505 0 LINE",
"505 117 LINE",
"433 117 LINE",
"433 94 LINE SMOOTH",
"433 69 OFFCURVE",
"423 59 OFFCURVE",
"396 59 CURVE SMOOTH",
"186 59 LINE",
"186 295 LINE",
"378 295 LINE",
"378 354 LINE",
"186 354 LINE",
"186 588 LINE",
"396 588 LINE SMOOTH",
"423 588 OFFCURVE",
"433 578 OFFCURVE",
"433 553 CURVE SMOOTH",
"433 531 LINE",
"505 531 LINE",
"505 647 LINE",
"39 647 LINE",
"39 588 LINE",
"71 588 LINE SMOOTH",
"97 588 OFFCURVE",
"106 578 OFFCURVE",
"106 552 CURVE SMOOTH",
"106 96 LINE SMOOTH",
"106 69 OFFCURVE",
"97 59 OFFCURVE",
"71 59 CURVE SMOOTH",
"39 59 LINE",
"39 0 LINE"
);
},
{
closed = 1;
nodes = (
"186 702 LINE",
"270 834 LINE",
"354 702 LINE",
"433 702 LINE",
"313 885 LINE",
"227 885 LINE",
"107 702 LINE"
);
}
);
width = 544;
}
);
leftKerningGroup = E;
note = Ecircumflex;
rightKerningGroup = E;
unicode = 00CA;
},
{
glyphname = Ecircumflexacute;
lastChange = "2015-11-23 15:41:53 +0000";
layers = (
{
layerId = "80E8E25D-437F-49DC-8A9F-EB5C20E09398";
name = Light;
paths = (
{
closed = 1;
nodes = (
"505 0 LINE",
"505 117 LINE",
"433 117 LINE",
"433 94 LINE SMOOTH",
"433 69 OFFCURVE",
"423 59 OFFCURVE",
"396 59 CURVE SMOOTH",
"186 59 LINE",
"186 295 LINE",
"378 295 LINE",
"378 354 LINE",
"186 354 LINE",
"186 588 LINE",
"396 588 LINE SMOOTH",
"423 588 OFFCURVE",
"433 578 OFFCURVE",
"433 553 CURVE SMOOTH",
"433 531 LINE",
"505 531 LINE",
"505 647 LINE",
"39 647 LINE",
"39 588 LINE",
"71 588 LINE SMOOTH",
"97 588 OFFCURVE",
"106 578 OFFCURVE",
"106 552 CURVE SMOOTH",
"106 96 LINE SMOOTH",
"106 69 OFFCURVE",
"97 59 OFFCURVE",
"71 59 CURVE SMOOTH",
"39 59 LINE",
"39 0 LINE"
);
},
{
closed = 1;
nodes = (
"208 702 LINE",
"278 794 LINE",
"347 702 LINE",
"424 702 LINE",
"320 833 LINE",
"236 833 LINE",
"132 702 LINE"
);
},
{
closed = 1;
nodes = (
"435 809 LINE",
"531 930 LINE",
"435 930 LINE",
"372 809 LINE"
);
}
);
width = 544;
}
);
leftKerningGroup = E;
note = Ecircumflexacute;
rightKerningGroup = E;
unicode = 1EBE;
},
{
glyphname = Ecircumflexdotbelow;
lastChange = "2015-08-01 11:25:24 +0000";
layers = (
{
layerId = "80E8E25D-437F-49DC-8A9F-EB5C20E09398";
name = Light;
paths = (
{
closed = 1;
nodes = (
"505 0 LINE",
"505 117 LINE",
"433 117 LINE",
"433 94 LINE SMOOTH",
"433 69 OFFCURVE",
"423 59 OFFCURVE",
"396 59 CURVE SMOOTH",
"186 59 LINE",
"186 295 LINE",
"378 295 LINE",
"378 354 LINE",
"186 354 LINE",
"186 588 LINE",
"396 588 LINE SMOOTH",
"423 588 OFFCURVE",
"433 578 OFFCURVE",
"433 553 CURVE SMOOTH",
"433 531 LINE",
"505 531 LINE",
"505 647 LINE",
"39 647 LINE",
"39 588 LINE",
"71 588 LINE SMOOTH",
"97 588 OFFCURVE",
"106 578 OFFCURVE",
"106 552 CURVE SMOOTH",
"106 96 LINE SMOOTH",
"106 69 OFFCURVE",
"97 59 OFFCURVE",
"71 59 CURVE SMOOTH",
"39 59 LINE",
"39 0 LINE"
);
},
{
closed = 1;
nodes = (
"317 -145 LINE",
"317 -63 LINE",
"237 -63 LINE",
"237 -145 LINE"
);
},
{
closed = 1;
nodes = (
"192 702 LINE",
"276 834 LINE",
"360 702 LINE",
"439 702 LINE",
"319 885 LINE",
"233 885 LINE",
"113 702 LINE"
);
}
);
width = 544;
}
);
leftKerningGroup = E;
note = Ecircumflexdotbelow;
rightKerningGroup = E;
unicode = 1EC6;
},
{
glyphname = Ecircumflexgrave;
lastChange = "2015-11-23 15:58:41 +0000";
layers = (
{
layerId = "80E8E25D-437F-49DC-8A9F-EB5C20E09398";
name = Light;
paths = (
{
closed = 1;
nodes = (
"511 0 LINE",
"511 117 LINE",
"439 117 LINE",
"439 94 LINE SMOOTH",
"439 69 OFFCURVE",
"429 59 OFFCURVE",
"402 59 CURVE SMOOTH",
"192 59 LINE",
"192 295 LINE",
"384 295 LINE",
"384 354 LINE",
"192 354 LINE",
"192 588 LINE",
"402 588 LINE SMOOTH",
"429 588 OFFCURVE",
"439 578 OFFCURVE",
"439 553 CURVE SMOOTH",
"439 531 LINE",
"511 531 LINE",
"511 647 LINE",
"45 647 LINE",
"45 588 LINE",
"77 588 LINE SMOOTH",
"103 588 OFFCURVE",
"112 578 OFFCURVE",
"112 552 CURVE SMOOTH",
"112 96 LINE SMOOTH",
"112 69 OFFCURVE",
"103 59 OFFCURVE",
"77 59 CURVE SMOOTH",
"45 59 LINE",
"45 0 LINE"
);
},
{
closed = 1;
nodes = (
"198 809 LINE",
"135 930 LINE",
"39 930 LINE",
"135 809 LINE"
);
},
{
closed = 1;
nodes = (
"223 702 LINE",
"293 794 LINE",
"363 702 LINE",
"438 702 LINE",
"335 833 LINE",
"250 833 LINE",
"147 702 LINE"
);
}
);
width = 550;
}
);
leftKerningGroup = E;
note = Ecircumflexgrave;
rightKerningGroup = E;
unicode = 1EC0;
},
{
glyphname = Ecircumflexhookabove;
lastChange = "2015-08-01 11:25:24 +0000";
layers = (
{
layerId = "80E8E25D-437F-49DC-8A9F-EB5C20E09398";
name = Light;
paths = (
{
closed = 1;
nodes = (
"505 0 LINE",
"505 117 LINE",
"433 117 LINE",
"433 94 LINE SMOOTH",
"433 69 OFFCURVE",
"423 59 OFFCURVE",
"396 59 CURVE SMOOTH",
"186 59 LINE",
"186 295 LINE",
"378 295 LINE",
"378 354 LINE",
"186 354 LINE",
"186 588 LINE",
"396 588 LINE SMOOTH",
"423 588 OFFCURVE",
"433 578 OFFCURVE",
"433 553 CURVE SMOOTH",
"433 531 LINE",
"505 531 LINE",
"505 647 LINE",
"39 647 LINE",
"39 588 LINE",
"71 588 LINE SMOOTH",
"97 588 OFFCURVE",
"106 578 OFFCURVE",
"106 552 CURVE SMOOTH",
"106 96 LINE SMOOTH",
"106 69 OFFCURVE",
"97 59 OFFCURVE",
"71 59 CURVE SMOOTH",
"39 59 LINE",
"39 0 LINE"
);
},
{
closed = 1;
nodes = (
"200 702 LINE",
"269 794 LINE",
"339 702 LINE",
"415 702 LINE",
"312 833 LINE",
"227 833 LINE",
"124 702 LINE"
);
},
{
closed = 1;
nodes = (
"400 822 LINE",
"400 845 LINE",
"446 852 OFFCURVE",
"465 872 OFFCURVE",
"465 911 CURVE SMOOTH",
"465 955 OFFCURVE",
"440 982 OFFCURVE",
"384 982 CURVE SMOOTH",
"362 982 OFFCURVE",
"339 978 OFFCURVE",
"326 973 CURVE",
"326 927 LINE",
"338 931 OFFCURVE",
"354 935 OFFCURVE",
"370 935 CURVE SMOOTH",
"392 935 OFFCURVE",
"407 927 OFFCURVE",
"407 907 CURVE SMOOTH",
"407 879 OFFCURVE",
"394 871 OFFCURVE",
"343 871 CURVE",
"343 822 LINE"
);
}
);
width = 544;
}
);
leftKerningGroup = E;
note = Ecircumflexhookabove;
rightKerningGroup = E;
unicode = 1EC2;
},
{
glyphname = Ecircumflextilde;
lastChange = "2015-08-01 11:25:25 +0000";
layers = (
{
layerId = "80E8E25D-437F-49DC-8A9F-EB5C20E09398";
name = Light;
paths = (
{
closed = 1;
nodes = (
"505 0 LINE",
"505 117 LINE",
"433 117 LINE",
"433 94 LINE SMOOTH",
"433 69 OFFCURVE",
"423 59 OFFCURVE",
"396 59 CURVE SMOOTH",
"186 59 LINE",
"186 295 LINE",
"378 295 LINE",
"378 354 LINE",
"186 354 LINE",
"186 588 LINE",
"396 588 LINE SMOOTH",
"423 588 OFFCURVE",
"433 578 OFFCURVE",
"433 553 CURVE SMOOTH",
"433 531 LINE",
"505 531 LINE",
"505 647 LINE",
"39 647 LINE",
"39 588 LINE",
"71 588 LINE SMOOTH",
"97 588 OFFCURVE",
"106 578 OFFCURVE",
"106 552 CURVE SMOOTH",
"106 96 LINE SMOOTH",
"106 69 OFFCURVE",
"97 59 OFFCURVE",
"71 59 CURVE SMOOTH",
"39 59 LINE",
"39 0 LINE"
);
},
{
closed = 1;
nodes = (
"220 702 LINE",
"289 794 LINE",
"359 702 LINE",
"435 702 LINE",
"332 833 LINE",
"247 833 LINE",
"144 702 LINE"
);
},
{
closed = 1;
nodes = (
"409 853 OFFCURVE",
"436 878 OFFCURVE",
"436 950 CURVE",
"383 950 LINE",
"383 921 OFFCURVE",
"376 905 OFFCURVE",
"352 905 CURVE SMOOTH",
"315 905 OFFCURVE",
"276 951 OFFCURVE",
"224 951 CURVE SMOOTH",
"172 951 OFFCURVE",
"144 927 OFFCURVE",
"144 854 CURVE",
"197 854 LINE",
"197 883 OFFCURVE",
"204 899 OFFCURVE",
"227 899 CURVE SMOOTH",
"265 899 OFFCURVE",
"306 853 OFFCURVE",
"357 853 CURVE SMOOTH"
);
}
);
width = 544;
}
);
leftKerningGroup = E;
note = Ecircumflextilde;
rightKerningGroup = E;
unicode = 1EC4;
},
{
glyphname = Edieresis;
lastChange = "2015-08-01 11:25:25 +0000";
layers = (
{
layerId = "80E8E25D-437F-49DC-8A9F-EB5C20E09398";
name = Light;
paths = (
{
closed = 1;
nodes = (
"505 0 LINE",
"505 117 LINE",
"433 117 LINE",
"433 94 LINE SMOOTH",
"433 69 OFFCURVE",
"423 59 OFFCURVE",
"396 59 CURVE SMOOTH",
"186 59 LINE",
"186 295 LINE",
"378 295 LINE",
"378 354 LINE",
"186 354 LINE",
"186 588 LINE",
"396 588 LINE SMOOTH",
"423 588 OFFCURVE",
"433 578 OFFCURVE",
"433 553 CURVE SMOOTH",
"433 531 LINE",
"505 531 LINE",
"505 647 LINE",
"39 647 LINE",
"39 588 LINE",
"71 588 LINE SMOOTH",
"97 588 OFFCURVE",
"106 578 OFFCURVE",
"106 552 CURVE SMOOTH",
"106 96 LINE SMOOTH",
"106 69 OFFCURVE",
"97 59 OFFCURVE",
"71 59 CURVE SMOOTH",
"39 59 LINE",
"39 0 LINE"
);
},
{
closed = 1;
nodes = (
"211 721 LINE",
"211 803 LINE",
"131 803 LINE",
"131 721 LINE"
);
},
{
closed = 1;
nodes = (
"412 721 LINE",
"412 803 LINE",
"332 803 LINE",
"332 721 LINE"
);
}
);
width = 544;
}
);
leftKerningGroup = E;
note = Edieresis;
rightKerningGroup = E;
unicode = 00CB;
},
{
glyphname = Edotaccent;
lastChange = "2015-08-01 11:25:26 +0000";
layers = (
{
layerId = "80E8E25D-437F-49DC-8A9F-EB5C20E09398";
name = Light;
paths = (
{
closed = 1;
nodes = (
"505 0 LINE",
"505 117 LINE",
"433 117 LINE",
"433 94 LINE SMOOTH",
"433 69 OFFCURVE",
"423 59 OFFCURVE",
"396 59 CURVE SMOOTH",
"186 59 LINE",
"186 295 LINE",
"378 295 LINE",
"378 354 LINE",
"186 354 LINE",
"186 588 LINE",
"396 588 LINE SMOOTH",
"423 588 OFFCURVE",
"433 578 OFFCURVE",
"433 553 CURVE SMOOTH",
"433 531 LINE",
"505 531 LINE",
"505 647 LINE",
"39 647 LINE",
"39 588 LINE",
"71 588 LINE SMOOTH",
"97 588 OFFCURVE",
"106 578 OFFCURVE",
"106 552 CURVE SMOOTH",
"106 96 LINE SMOOTH",
"106 69 OFFCURVE",
"97 59 OFFCURVE",
"71 59 CURVE SMOOTH",
"39 59 LINE",
"39 0 LINE"
);
},
{
closed = 1;
nodes = (
"330 721 LINE",
"330 803 LINE",
"250 803 LINE",
"250 721 LINE"
);
}
);
width = 544;
}
);
leftKerningGroup = E;
note = Edotaccent;
rightKerningGroup = E;
unicode = 0116;
},
{
glyphname = Edotbelow;
lastChange = "2015-08-01 11:25:26 +0000";
layers = (
{
layerId = "80E8E25D-437F-49DC-8A9F-EB5C20E09398";
name = Light;
paths = (
{
closed = 1;
nodes = (
"505 0 LINE",
"505 117 LINE",
"433 117 LINE",
"433 94 LINE SMOOTH",
"433 69 OFFCURVE",
"423 59 OFFCURVE",
"396 59 CURVE SMOOTH",
"186 59 LINE",
"186 295 LINE",
"378 295 LINE",
"378 354 LINE",
"186 354 LINE",
"186 588 LINE",
"396 588 LINE SMOOTH",
"423 588 OFFCURVE",
"433 578 OFFCURVE",
"433 553 CURVE SMOOTH",
"433 531 LINE",
"505 531 LINE",
"505 647 LINE",
"39 647 LINE",
"39 588 LINE",
"71 588 LINE SMOOTH",
"97 588 OFFCURVE",
"106 578 OFFCURVE",
"106 552 CURVE SMOOTH",
"106 96 LINE SMOOTH",
"106 69 OFFCURVE",
"97 59 OFFCURVE",
"71 59 CURVE SMOOTH",
"39 59 LINE",
"39 0 LINE"
);
},
{
closed = 1;
nodes = (
"318 -145 LINE",
"318 -63 LINE",
"238 -63 LINE",
"238 -145 LINE"
);
}
);
width = 544;
}
);
leftKerningGroup = E;
note = Edotbelow;
rightKerningGroup = E;
unicode = 1EB8;
},
{
glyphname = Egrave;
lastChange = "2015-08-01 11:25:26 +0000";
layers = (
{
layerId = "80E8E25D-437F-49DC-8A9F-EB5C20E09398";
name = Light;
paths = (
{
closed = 1;
nodes = (
"505 0 LINE",
"505 117 LINE",
"433 117 LINE",
"433 94 LINE SMOOTH",
"433 69 OFFCURVE",
"423 59 OFFCURVE",
"396 59 CURVE SMOOTH",
"186 59 LINE",
"186 295 LINE",
"378 295 LINE",
"378 354 LINE",
"186 354 LINE",
"186 588 LINE",
"396 588 LINE SMOOTH",
"423 588 OFFCURVE",
"433 578 OFFCURVE",
"433 553 CURVE SMOOTH",
"433 531 LINE",
"505 531 LINE",
"505 647 LINE",
"39 647 LINE",
"39 588 LINE",
"71 588 LINE SMOOTH",
"97 588 OFFCURVE",
"106 578 OFFCURVE",
"106 552 CURVE SMOOTH",
"106 96 LINE SMOOTH",
"106 69 OFFCURVE",
"97 59 OFFCURVE",
"71 59 CURVE SMOOTH",
"39 59 LINE",
"39 0 LINE"
);
},
{
closed = 1;
nodes = (
"326 701 LINE",
"243 880 LINE",
"141 880 LINE",
"256 701 LINE"
);
}
);
width = 544;
}
);
leftKerningGroup = E;
note = Egrave;
rightKerningGroup = E;
unicode = 00C8;
},
{
glyphname = Ehookabove;
lastChange = "2015-08-01 11:25:26 +0000";
layers = (
{
layerId = "80E8E25D-437F-49DC-8A9F-EB5C20E09398";
name = Light;
paths = (
{
closed = 1;
nodes = (
"505 0 LINE",
"505 117 LINE",
"433 117 LINE",
"433 94 LINE SMOOTH",
"433 69 OFFCURVE",
"423 59 OFFCURVE",
"396 59 CURVE SMOOTH",
"186 59 LINE",
"186 295 LINE",
"378 295 LINE",
"378 354 LINE",
"186 354 LINE",
"186 588 LINE",
"396 588 LINE SMOOTH",
"423 588 OFFCURVE",
"433 578 OFFCURVE",
"433 553 CURVE SMOOTH",
"433 531 LINE",
"505 531 LINE",
"505 647 LINE",
"39 647 LINE",
"39 588 LINE",
"71 588 LINE SMOOTH",
"97 588 OFFCURVE",
"106 578 OFFCURVE",
"106 552 CURVE SMOOTH",
"106 96 LINE SMOOTH",
"106 69 OFFCURVE",
"97 59 OFFCURVE",
"71 59 CURVE SMOOTH",
"39 59 LINE",
"39 0 LINE"
);
},
{
closed = 1;
nodes = (
"303 702 LINE",
"303 741 LINE",
"347 752 OFFCURVE",
"371 778 OFFCURVE",
"371 820 CURVE SMOOTH",
"371 881 OFFCURVE",
"329 903 OFFCURVE",
"263 903 CURVE SMOOTH",
"238 903 OFFCURVE",
"214 898 OFFCURVE",
"199 893 CURVE",
"199 843 LINE",
"212 847 OFFCURVE",
"230 851 OFFCURVE",
"248 851 CURVE SMOOTH",
"288 851 OFFCURVE",
"305 843 OFFCURVE",
"305 814 CURVE SMOOTH",
"305 786 OFFCURVE",
"291 767 OFFCURVE",
"238 767 CURVE",
"238 702 LINE"
);
}
);
width = 544;
}
);
leftKerningGroup = E;
note = Ehookabove;
rightKerningGroup = E;
unicode = 1EBA;
},
{
glyphname = Emacron;
lastChange = "2015-08-01 11:25:25 +0000";
layers = (
{
layerId = "80E8E25D-437F-49DC-8A9F-EB5C20E09398";
name = Light;
paths = (
{
closed = 1;
nodes = (
"505 0 LINE",
"505 117 LINE",
"433 117 LINE",
"433 94 LINE SMOOTH",
"433 69 OFFCURVE",
"423 59 OFFCURVE",
"396 59 CURVE SMOOTH",
"186 59 LINE",
"186 295 LINE",
"378 295 LINE",
"378 354 LINE",
"186 354 LINE",
"186 588 LINE",
"396 588 LINE SMOOTH",
"423 588 OFFCURVE",
"433 578 OFFCURVE",
"433 553 CURVE SMOOTH",
"433 531 LINE",
"505 531 LINE",
"505 647 LINE",
"39 647 LINE",
"39 588 LINE",
"71 588 LINE SMOOTH",
"97 588 OFFCURVE",
"106 578 OFFCURVE",
"106 552 CURVE SMOOTH",
"106 96 LINE SMOOTH",
"106 69 OFFCURVE",
"97 59 OFFCURVE",
"71 59 CURVE SMOOTH",
"39 59 LINE",
"39 0 LINE"
);
},
{
closed = 1;
nodes = (
"417 722 LINE",
"417 779 LINE",
"137 779 LINE",
"137 722 LINE"
);
}
);
width = 544;
}
);
leftKerningGroup = E;
note = Emacron;
rightKerningGroup = E;
unicode = 0112;
},
{
glyphname = Eogonek;
lastChange = "2015-08-01 11:25:24 +0000";
layers = (
{
layerId = "80E8E25D-437F-49DC-8A9F-EB5C20E09398";
name = Light;
paths = (
{
closed = 1;
nodes = (
"505 0 LINE",
"505 117 LINE",
"433 117 LINE",
"433 94 LINE SMOOTH",
"433 69 OFFCURVE",
"423 59 OFFCURVE",
"396 59 CURVE SMOOTH",
"186 59 LINE",
"186 295 LINE",
"378 295 LINE",
"378 354 LINE",
"186 354 LINE",
"186 588 LINE",
"396 588 LINE SMOOTH",
"423 588 OFFCURVE",
"433 578 OFFCURVE",
"433 553 CURVE SMOOTH",
"433 531 LINE",
"505 531 LINE",
"505 647 LINE",
"39 647 LINE",
"39 588 LINE",
"71 588 LINE SMOOTH",
"97 588 OFFCURVE",
"106 578 OFFCURVE",
"106 552 CURVE SMOOTH",
"106 96 LINE SMOOTH",
"106 69 OFFCURVE",
"97 59 OFFCURVE",
"71 59 CURVE SMOOTH",
"39 59 LINE",
"39 0 LINE"
);
},
{
closed = 1;
nodes = (
"471 -205 OFFCURVE",
"491 -200 OFFCURVE",
"505 -191 CURVE",
"505 -142 LINE",
"490 -147 OFFCURVE",
"474 -149 OFFCURVE",
"460 -149 CURVE SMOOTH",
"433 -149 OFFCURVE",
"420 -134 OFFCURVE",
"420 -99 CURVE SMOOTH",
"420 -60 OFFCURVE",
"437 -29 OFFCURVE",
"470 0 CURVE",
"404 0 LINE",
"373 -29 OFFCURVE",
"354 -66 OFFCURVE",
"354 -109 CURVE SMOOTH",
"354 -175 OFFCURVE",
"393 -205 OFFCURVE",
"448 -205 CURVE SMOOTH"
);
}
);
width = 544;
}
);
leftKerningGroup = E;
note = Eogonek;
rightKerningGroup = E;
unicode = 0118;
},
{
glyphname = Etilde;
lastChange = "2015-08-01 11:25:24 +0000";
layers = (
{
layerId = "80E8E25D-437F-49DC-8A9F-EB5C20E09398";
name = Light;
paths = (
{
closed = 1;
nodes = (
"505 0 LINE",
"505 117 LINE",
"433 117 LINE",
"433 94 LINE SMOOTH",
"433 69 OFFCURVE",
"423 59 OFFCURVE",
"396 59 CURVE SMOOTH",
"186 59 LINE",
"186 295 LINE",
"378 295 LINE",
"378 354 LINE",
"186 354 LINE",
"186 588 LINE",
"396 588 LINE SMOOTH",
"423 588 OFFCURVE",
"433 578 OFFCURVE",
"433 553 CURVE SMOOTH",
"433 531 LINE",
"505 531 LINE",
"505 647 LINE",
"39 647 LINE",
"39 588 LINE",
"71 588 LINE SMOOTH",
"97 588 OFFCURVE",
"106 578 OFFCURVE",
"106 552 CURVE SMOOTH",
"106 96 LINE SMOOTH",
"106 69 OFFCURVE",
"97 59 OFFCURVE",
"71 59 CURVE SMOOTH",
"39 59 LINE",
"39 0 LINE"
);
},
{
closed = 1;
nodes = (
"157 702 LINE",
"157 747 OFFCURVE",
"173 758 OFFCURVE",
"202 758 CURVE SMOOTH",
"258 758 OFFCURVE",
"297 702 OFFCURVE",
"365 702 CURVE SMOOTH",
"431 702 OFFCURVE",
"465 738 OFFCURVE",
"465 823 CURVE",
"402 823 LINE",
"402 778 OFFCURVE",
"387 766 OFFCURVE",
"358 766 CURVE SMOOTH",
"307 766 OFFCURVE",
"266 823 OFFCURVE",
"195 823 CURVE SMOOTH",
"129 823 OFFCURVE",
"94 786 OFFCURVE",
"94 702 CURVE"
);
}
);
width = 544;
}
);
leftKerningGroup = E;
note = Etilde;
rightKerningGroup = E;
unicode = 1EBC;
},
{
glyphname = F;
lastChange = "2015-08-01 11:25:16 +0000";
layers = (
{
layerId = "80E8E25D-437F-49DC-8A9F-EB5C20E09398";
name = Light;
paths = (
{
closed = 1;
nodes = (
"253 0 LINE",
"253 59 LINE",
"221 59 LINE SMOOTH",
"195 59 OFFCURVE",
"186 69 OFFCURVE",
"186 95 CURVE SMOOTH",
"186 295 LINE",
"378 295 LINE",
"378 354 LINE",
"186 354 LINE",
"186 588 LINE",
"396 588 LINE SMOOTH",
"423 588 OFFCURVE",
"433 578 OFFCURVE",
"433 553 CURVE SMOOTH",
"433 531 LINE",
"505 531 LINE",
"505 647 LINE",
"39 647 LINE",
"39 588 LINE",
"71 588 LINE SMOOTH",
"97 588 OFFCURVE",
"106 578 OFFCURVE",
"106 552 CURVE SMOOTH",
"106 96 LINE SMOOTH",
"106 69 OFFCURVE",
"97 59 OFFCURVE",
"71 59 CURVE SMOOTH",
"39 59 LINE",
"39 0 LINE"
);
}
);
width = 544;
}
);
note = F;
unicode = 0046;
},
{
glyphname = G;
lastChange = "2015-08-01 11:25:24 +0000";
layers = (
{
layerId = "80E8E25D-437F-49DC-8A9F-EB5C20E09398";
name = Light;
paths = (
{
closed = 1;
nodes = (
"438 -15 OFFCURVE",
"508 1 OFFCURVE",
"572 44 CURVE",
"572 333 LINE",
"347 333 LINE",
"347 273 LINE",
"493 273 LINE",
"493 70 LINE",
"451 52 OFFCURVE",
"408 45 OFFCURVE",
"353 45 CURVE SMOOTH",
"205 45 OFFCURVE",
"116 148 OFFCURVE",
"116 320 CURVE SMOOTH",
"116 496 OFFCURVE",
"198 602 OFFCURVE",
"345 602 CURVE SMOOTH",
"399 602 OFFCURVE",
"440 594 OFFCURVE",
"472 577 CURVE",
"472 518 LINE",
"552 518 LINE",
"552 608 LINE",
"502 644 OFFCURVE",
"436 662 OFFCURVE",
"345 662 CURVE SMOOTH",
"132 662 OFFCURVE",
"39 514 OFFCURVE",
"39 320 CURVE SMOOTH",
"39 126 OFFCURVE",
"145 -15 OFFCURVE",
"351 -15 CURVE SMOOTH"
);
}
);
width = 611;
}
);
leftKerningGroup = C;
note = G;
unicode = 0047;
},
{
glyphname = Gbreve;
lastChange = "2015-08-01 11:25:25 +0000";
layers = (
{
layerId = "80E8E25D-437F-49DC-8A9F-EB5C20E09398";
name = Light;
paths = (
{
closed = 1;
nodes = (
"438 -15 OFFCURVE",
"508 1 OFFCURVE",
"572 44 CURVE",
"572 333 LINE",
"347 333 LINE",
"347 273 LINE",
"493 273 LINE",
"493 70 LINE",
"451 52 OFFCURVE",
"408 45 OFFCURVE",
"353 45 CURVE SMOOTH",
"205 45 OFFCURVE",
"116 148 OFFCURVE",
"116 320 CURVE SMOOTH",
"116 496 OFFCURVE",
"198 602 OFFCURVE",
"345 602 CURVE SMOOTH",
"399 602 OFFCURVE",
"440 594 OFFCURVE",
"472 577 CURVE",
"472 518 LINE",
"552 518 LINE",
"552 608 LINE",
"502 644 OFFCURVE",
"436 662 OFFCURVE",
"345 662 CURVE SMOOTH",
"132 662 OFFCURVE",
"39 514 OFFCURVE",
"39 320 CURVE SMOOTH",
"39 126 OFFCURVE",
"145 -15 OFFCURVE",
"351 -15 CURVE SMOOTH"
);
},
{
closed = 1;
nodes = (
"436 701 OFFCURVE",
"497 754 OFFCURVE",
"497 838 CURVE",
"432 838 LINE",
"432 785 OFFCURVE",
"400 757 OFFCURVE",
"348 757 CURVE SMOOTH",
"297 757 OFFCURVE",
"263 785 OFFCURVE",
"263 838 CURVE",
"198 838 LINE",
"198 754 OFFCURVE",
"259 701 OFFCURVE",
"348 701 CURVE SMOOTH"
);
}
);
width = 611;
}
);
leftKerningGroup = C;
note = Gbreve;
unicode = 011E;
},
{
glyphname = Gcaron;
lastChange = "2015-08-01 11:25:24 +0000";
layers = (
{
layerId = "80E8E25D-437F-49DC-8A9F-EB5C20E09398";
name = Light;
paths = (
{
closed = 1;
nodes = (
"438 -15 OFFCURVE",
"508 1 OFFCURVE",
"572 44 CURVE",
"572 333 LINE",
"347 333 LINE",
"347 273 LINE",
"493 273 LINE",
"493 70 LINE",
"451 52 OFFCURVE",
"408 45 OFFCURVE",
"353 45 CURVE SMOOTH",
"205 45 OFFCURVE",
"116 148 OFFCURVE",
"116 320 CURVE SMOOTH",
"116 496 OFFCURVE",
"198 602 OFFCURVE",
"345 602 CURVE SMOOTH",
"399 602 OFFCURVE",
"440 594 OFFCURVE",
"472 577 CURVE",
"472 518 LINE",
"552 518 LINE",
"552 608 LINE",
"502 644 OFFCURVE",
"436 662 OFFCURVE",
"345 662 CURVE SMOOTH",
"132 662 OFFCURVE",
"39 514 OFFCURVE",
"39 320 CURVE SMOOTH",
"39 126 OFFCURVE",
"145 -15 OFFCURVE",
"351 -15 CURVE SMOOTH"
);
},
{
closed = 1;
nodes = (
"392 702 LINE",
"512 885 LINE",
"433 885 LINE",
"349 752 LINE",
"265 885 LINE",
"186 885 LINE",
"306 702 LINE"
);
}
);
width = 611;
}
);
leftKerningGroup = C;
note = Gcaron;
unicode = 01E6;
},
{
glyphname = Gcircumflex;
lastChange = "2015-08-01 11:25:25 +0000";
layers = (
{
layerId = "80E8E25D-437F-49DC-8A9F-EB5C20E09398";
name = Light;
paths = (
{
closed = 1;
nodes = (
"438 -15 OFFCURVE",
"508 1 OFFCURVE",
"572 44 CURVE",
"572 333 LINE",
"347 333 LINE",
"347 273 LINE",
"493 273 LINE",
"493 70 LINE",
"451 52 OFFCURVE",
"408 45 OFFCURVE",
"353 45 CURVE SMOOTH",
"205 45 OFFCURVE",
"116 148 OFFCURVE",
"116 320 CURVE SMOOTH",
"116 496 OFFCURVE",
"198 602 OFFCURVE",
"345 602 CURVE SMOOTH",
"399 602 OFFCURVE",
"440 594 OFFCURVE",
"472 577 CURVE",
"472 518 LINE",
"552 518 LINE",
"552 608 LINE",
"502 644 OFFCURVE",
"436 662 OFFCURVE",
"345 662 CURVE SMOOTH",
"132 662 OFFCURVE",
"39 514 OFFCURVE",
"39 320 CURVE SMOOTH",
"39 126 OFFCURVE",
"145 -15 OFFCURVE",
"351 -15 CURVE SMOOTH"
);
},
{
closed = 1;
nodes = (
"263 702 LINE",
"347 834 LINE",
"431 702 LINE",
"510 702 LINE",
"390 885 LINE",
"304 885 LINE",
"184 702 LINE"
);
}
);
width = 611;
}
);
leftKerningGroup = C;
note = Gcircumflex;
unicode = 011C;
},
{
glyphname = Gcommaaccent;
lastChange = "2015-08-01 11:25:26 +0000";
layers = (
{
layerId = "80E8E25D-437F-49DC-8A9F-EB5C20E09398";
name = Light;
paths = (
{
closed = 1;
nodes = (
"438 -15 OFFCURVE",
"508 1 OFFCURVE",
"572 44 CURVE",
"572 333 LINE",
"347 333 LINE",
"347 273 LINE",
"493 273 LINE",
"493 70 LINE",
"451 52 OFFCURVE",
"408 45 OFFCURVE",
"353 45 CURVE SMOOTH",
"205 45 OFFCURVE",
"116 148 OFFCURVE",
"116 320 CURVE SMOOTH",
"116 496 OFFCURVE",
"198 602 OFFCURVE",
"345 602 CURVE SMOOTH",
"399 602 OFFCURVE",
"440 594 OFFCURVE",
"472 577 CURVE",
"472 518 LINE",
"552 518 LINE",
"552 608 LINE",
"502 644 OFFCURVE",
"436 662 OFFCURVE",
"345 662 CURVE SMOOTH",
"132 662 OFFCURVE",
"39 514 OFFCURVE",
"39 320 CURVE SMOOTH",
"39 126 OFFCURVE",
"145 -15 OFFCURVE",
"351 -15 CURVE SMOOTH"
);
},
{
closed = 1;
nodes = (
"357 -244 LINE",
"416 -49 LINE",
"324 -49 LINE",
"295 -244 LINE"
);
}
);
width = 611;
}
);
leftKerningGroup = C;
note = Gcommaaccent;
unicode = 0122;
},
{
glyphname = Gdotaccent;
lastChange = "2015-08-01 11:25:24 +0000";
layers = (
{
layerId = "80E8E25D-437F-49DC-8A9F-EB5C20E09398";
name = Light;
paths = (
{
closed = 1;
nodes = (
"438 -15 OFFCURVE",
"508 1 OFFCURVE",
"572 44 CURVE",
"572 333 LINE",
"347 333 LINE",
"347 273 LINE",
"493 273 LINE",
"493 70 LINE",
"451 52 OFFCURVE",
"408 45 OFFCURVE",
"353 45 CURVE SMOOTH",
"205 45 OFFCURVE",
"116 148 OFFCURVE",
"116 320 CURVE SMOOTH",
"116 496 OFFCURVE",
"198 602 OFFCURVE",
"345 602 CURVE SMOOTH",
"399 602 OFFCURVE",
"440 594 OFFCURVE",
"472 577 CURVE",
"472 518 LINE",
"552 518 LINE",
"552 608 LINE",
"502 644 OFFCURVE",
"436 662 OFFCURVE",
"345 662 CURVE SMOOTH",
"132 662 OFFCURVE",
"39 514 OFFCURVE",
"39 320 CURVE SMOOTH",
"39 126 OFFCURVE",
"145 -15 OFFCURVE",
"351 -15 CURVE SMOOTH"
);
},
{
closed = 1;
nodes = (
"394 705 LINE",
"394 787 LINE",
"314 787 LINE",
"314 705 LINE"
);
}
);
width = 611;
}
);
leftKerningGroup = C;
note = Gdotaccent;
unicode = 0120;
},
{
glyphname = Gmacron;
lastChange = "2015-08-01 11:25:26 +0000";
layers = (
{
layerId = "80E8E25D-437F-49DC-8A9F-EB5C20E09398";
name = Light;
paths = (
{
closed = 1;
nodes = (
"438 -15 OFFCURVE",
"508 1 OFFCURVE",
"572 44 CURVE",
"572 333 LINE",
"347 333 LINE",
"347 273 LINE",
"493 273 LINE",
"493 70 LINE",
"451 52 OFFCURVE",
"408 45 OFFCURVE",
"353 45 CURVE SMOOTH",
"205 45 OFFCURVE",
"116 148 OFFCURVE",
"116 320 CURVE SMOOTH",
"116 496 OFFCURVE",
"198 602 OFFCURVE",
"345 602 CURVE SMOOTH",
"399 602 OFFCURVE",
"440 594 OFFCURVE",
"472 577 CURVE",
"472 518 LINE",
"552 518 LINE",
"552 608 LINE",
"502 644 OFFCURVE",
"436 662 OFFCURVE",
"345 662 CURVE SMOOTH",
"132 662 OFFCURVE",
"39 514 OFFCURVE",
"39 320 CURVE SMOOTH",
"39 126 OFFCURVE",
"145 -15 OFFCURVE",
"351 -15 CURVE SMOOTH"
);
},
{
closed = 1;
nodes = (
"477 722 LINE",
"477 779 LINE",
"197 779 LINE",
"197 722 LINE"
);
}
);
width = 611;
}
);
leftKerningGroup = C;
note = Gmacron;
unicode = 1E20;
},
{
glyphname = H;
lastChange = "2015-08-01 11:25:16 +0000";
layers = (
{
layerId = "80E8E25D-437F-49DC-8A9F-EB5C20E09398";
name = Light;
paths = (
{
closed = 1;
nodes = (
"251 0 LINE",
"251 59 LINE",
"221 59 LINE SMOOTH",
"195 59 OFFCURVE",
"186 69 OFFCURVE",
"186 96 CURVE SMOOTH",
"186 295 LINE",
"493 295 LINE",
"493 96 LINE SMOOTH",
"493 69 OFFCURVE",
"483 59 OFFCURVE",
"458 59 CURVE SMOOTH",
"427 59 LINE",
"427 0 LINE",
"640 0 LINE",
"640 59 LINE",
"609 59 LINE SMOOTH",
"583 59 OFFCURVE",
"573 69 OFFCURVE",
"573 96 CURVE SMOOTH",
"573 552 LINE SMOOTH",
"573 578 OFFCURVE",
"583 588 OFFCURVE",
"609 588 CURVE SMOOTH",
"640 588 LINE",
"640 647 LINE",
"427 647 LINE",
"427 588 LINE",
"458 588 LINE SMOOTH",
"483 588 OFFCURVE",
"493 579 OFFCURVE",
"493 552 CURVE SMOOTH",
"493 354 LINE",
"186 354 LINE",
"186 552 LINE SMOOTH",
"186 578 OFFCURVE",
"195 588 OFFCURVE",
"221 588 CURVE SMOOTH",
"251 588 LINE",
"251 647 LINE",
"39 647 LINE",
"39 588 LINE",
"71 588 LINE SMOOTH",
"97 588 OFFCURVE",
"106 578 OFFCURVE",
"106 552 CURVE SMOOTH",
"106 96 LINE SMOOTH",
"106 69 OFFCURVE",
"97 59 OFFCURVE",
"71 59 CURVE SMOOTH",
"39 59 LINE",
"39 0 LINE"
);
}
);
width = 679;
}
);
note = H;
unicode = 0048;
},
{
glyphname = Hbar;
lastChange = "2015-11-23 16:01:11 +0000";
layers = (
{
layerId = "80E8E25D-437F-49DC-8A9F-EB5C20E09398";
name = Light;
paths = (
{
closed = 1;
nodes = (
"251 0 LINE",
"251 59 LINE",
"221 59 LINE SMOOTH",
"195 59 OFFCURVE",
"186 69 OFFCURVE",
"186 96 CURVE SMOOTH",
"186 295 LINE",
"493 295 LINE",
"493 96 LINE SMOOTH",
"493 69 OFFCURVE",
"483 59 OFFCURVE",
"458 59 CURVE SMOOTH",
"427 59 LINE",
"427 0 LINE",
"640 0 LINE",
"640 59 LINE",
"609 59 LINE SMOOTH",
"583 59 OFFCURVE",
"573 69 OFFCURVE",
"573 96 CURVE SMOOTH",
"573 427 LINE",
"640 427 LINE",
"640 486 LINE",
"573 486 LINE",
"573 552 LINE SMOOTH",
"573 578 OFFCURVE",
"583 588 OFFCURVE",
"609 588 CURVE SMOOTH",
"640 588 LINE",
"640 647 LINE",
"427 647 LINE",
"427 588 LINE",
"458 588 LINE SMOOTH",
"483 588 OFFCURVE",
"493 579 OFFCURVE",
"493 552 CURVE SMOOTH",
"493 486 LINE",
"186 486 LINE",
"186 552 LINE SMOOTH",
"186 578 OFFCURVE",
"195 588 OFFCURVE",
"221 588 CURVE SMOOTH",
"251 588 LINE",
"251 647 LINE",
"39 647 LINE",
"39 588 LINE",
"71 588 LINE SMOOTH",
"97 588 OFFCURVE",
"106 578 OFFCURVE",
"106 552 CURVE SMOOTH",
"106 486 LINE",
"39 486 LINE",
"39 427 LINE",
"106 427 LINE",
"106 96 LINE SMOOTH",
"106 69 OFFCURVE",
"97 59 OFFCURVE",
"71 59 CURVE SMOOTH",
"39 59 LINE",
"39 0 LINE"
);
},
{
closed = 1;
nodes = (
"186 427 LINE",
"493 427 LINE",
"493 354 LINE",
"186 354 LINE"
);
}
);
width = 679;
}
);
note = Hbar;
unicode = 0126;
},
{
glyphname = Hbrevebelow;
lastChange = "2015-11-23 16:01:19 +0000";
layers = (
{
layerId = "80E8E25D-437F-49DC-8A9F-EB5C20E09398";
name = Light;
paths = (
{
closed = 1;
nodes = (
"251 0 LINE",
"251 59 LINE",
"221 59 LINE SMOOTH",
"195 59 OFFCURVE",
"186 69 OFFCURVE",
"186 96 CURVE SMOOTH",
"186 295 LINE",
"493 295 LINE",
"493 96 LINE SMOOTH",
"493 69 OFFCURVE",
"483 59 OFFCURVE",
"458 59 CURVE SMOOTH",
"427 59 LINE",
"427 0 LINE",
"640 0 LINE",
"640 59 LINE",
"609 59 LINE SMOOTH",
"583 59 OFFCURVE",
"573 69 OFFCURVE",
"573 96 CURVE SMOOTH",
"573 552 LINE SMOOTH",
"573 578 OFFCURVE",
"583 588 OFFCURVE",
"609 588 CURVE SMOOTH",
"640 588 LINE",
"640 647 LINE",
"427 647 LINE",
"427 588 LINE",
"458 588 LINE SMOOTH",
"483 588 OFFCURVE",
"493 579 OFFCURVE",
"493 552 CURVE SMOOTH",
"493 354 LINE",
"186 354 LINE",
"186 552 LINE SMOOTH",
"186 578 OFFCURVE",
"195 588 OFFCURVE",
"221 588 CURVE SMOOTH",
"251 588 LINE",
"251 647 LINE",
"39 647 LINE",
"39 588 LINE",
"71 588 LINE SMOOTH",
"97 588 OFFCURVE",
"106 578 OFFCURVE",
"106 552 CURVE SMOOTH",
"106 96 LINE SMOOTH",
"106 69 OFFCURVE",
"97 59 OFFCURVE",
"71 59 CURVE SMOOTH",
"39 59 LINE",
"39 0 LINE"
);
},
{
closed = 1;
nodes = (
"428 -186 OFFCURVE",
"489 -133 OFFCURVE",
"489 -49 CURVE",
"424 -49 LINE",
"424 -102 OFFCURVE",
"392 -130 OFFCURVE",
"340 -130 CURVE SMOOTH",
"289 -130 OFFCURVE",
"255 -102 OFFCURVE",
"255 -49 CURVE",
"190 -49 LINE",
"190 -133 OFFCURVE",
"251 -186 OFFCURVE",
"340 -186 CURVE SMOOTH"
);
}
);
width = 679;
}
);
note = Hbrevebelow;
unicode = 1E2A;
},
{
glyphname = Hcircumflex;
lastChange = "2015-08-01 11:25:24 +0000";
layers = (
{
layerId = "80E8E25D-437F-49DC-8A9F-EB5C20E09398";
name = Light;
paths = (
{
closed = 1;
nodes = (
"251 0 LINE",
"251 59 LINE",
"221 59 LINE SMOOTH",
"195 59 OFFCURVE",
"186 69 OFFCURVE",
"186 96 CURVE SMOOTH",
"186 295 LINE",
"493 295 LINE",
"493 96 LINE SMOOTH",
"493 69 OFFCURVE",
"483 59 OFFCURVE",
"458 59 CURVE SMOOTH",
"427 59 LINE",
"427 0 LINE",
"640 0 LINE",
"640 59 LINE",
"609 59 LINE SMOOTH",
"583 59 OFFCURVE",
"573 69 OFFCURVE",
"573 96 CURVE SMOOTH",
"573 552 LINE SMOOTH",
"573 578 OFFCURVE",
"583 588 OFFCURVE",
"609 588 CURVE SMOOTH",
"640 588 LINE",
"640 647 LINE",
"427 647 LINE",
"427 588 LINE",
"458 588 LINE SMOOTH",
"483 588 OFFCURVE",
"493 579 OFFCURVE",
"493 552 CURVE SMOOTH",
"493 354 LINE",
"186 354 LINE",
"186 552 LINE SMOOTH",
"186 578 OFFCURVE",
"195 588 OFFCURVE",
"221 588 CURVE SMOOTH",
"251 588 LINE",
"251 647 LINE",
"39 647 LINE",
"39 588 LINE",
"71 588 LINE SMOOTH",
"97 588 OFFCURVE",
"106 578 OFFCURVE",
"106 552 CURVE SMOOTH",
"106 96 LINE SMOOTH",
"106 69 OFFCURVE",
"97 59 OFFCURVE",
"71 59 CURVE SMOOTH",
"39 59 LINE",
"39 0 LINE"
);
},
{
closed = 1;
nodes = (
"255 702 LINE",
"339 834 LINE",
"423 702 LINE",
"502 702 LINE",
"382 885 LINE",
"296 885 LINE",
"176 702 LINE"
);
}
);
width = 679;
}
);
note = Hcircumflex;
unicode = 0124;
},
{
glyphname = Hdotbelow;
lastChange = "2015-08-01 11:25:25 +0000";
layers = (
{
layerId = "80E8E25D-437F-49DC-8A9F-EB5C20E09398";
name = Light;
paths = (
{
closed = 1;
nodes = (
"251 0 LINE",
"251 59 LINE",
"221 59 LINE SMOOTH",
"195 59 OFFCURVE",
"186 69 OFFCURVE",
"186 96 CURVE SMOOTH",
"186 295 LINE",
"493 295 LINE",
"493 96 LINE SMOOTH",
"493 69 OFFCURVE",
"483 59 OFFCURVE",
"458 59 CURVE SMOOTH",
"427 59 LINE",
"427 0 LINE",
"640 0 LINE",
"640 59 LINE",
"609 59 LINE SMOOTH",
"583 59 OFFCURVE",
"573 69 OFFCURVE",
"573 96 CURVE SMOOTH",
"573 552 LINE SMOOTH",
"573 578 OFFCURVE",
"583 588 OFFCURVE",
"609 588 CURVE SMOOTH",
"640 588 LINE",
"640 647 LINE",
"427 647 LINE",
"427 588 LINE",
"458 588 LINE SMOOTH",
"483 588 OFFCURVE",
"493 579 OFFCURVE",
"493 552 CURVE SMOOTH",
"493 354 LINE",
"186 354 LINE",
"186 552 LINE SMOOTH",
"186 578 OFFCURVE",
"195 588 OFFCURVE",
"221 588 CURVE SMOOTH",
"251 588 LINE",
"251 647 LINE",
"39 647 LINE",
"39 588 LINE",
"71 588 LINE SMOOTH",
"97 588 OFFCURVE",
"106 578 OFFCURVE",
"106 552 CURVE SMOOTH",
"106 96 LINE SMOOTH",
"106 69 OFFCURVE",
"97 59 OFFCURVE",
"71 59 CURVE SMOOTH",
"39 59 LINE",
"39 0 LINE"
);
},
{
closed = 1;
nodes = (
"379 -145 LINE",
"379 -63 LINE",
"299 -63 LINE",
"299 -145 LINE"
);
}
);
width = 679;
}
);
note = Hdotbelow;
unicode = 1E24;
},
{
glyphname = I;
lastChange = "2015-08-01 11:25:16 +0000";
layers = (
{
layerId = "80E8E25D-437F-49DC-8A9F-EB5C20E09398";
name = Light;
paths = (
{
closed = 1;
nodes = (
"253 0 LINE",
"253 59 LINE",
"221 59 LINE SMOOTH",
"195 59 OFFCURVE",
"186 69 OFFCURVE",
"186 95 CURVE SMOOTH",
"186 552 LINE SMOOTH",
"186 578 OFFCURVE",
"195 588 OFFCURVE",
"221 588 CURVE SMOOTH",
"253 588 LINE",
"253 647 LINE",
"39 647 LINE",
"39 588 LINE",
"71 588 LINE SMOOTH",
"97 588 OFFCURVE",
"106 578 OFFCURVE",
"106 552 CURVE SMOOTH",
"106 96 LINE SMOOTH",
"106 69 OFFCURVE",
"97 59 OFFCURVE",
"71 59 CURVE SMOOTH",
"39 59 LINE",
"39 0 LINE"
);
}
);
width = 292;
}
);
note = I;
unicode = 0049;
},
{
glyphname = IJ;
lastChange = "2015-08-01 11:25:26 +0000";
layers = (
{
layerId = "80E8E25D-437F-49DC-8A9F-EB5C20E09398";
name = Light;
paths = (
{
closed = 1;
nodes = (
"584 -15 OFFCURVE",
"649 58 OFFCURVE",
"649 177 CURVE SMOOTH",
"649 552 LINE SMOOTH",
"649 578 OFFCURVE",
"659 588 OFFCURVE",
"684 588 CURVE SMOOTH",
"716 588 LINE",
"716 647 LINE",
"502 647 LINE",
"502 588 LINE",
"533 588 LINE SMOOTH",
"559 588 OFFCURVE",
"569 578 OFFCURVE",
"569 552 CURVE SMOOTH",
"569 168 LINE SMOOTH",
"569 87 OFFCURVE",
"536 45 OFFCURVE",
"455 45 CURVE SMOOTH",
"412 45 OFFCURVE",
"373 55 OFFCURVE",
"349 81 CURVE",
"349 129 LINE",
"275 129 LINE",
"275 56 LINE",
"317 12 OFFCURVE",
"376 -15 OFFCURVE",
"461 -15 CURVE SMOOTH"
);
},
{
closed = 1;
nodes = (
"253 0 LINE",
"253 59 LINE",
"221 59 LINE SMOOTH",
"195 59 OFFCURVE",
"186 69 OFFCURVE",
"186 95 CURVE SMOOTH",
"186 552 LINE SMOOTH",
"186 578 OFFCURVE",
"195 588 OFFCURVE",
"221 588 CURVE SMOOTH",
"253 588 LINE",
"253 647 LINE",
"39 647 LINE",
"39 588 LINE",
"71 588 LINE SMOOTH",
"97 588 OFFCURVE",
"106 578 OFFCURVE",
"106 552 CURVE SMOOTH",
"106 96 LINE SMOOTH",
"106 69 OFFCURVE",
"97 59 OFFCURVE",
"71 59 CURVE SMOOTH",
"39 59 LINE",
"39 0 LINE"
);
}
);
width = 745;
}
);
note = IJ;
rightKerningGroup = J;
unicode = 0132;
},
{
glyphname = Iacute;
lastChange = "2015-08-01 11:25:24 +0000";
layers = (
{
layerId = "80E8E25D-437F-49DC-8A9F-EB5C20E09398";
name = Light;
paths = (
{
closed = 1;
nodes = (
"253 0 LINE",
"253 59 LINE",
"221 59 LINE SMOOTH",
"195 59 OFFCURVE",
"186 69 OFFCURVE",
"186 95 CURVE SMOOTH",
"186 552 LINE SMOOTH",
"186 578 OFFCURVE",
"195 588 OFFCURVE",
"221 588 CURVE SMOOTH",
"253 588 LINE",
"253 647 LINE",
"39 647 LINE",
"39 588 LINE",
"71 588 LINE SMOOTH",
"97 588 OFFCURVE",
"106 578 OFFCURVE",
"106 552 CURVE SMOOTH",
"106 96 LINE SMOOTH",
"106 69 OFFCURVE",
"97 59 OFFCURVE",
"71 59 CURVE SMOOTH",
"39 59 LINE",
"39 0 LINE"
);
},
{
closed = 1;
nodes = (
"168 701 LINE",
"283 880 LINE",
"181 880 LINE",
"98 701 LINE"
);
}
);
width = 292;
}
);
note = Iacute;
unicode = 00CD;
},
{
glyphname = Ibreve;
lastChange = "2015-08-01 11:25:25 +0000";
layers = (
{
layerId = "80E8E25D-437F-49DC-8A9F-EB5C20E09398";
name = Light;
paths = (
{
closed = 1;
nodes = (
"253 0 LINE",
"253 59 LINE",
"221 59 LINE SMOOTH",
"195 59 OFFCURVE",
"186 69 OFFCURVE",
"186 95 CURVE SMOOTH",
"186 552 LINE SMOOTH",
"186 578 OFFCURVE",
"195 588 OFFCURVE",
"221 588 CURVE SMOOTH",
"253 588 LINE",
"253 647 LINE",
"39 647 LINE",
"39 588 LINE",
"71 588 LINE SMOOTH",
"97 588 OFFCURVE",
"106 578 OFFCURVE",
"106 552 CURVE SMOOTH",
"106 96 LINE SMOOTH",
"106 69 OFFCURVE",
"97 59 OFFCURVE",
"71 59 CURVE SMOOTH",
"39 59 LINE",
"39 0 LINE"
);
},
{
closed = 1;
nodes = (
"233 701 OFFCURVE",
"294 754 OFFCURVE",
"294 838 CURVE",
"229 838 LINE",
"229 785 OFFCURVE",
"197 757 OFFCURVE",
"145 757 CURVE SMOOTH",
"94 757 OFFCURVE",
"60 785 OFFCURVE",
"60 838 CURVE",
"-5 838 LINE",
"-5 754 OFFCURVE",
"56 701 OFFCURVE",
"145 701 CURVE SMOOTH"
);
}
);
width = 292;
}
);
note = Ibreve;
unicode = 012C;
},
{
glyphname = Icaron;
lastChange = "2015-08-01 11:25:24 +0000";
layers = (
{
layerId = "80E8E25D-437F-49DC-8A9F-EB5C20E09398";
name = Light;
paths = (
{
closed = 1;
nodes = (
"253 0 LINE",
"253 59 LINE",
"221 59 LINE SMOOTH",
"195 59 OFFCURVE",
"186 69 OFFCURVE",
"186 95 CURVE SMOOTH",
"186 552 LINE SMOOTH",
"186 578 OFFCURVE",
"195 588 OFFCURVE",
"221 588 CURVE SMOOTH",
"253 588 LINE",
"253 647 LINE",
"39 647 LINE",
"39 588 LINE",
"71 588 LINE SMOOTH",
"97 588 OFFCURVE",
"106 578 OFFCURVE",
"106 552 CURVE SMOOTH",
"106 96 LINE SMOOTH",
"106 69 OFFCURVE",
"97 59 OFFCURVE",
"71 59 CURVE SMOOTH",
"39 59 LINE",
"39 0 LINE"
);
},
{
closed = 1;
nodes = (
"189 701 LINE",
"309 884 LINE",
"230 884 LINE",
"146 751 LINE",
"62 884 LINE",
"-17 884 LINE",
"103 701 LINE"
);
}
);
width = 292;
}
);
note = Icaron;
unicode = 01CF;
},
{
glyphname = Icircumflex;
lastChange = "2015-08-01 11:25:25 +0000";
layers = (
{
layerId = "80E8E25D-437F-49DC-8A9F-EB5C20E09398";
name = Light;
paths = (
{
closed = 1;
nodes = (
"253 0 LINE",
"253 59 LINE",
"221 59 LINE SMOOTH",
"195 59 OFFCURVE",
"186 69 OFFCURVE",
"186 95 CURVE SMOOTH",
"186 552 LINE SMOOTH",
"186 578 OFFCURVE",
"195 588 OFFCURVE",
"221 588 CURVE SMOOTH",
"253 588 LINE",
"253 647 LINE",
"39 647 LINE",
"39 588 LINE",
"71 588 LINE SMOOTH",
"97 588 OFFCURVE",
"106 578 OFFCURVE",
"106 552 CURVE SMOOTH",
"106 96 LINE SMOOTH",
"106 69 OFFCURVE",
"97 59 OFFCURVE",
"71 59 CURVE SMOOTH",
"39 59 LINE",
"39 0 LINE"
);
},
{
closed = 1;
nodes = (
"62 701 LINE",
"146 833 LINE",
"230 701 LINE",
"309 701 LINE",
"189 884 LINE",
"103 884 LINE",
"-17 701 LINE"
);
}
);
width = 292;
}
);
note = Icircumflex;
unicode = 00CE;
},
{
glyphname = Idieresis;
lastChange = "2015-08-01 11:25:25 +0000";
layers = (
{
layerId = "80E8E25D-437F-49DC-8A9F-EB5C20E09398";
name = Light;
paths = (
{
closed = 1;
nodes = (
"253 0 LINE",
"253 59 LINE",
"221 59 LINE SMOOTH",
"195 59 OFFCURVE",
"186 69 OFFCURVE",
"186 95 CURVE SMOOTH",
"186 552 LINE SMOOTH",
"186 578 OFFCURVE",
"195 588 OFFCURVE",
"221 588 CURVE SMOOTH",
"253 588 LINE",
"253 647 LINE",
"39 647 LINE",
"39 588 LINE",
"71 588 LINE SMOOTH",
"97 588 OFFCURVE",
"106 578 OFFCURVE",
"106 552 CURVE SMOOTH",
"106 96 LINE SMOOTH",
"106 69 OFFCURVE",
"97 59 OFFCURVE",
"71 59 CURVE SMOOTH",
"39 59 LINE",
"39 0 LINE"
);
},
{
closed = 1;
nodes = (
"86 726 LINE",
"86 808 LINE",
"6 808 LINE",
"6 726 LINE"
);
},
{
closed = 1;
nodes = (
"287 726 LINE",
"287 808 LINE",
"207 808 LINE",
"207 726 LINE"
);
}
);
width = 292;
}
);
note = Idieresis;
unicode = 00CF;
},
{
glyphname = Idotaccent;
lastChange = "2015-11-23 16:01:33 +0000";
layers = (
{
layerId = "80E8E25D-437F-49DC-8A9F-EB5C20E09398";
name = Light;
paths = (
{
closed = 1;
nodes = (
"253 0 LINE",
"253 59 LINE",
"221 59 LINE SMOOTH",
"195 59 OFFCURVE",
"186 69 OFFCURVE",
"186 95 CURVE SMOOTH",
"186 552 LINE SMOOTH",
"186 578 OFFCURVE",
"195 588 OFFCURVE",
"221 588 CURVE SMOOTH",
"253 588 LINE",
"253 647 LINE",
"39 647 LINE",
"39 588 LINE",
"71 588 LINE SMOOTH",
"97 588 OFFCURVE",
"106 578 OFFCURVE",
"106 552 CURVE SMOOTH",
"106 96 LINE SMOOTH",
"106 69 OFFCURVE",
"97 59 OFFCURVE",
"71 59 CURVE SMOOTH",
"39 59 LINE",
"39 0 LINE"
);
},
{
closed = 1;
nodes = (
"185 721 LINE",
"185 803 LINE",
"105 803 LINE",
"105 721 LINE"
);
}
);
width = 292;
}
);
note = Idotaccent;
unicode = 0130;
},
{
glyphname = Idotbelow;
lastChange = "2015-11-23 16:01:42 +0000";
layers = (
{
layerId = "80E8E25D-437F-49DC-8A9F-EB5C20E09398";
name = Light;
paths = (
{
closed = 1;
nodes = (
"253 0 LINE",
"253 59 LINE",
"221 59 LINE SMOOTH",
"195 59 OFFCURVE",
"186 69 OFFCURVE",
"186 95 CURVE SMOOTH",
"186 552 LINE SMOOTH",
"186 578 OFFCURVE",
"195 588 OFFCURVE",
"221 588 CURVE SMOOTH",
"253 588 LINE",
"253 647 LINE",
"39 647 LINE",
"39 588 LINE",
"71 588 LINE SMOOTH",
"97 588 OFFCURVE",
"106 578 OFFCURVE",
"106 552 CURVE SMOOTH",
"106 96 LINE SMOOTH",
"106 69 OFFCURVE",
"97 59 OFFCURVE",
"71 59 CURVE SMOOTH",
"39 59 LINE",
"39 0 LINE"
);
},
{
closed = 1;
nodes = (
"185 -145 LINE",
"185 -63 LINE",
"105 -63 LINE",
"105 -145 LINE"
);
}
);
width = 292;
}
);
note = Idotbelow;
unicode = 1ECA;
},
{
glyphname = Igrave;
lastChange = "2015-08-01 11:25:26 +0000";
layers = (
{
layerId = "80E8E25D-437F-49DC-8A9F-EB5C20E09398";
name = Light;
paths = (
{
closed = 1;
nodes = (
"253 0 LINE",
"253 59 LINE",
"221 59 LINE SMOOTH",
"195 59 OFFCURVE",
"186 69 OFFCURVE",
"186 95 CURVE SMOOTH",
"186 552 LINE SMOOTH",
"186 578 OFFCURVE",
"195 588 OFFCURVE",
"221 588 CURVE SMOOTH",
"253 588 LINE",
"253 647 LINE",
"39 647 LINE",
"39 588 LINE",
"71 588 LINE SMOOTH",
"97 588 OFFCURVE",
"106 578 OFFCURVE",
"106 552 CURVE SMOOTH",
"106 96 LINE SMOOTH",
"106 69 OFFCURVE",
"97 59 OFFCURVE",
"71 59 CURVE SMOOTH",
"39 59 LINE",
"39 0 LINE"
);
},
{
closed = 1;
nodes = (
"182 701 LINE",
"99 880 LINE",
"-3 880 LINE",
"112 701 LINE"
);
}
);
width = 292;
}
);
note = Igrave;
unicode = 00CC;
},
{
glyphname = Ihookabove;
lastChange = "2015-08-01 11:25:26 +0000";
layers = (
{
layerId = "80E8E25D-437F-49DC-8A9F-EB5C20E09398";
name = Light;
paths = (
{
closed = 1;
nodes = (
"253 0 LINE",
"253 59 LINE",
"221 59 LINE SMOOTH",
"195 59 OFFCURVE",
"186 69 OFFCURVE",
"186 95 CURVE SMOOTH",
"186 552 LINE SMOOTH",
"186 578 OFFCURVE",
"195 588 OFFCURVE",
"221 588 CURVE SMOOTH",
"253 588 LINE",
"253 647 LINE",
"39 647 LINE",
"39 588 LINE",
"71 588 LINE SMOOTH",
"97 588 OFFCURVE",
"106 578 OFFCURVE",
"106 552 CURVE SMOOTH",
"106 96 LINE SMOOTH",
"106 69 OFFCURVE",
"97 59 OFFCURVE",
"71 59 CURVE SMOOTH",
"39 59 LINE",
"39 0 LINE"
);
},
{
closed = 1;
nodes = (
"180 701 LINE",
"180 740 LINE",
"224 751 OFFCURVE",
"248 777 OFFCURVE",
"248 819 CURVE SMOOTH",
"248 880 OFFCURVE",
"206 902 OFFCURVE",
"140 902 CURVE SMOOTH",
"115 902 OFFCURVE",
"91 897 OFFCURVE",
"76 892 CURVE",
"76 842 LINE",
"89 846 OFFCURVE",
"107 850 OFFCURVE",
"125 850 CURVE SMOOTH",
"165 850 OFFCURVE",
"182 842 OFFCURVE",
"182 813 CURVE SMOOTH",
"182 785 OFFCURVE",
"168 766 OFFCURVE",
"115 766 CURVE",
"115 701 LINE"
);
}
);
width = 292;
}
);
note = Ihookabove;
unicode = 1EC8;
},
{
glyphname = Imacron;
lastChange = "2015-08-01 11:25:26 +0000";
layers = (
{
layerId = "80E8E25D-437F-49DC-8A9F-EB5C20E09398";
name = Light;
paths = (
{
closed = 1;
nodes = (
"253 0 LINE",
"253 59 LINE",
"221 59 LINE SMOOTH",
"195 59 OFFCURVE",
"186 69 OFFCURVE",
"186 95 CURVE SMOOTH",
"186 552 LINE SMOOTH",
"186 578 OFFCURVE",
"195 588 OFFCURVE",
"221 588 CURVE SMOOTH",
"253 588 LINE",
"253 647 LINE",
"39 647 LINE",
"39 588 LINE",
"71 588 LINE SMOOTH",
"97 588 OFFCURVE",
"106 578 OFFCURVE",
"106 552 CURVE SMOOTH",
"106 96 LINE SMOOTH",
"106 69 OFFCURVE",
"97 59 OFFCURVE",
"71 59 CURVE SMOOTH",
"39 59 LINE",
"39 0 LINE"
);
},
{
closed = 1;
nodes = (
"286 722 LINE",
"286 779 LINE",
"5 779 LINE",
"5 722 LINE"
);
}
);
width = 292;
}
);
note = Imacron;
unicode = 012A;
},
{
glyphname = Iogonek;
lastChange = "2015-08-01 11:25:25 +0000";
layers = (
{
layerId = "80E8E25D-437F-49DC-8A9F-EB5C20E09398";
name = Light;
paths = (
{
closed = 1;
nodes = (
"253 0 LINE",
"253 59 LINE",
"221 59 LINE SMOOTH",
"195 59 OFFCURVE",
"186 69 OFFCURVE",
"186 95 CURVE SMOOTH",
"186 552 LINE SMOOTH",
"186 578 OFFCURVE",
"195 588 OFFCURVE",
"221 588 CURVE SMOOTH",
"253 588 LINE",
"253 647 LINE",
"39 647 LINE",
"39 588 LINE",
"71 588 LINE SMOOTH",
"97 588 OFFCURVE",
"106 578 OFFCURVE",
"106 552 CURVE SMOOTH",
"106 96 LINE SMOOTH",
"106 69 OFFCURVE",
"97 59 OFFCURVE",
"71 59 CURVE SMOOTH",
"39 59 LINE",
"39 0 LINE"
);
},
{
closed = 1;
nodes = (
"188 -205 OFFCURVE",
"208 -200 OFFCURVE",
"222 -191 CURVE",
"222 -142 LINE",
"207 -147 OFFCURVE",
"191 -149 OFFCURVE",
"177 -149 CURVE SMOOTH",
"150 -149 OFFCURVE",
"137 -134 OFFCURVE",
"137 -99 CURVE SMOOTH",
"137 -60 OFFCURVE",
"154 -29 OFFCURVE",
"187 0 CURVE",
"121 0 LINE",
"90 -29 OFFCURVE",
"71 -66 OFFCURVE",
"71 -109 CURVE SMOOTH",
"71 -175 OFFCURVE",
"110 -205 OFFCURVE",
"165 -205 CURVE SMOOTH"
);
}
);
width = 292;
}
);
note = Iogonek;
unicode = 012E;
},
{
glyphname = Itilde;
lastChange = "2015-08-01 11:25:25 +0000";
layers = (
{
layerId = "80E8E25D-437F-49DC-8A9F-EB5C20E09398";
name = Light;
paths = (
{
closed = 1;
nodes = (
"253 0 LINE",
"253 59 LINE",
"221 59 LINE SMOOTH",
"195 59 OFFCURVE",
"186 69 OFFCURVE",
"186 95 CURVE SMOOTH",
"186 552 LINE SMOOTH",
"186 578 OFFCURVE",
"195 588 OFFCURVE",
"221 588 CURVE SMOOTH",
"253 588 LINE",
"253 647 LINE",
"39 647 LINE",
"39 588 LINE",
"71 588 LINE SMOOTH",
"97 588 OFFCURVE",
"106 578 OFFCURVE",
"106 552 CURVE SMOOTH",
"106 96 LINE SMOOTH",
"106 69 OFFCURVE",
"97 59 OFFCURVE",
"71 59 CURVE SMOOTH",
"39 59 LINE",
"39 0 LINE"
);
},
{
closed = 1;
nodes = (
"22 702 LINE",
"22 747 OFFCURVE",
"38 758 OFFCURVE",
"67 758 CURVE SMOOTH",
"123 758 OFFCURVE",
"162 702 OFFCURVE",
"230 702 CURVE SMOOTH",
"296 702 OFFCURVE",
"330 738 OFFCURVE",
"330 823 CURVE",
"267 823 LINE",
"267 778 OFFCURVE",
"252 766 OFFCURVE",
"223 766 CURVE SMOOTH",
"172 766 OFFCURVE",
"131 823 OFFCURVE",
"60 823 CURVE SMOOTH",
"-6 823 OFFCURVE",
"-41 786 OFFCURVE",
"-41 702 CURVE"
);
}
);
width = 292;
}
);
note = Itilde;
unicode = 0128;
},
{
glyphname = J;
lastChange = "2015-08-01 11:25:24 +0000";
layers = (
{
layerId = "80E8E25D-437F-49DC-8A9F-EB5C20E09398";
name = Light;
paths = (
{
closed = 1;
nodes = (
"318 -15 OFFCURVE",
"383 58 OFFCURVE",
"383 177 CURVE SMOOTH",
"383 552 LINE SMOOTH",
"383 578 OFFCURVE",
"393 588 OFFCURVE",
"418 588 CURVE SMOOTH",
"450 588 LINE",
"450 647 LINE",
"236 647 LINE",
"236 588 LINE",
"267 588 LINE SMOOTH",
"293 588 OFFCURVE",
"303 578 OFFCURVE",
"303 552 CURVE SMOOTH",
"303 168 LINE SMOOTH",
"303 87 OFFCURVE",
"270 45 OFFCURVE",
"189 45 CURVE SMOOTH",
"146 45 OFFCURVE",
"107 55 OFFCURVE",
"83 81 CURVE",
"83 129 LINE",
"9 129 LINE",
"9 56 LINE",
"51 12 OFFCURVE",
"110 -15 OFFCURVE",
"195 -15 CURVE SMOOTH"
);
}
);
width = 489;
}
);
leftKerningGroup = J;
note = J;
rightKerningGroup = J;
unicode = 004A;
},
{
glyphname = Jcircumflex;
lastChange = "2015-08-01 11:25:24 +0000";
layers = (
{
layerId = "80E8E25D-437F-49DC-8A9F-EB5C20E09398";
name = Light;
paths = (
{
closed = 1;
nodes = (
"318 -15 OFFCURVE",
"383 58 OFFCURVE",
"383 177 CURVE SMOOTH",
"383 552 LINE SMOOTH",
"383 578 OFFCURVE",
"393 588 OFFCURVE",
"418 588 CURVE SMOOTH",
"450 588 LINE",
"450 647 LINE",
"236 647 LINE",
"236 588 LINE",
"267 588 LINE SMOOTH",
"293 588 OFFCURVE",
"303 578 OFFCURVE",
"303 552 CURVE SMOOTH",
"303 168 LINE SMOOTH",
"303 87 OFFCURVE",
"270 45 OFFCURVE",
"189 45 CURVE SMOOTH",
"146 45 OFFCURVE",
"107 55 OFFCURVE",
"83 81 CURVE",
"83 129 LINE",
"9 129 LINE",
"9 56 LINE",
"51 12 OFFCURVE",
"110 -15 OFFCURVE",
"195 -15 CURVE SMOOTH"
);
},
{
closed = 1;
nodes = (
"250 702 LINE",
"334 834 LINE",
"418 702 LINE",
"497 702 LINE",
"377 885 LINE",
"291 885 LINE",
"171 702 LINE"
);
}
);
width = 507;
}
);
leftKerningGroup = J;
note = Jcircumflex;
rightKerningGroup = J;
unicode = 0134;
},
{
glyphname = K;
lastChange = "2015-08-01 11:25:25 +0000";
layers = (
{
layerId = "80E8E25D-437F-49DC-8A9F-EB5C20E09398";
name = Light;
paths = (
{
closed = 1;
nodes = (
"249 0 LINE",
"249 59 LINE",
"222 59 LINE SMOOTH",
"193 59 OFFCURVE",
"186 71 OFFCURVE",
"186 95 CURVE SMOOTH",
"186 224 LINE",
"276 321 LINE",
"449 59 LINE",
"392 59 LINE",
"392 0 LINE",
"602 0 LINE",
"602 59 LINE",
"568 59 LINE SMOOTH",
"542 59 OFFCURVE",
"526 69 OFFCURVE",
"511 92 CURVE SMOOTH",
"325 373 LINE",
"496 556 LINE SMOOTH",
"514 576 OFFCURVE",
"525 588 OFFCURVE",
"552 588 CURVE SMOOTH",
"591 588 LINE",
"591 647 LINE",
"388 647 LINE",
"388 588 LINE",
"442 588 LINE",
"186 311 LINE",
"186 552 LINE SMOOTH",
"186 578 OFFCURVE",
"195 588 OFFCURVE",
"221 588 CURVE SMOOTH",
"241 588 LINE",
"241 647 LINE",
"47 647 LINE",
"47 588 LINE",
"71 588 LINE SMOOTH",
"97 588 OFFCURVE",
"106 578 OFFCURVE",
"106 552 CURVE SMOOTH",
"106 95 LINE SMOOTH",
"106 70 OFFCURVE",
"98 59 OFFCURVE",
"69 59 CURVE SMOOTH",
"39 59 LINE",
"39 0 LINE"
);
}
);
width = 641;
}
);
note = K;
rightKerningGroup = K;
unicode = 004B;
},
{
glyphname = Kcommaaccent;
lastChange = "2015-08-01 11:25:25 +0000";
layers = (
{
layerId = "80E8E25D-437F-49DC-8A9F-EB5C20E09398";
name = Light;
paths = (
{
closed = 1;
nodes = (
"249 0 LINE",
"249 59 LINE",
"222 59 LINE SMOOTH",
"193 59 OFFCURVE",
"186 71 OFFCURVE",
"186 95 CURVE SMOOTH",
"186 224 LINE",
"276 321 LINE",
"449 59 LINE",
"392 59 LINE",
"392 0 LINE",
"602 0 LINE",
"602 59 LINE",
"568 59 LINE SMOOTH",
"542 59 OFFCURVE",
"526 69 OFFCURVE",
"511 92 CURVE SMOOTH",
"325 373 LINE",
"496 556 LINE SMOOTH",
"514 576 OFFCURVE",
"525 588 OFFCURVE",
"552 588 CURVE SMOOTH",
"591 588 LINE",
"591 647 LINE",
"388 647 LINE",
"388 588 LINE",
"442 588 LINE",
"186 311 LINE",
"186 552 LINE SMOOTH",
"186 578 OFFCURVE",
"195 588 OFFCURVE",
"221 588 CURVE SMOOTH",
"241 588 LINE",
"241 647 LINE",
"47 647 LINE",
"47 588 LINE",
"71 588 LINE SMOOTH",
"97 588 OFFCURVE",
"106 578 OFFCURVE",
"106 552 CURVE SMOOTH",
"106 95 LINE SMOOTH",
"106 70 OFFCURVE",
"98 59 OFFCURVE",
"69 59 CURVE SMOOTH",
"39 59 LINE",
"39 0 LINE"
);
},
{
closed = 1;
nodes = (
"309 -244 LINE",
"368 -49 LINE",
"276 -49 LINE",
"247 -244 LINE"
);
}
);
width = 641;
}
);
note = Kcommaaccent;
rightKerningGroup = K;
unicode = 0136;
},
{
glyphname = L;
lastChange = "2015-08-01 11:25:25 +0000";
layers = (
{
layerId = "80E8E25D-437F-49DC-8A9F-EB5C20E09398";
name = Light;
paths = (
{
closed = 1;
nodes = (
"497 0 LINE",
"497 121 LINE",
"425 121 LINE",
"425 95 LINE SMOOTH",
"425 69 OFFCURVE",
"415 59 OFFCURVE",
"388 59 CURVE SMOOTH",
"178 59 LINE",
"178 552 LINE SMOOTH",
"178 578 OFFCURVE",
"187 588 OFFCURVE",
"213 588 CURVE SMOOTH",
"237 588 LINE",
"237 647 LINE",
"39 647 LINE",
"39 588 LINE",
"63 588 LINE SMOOTH",
"89 588 OFFCURVE",
"98 578 OFFCURVE",
"98 552 CURVE SMOOTH",
"98 96 LINE SMOOTH",
"98 71 OFFCURVE",
"90 59 OFFCURVE",
"60 59 CURVE SMOOTH",
"39 59 LINE",
"39 0 LINE"
);
}
);
width = 506;
}
);
note = L;
rightKerningGroup = L;
unicode = 004C;
},
{
glyphname = Lacute;
lastChange = "2015-08-01 11:25:24 +0000";
layers = (
{
layerId = "80E8E25D-437F-49DC-8A9F-EB5C20E09398";
name = Light;
paths = (
{
closed = 1;
nodes = (
"497 0 LINE",
"497 121 LINE",
"425 121 LINE",
"425 95 LINE SMOOTH",
"425 69 OFFCURVE",
"415 59 OFFCURVE",
"388 59 CURVE SMOOTH",
"178 59 LINE",
"178 552 LINE SMOOTH",
"178 578 OFFCURVE",
"187 588 OFFCURVE",
"213 588 CURVE SMOOTH",
"237 588 LINE",
"237 647 LINE",
"39 647 LINE",
"39 588 LINE",
"63 588 LINE SMOOTH",
"89 588 OFFCURVE",
"98 578 OFFCURVE",
"98 552 CURVE SMOOTH",
"98 96 LINE SMOOTH",
"98 71 OFFCURVE",
"90 59 OFFCURVE",
"60 59 CURVE SMOOTH",
"39 59 LINE",
"39 0 LINE"
);
},
{
closed = 1;
nodes = (
"158 701 LINE",
"273 880 LINE",
"171 880 LINE",
"88 701 LINE"
);
}
);
width = 506;
}
);
note = Lacute;
rightKerningGroup = L;
unicode = 0139;
},
{
glyphname = Lcaron;
lastChange = "2015-08-01 11:25:25 +0000";
layers = (
{
layerId = "80E8E25D-437F-49DC-8A9F-EB5C20E09398";
name = Light;
paths = (
{
closed = 1;
nodes = (
"497 0 LINE",
"497 121 LINE",
"425 121 LINE",
"425 95 LINE SMOOTH",
"425 69 OFFCURVE",
"415 59 OFFCURVE",
"388 59 CURVE SMOOTH",
"178 59 LINE",
"178 552 LINE SMOOTH",
"178 578 OFFCURVE",
"187 588 OFFCURVE",
"213 588 CURVE SMOOTH",
"237 588 LINE",
"237 647 LINE",
"39 647 LINE",
"39 588 LINE",
"63 588 LINE SMOOTH",
"89 588 OFFCURVE",
"98 578 OFFCURVE",
"98 552 CURVE SMOOTH",
"98 96 LINE SMOOTH",
"98 71 OFFCURVE",
"90 59 OFFCURVE",
"60 59 CURVE SMOOTH",
"39 59 LINE",
"39 0 LINE"
);
},
{
closed = 1;
nodes = (
"398 519 LINE",
"457 714 LINE",
"365 714 LINE",
"336 519 LINE"
);
}
);
width = 506;
}
);
note = Lcaron;
rightKerningGroup = L;
unicode = 013D;
},
{
glyphname = Lcommaaccent;
lastChange = "2015-08-01 11:25:25 +0000";
layers = (
{
layerId = "80E8E25D-437F-49DC-8A9F-EB5C20E09398";
name = Light;
paths = (
{
closed = 1;
nodes = (
"497 0 LINE",
"497 121 LINE",
"425 121 LINE",
"425 95 LINE SMOOTH",
"425 69 OFFCURVE",
"415 59 OFFCURVE",
"388 59 CURVE SMOOTH",
"178 59 LINE",
"178 552 LINE SMOOTH",
"178 578 OFFCURVE",
"187 588 OFFCURVE",
"213 588 CURVE SMOOTH",
"237 588 LINE",
"237 647 LINE",
"39 647 LINE",
"39 588 LINE",
"63 588 LINE SMOOTH",
"89 588 OFFCURVE",
"98 578 OFFCURVE",
"98 552 CURVE SMOOTH",
"98 96 LINE SMOOTH",
"98 71 OFFCURVE",
"90 59 OFFCURVE",
"60 59 CURVE SMOOTH",
"39 59 LINE",
"39 0 LINE"
);
},
{
closed = 1;
nodes = (
"269 -244 LINE",
"328 -49 LINE",
"236 -49 LINE",
"207 -244 LINE"
);
}
);
width = 506;
}
);
note = Lcommaaccent;
rightKerningGroup = L;
unicode = 013B;
},
{
glyphname = Ldot;
lastChange = "2015-08-01 11:25:24 +0000";
layers = (
{
layerId = "80E8E25D-437F-49DC-8A9F-EB5C20E09398";
name = Light;
paths = (
{
closed = 1;
nodes = (
"497 0 LINE",
"497 121 LINE",
"425 121 LINE",
"425 95 LINE SMOOTH",
"425 69 OFFCURVE",
"415 59 OFFCURVE",
"388 59 CURVE SMOOTH",
"178 59 LINE",
"178 552 LINE SMOOTH",
"178 578 OFFCURVE",
"187 588 OFFCURVE",
"213 588 CURVE SMOOTH",
"237 588 LINE",
"237 647 LINE",
"39 647 LINE",
"39 588 LINE",
"63 588 LINE SMOOTH",
"89 588 OFFCURVE",
"98 578 OFFCURVE",
"98 552 CURVE SMOOTH",
"98 96 LINE SMOOTH",
"98 71 OFFCURVE",
"90 59 OFFCURVE",
"60 59 CURVE SMOOTH",
"39 59 LINE",
"39 0 LINE"
);
},
{
closed = 1;
nodes = (
"377 279 LINE",
"377 361 LINE",
"297 361 LINE",
"297 279 LINE"
);
}
);
width = 506;
}
);
note = Ldot;
rightKerningGroup = L;
unicode = 013F;
},
{
glyphname = Ldotbelow;
lastChange = "2015-08-01 11:25:25 +0000";
layers = (
{
layerId = "80E8E25D-437F-49DC-8A9F-EB5C20E09398";
name = Light;
paths = (
{
closed = 1;
nodes = (
"497 0 LINE",
"497 121 LINE",
"425 121 LINE",
"425 95 LINE SMOOTH",
"425 69 OFFCURVE",
"415 59 OFFCURVE",
"388 59 CURVE SMOOTH",
"178 59 LINE",
"178 552 LINE SMOOTH",
"178 578 OFFCURVE",
"187 588 OFFCURVE",
"213 588 CURVE SMOOTH",
"237 588 LINE",
"237 647 LINE",
"39 647 LINE",
"39 588 LINE",
"63 588 LINE SMOOTH",
"89 588 OFFCURVE",
"98 578 OFFCURVE",
"98 552 CURVE SMOOTH",
"98 96 LINE SMOOTH",
"98 71 OFFCURVE",
"90 59 OFFCURVE",
"60 59 CURVE SMOOTH",
"39 59 LINE",
"39 0 LINE"
);
},
{
closed = 1;
nodes = (
"299 -145 LINE",
"299 -63 LINE",
"219 -63 LINE",
"219 -145 LINE"
);
}
);
width = 506;
}
);
note = Ldotbelow;
rightKerningGroup = L;
unicode = 1E36;
},
{
glyphname = Ldotbelowmacron;
lastChange = "2015-11-23 16:02:23 +0000";
layers = (
{
layerId = "80E8E25D-437F-49DC-8A9F-EB5C20E09398";
name = Light;
paths = (
{
closed = 1;
nodes = (
"497 0 LINE",
"497 121 LINE",
"425 121 LINE",
"425 95 LINE SMOOTH",
"425 69 OFFCURVE",
"415 59 OFFCURVE",
"388 59 CURVE SMOOTH",
"178 59 LINE",
"178 552 LINE SMOOTH",
"178 578 OFFCURVE",
"187 588 OFFCURVE",
"213 588 CURVE SMOOTH",
"237 588 LINE",
"237 647 LINE",
"39 647 LINE",
"39 588 LINE",
"63 588 LINE SMOOTH",
"89 588 OFFCURVE",
"98 578 OFFCURVE",
"98 552 CURVE SMOOTH",
"98 96 LINE SMOOTH",
"98 71 OFFCURVE",
"90 59 OFFCURVE",
"60 59 CURVE SMOOTH",
"39 59 LINE",
"39 0 LINE"
);
},
{
closed = 1;
nodes = (
"295 -145 LINE",
"295 -63 LINE",
"215 -63 LINE",
"215 -145 LINE"
);
},
{
closed = 1;
nodes = (
"300 719 LINE",
"300 776 LINE",
"20 776 LINE",
"20 719 LINE"
);
}
);
width = 506;
}
);
note = Ldotbelowmacron;
rightKerningGroup = L;
unicode = 1E38;
},
{
glyphname = Llinebelow;
lastChange = "2015-08-01 11:25:25 +0000";
layers = (
{
layerId = "80E8E25D-437F-49DC-8A9F-EB5C20E09398";
name = Light;
paths = (
{
closed = 1;
nodes = (
"497 0 LINE",
"497 121 LINE",
"425 121 LINE",
"425 95 LINE SMOOTH",
"425 69 OFFCURVE",
"415 59 OFFCURVE",
"388 59 CURVE SMOOTH",
"178 59 LINE",
"178 552 LINE SMOOTH",
"178 578 OFFCURVE",
"187 588 OFFCURVE",
"213 588 CURVE SMOOTH",
"237 588 LINE",
"237 647 LINE",
"39 647 LINE",
"39 588 LINE",
"63 588 LINE SMOOTH",
"89 588 OFFCURVE",
"98 578 OFFCURVE",
"98 552 CURVE SMOOTH",
"98 96 LINE SMOOTH",
"98 71 OFFCURVE",
"90 59 OFFCURVE",
"60 59 CURVE SMOOTH",
"39 59 LINE",
"39 0 LINE"
);
},
{
closed = 1;
nodes = (
"401 -127 LINE",
"401 -70 LINE",
"121 -70 LINE",
"121 -127 LINE"
);
}
);
width = 506;
}
);
note = Llinebelow;
rightKerningGroup = L;
unicode = 1E3A;
},
{
glyphname = Lslash;
lastChange = "2015-08-01 11:25:25 +0000";
layers = (
{
layerId = "80E8E25D-437F-49DC-8A9F-EB5C20E09398";
name = Light;
paths = (
{
closed = 1;
nodes = (
"498 0 LINE",
"498 121 LINE",
"426 121 LINE",
"426 95 LINE SMOOTH",
"426 69 OFFCURVE",
"416 59 OFFCURVE",
"389 59 CURVE SMOOTH",
"179 59 LINE",
"179 282 LINE",
"299 352 LINE",
"299 418 LINE",
"179 348 LINE",
"179 552 LINE SMOOTH",
"179 578 OFFCURVE",
"188 588 OFFCURVE",
"214 588 CURVE SMOOTH",
"238 588 LINE",
"238 647 LINE",
"40 647 LINE",
"40 588 LINE",
"64 588 LINE SMOOTH",
"90 588 OFFCURVE",
"99 578 OFFCURVE",
"99 552 CURVE SMOOTH",
"99 302 LINE",
"39 268 LINE",
"39 202 LINE",
"99 236 LINE",
"99 96 LINE SMOOTH",
"99 71 OFFCURVE",
"91 59 OFFCURVE",
"61 59 CURVE SMOOTH",
"40 59 LINE",
"40 0 LINE"
);
}
);
width = 507;
}
);
note = Lslash;
rightKerningGroup = L;
unicode = 0141;
},
{
glyphname = M;
lastChange = "2015-08-01 11:25:16 +0000";
layers = (
{
layerId = "80E8E25D-437F-49DC-8A9F-EB5C20E09398";
name = Light;
paths = (
{
closed = 1;
nodes = (
"253 0 LINE",
"253 59 LINE",
"220 59 LINE SMOOTH",
"195 59 OFFCURVE",
"185 69 OFFCURVE",
"185 95 CURVE SMOOTH",
"185 518 LINE",
"355 119 LINE",
"420 119 LINE",
"590 518 LINE",
"590 95 LINE SMOOTH",
"590 69 OFFCURVE",
"580 59 OFFCURVE",
"555 59 CURVE SMOOTH",
"522 59 LINE",
"522 0 LINE",
"736 0 LINE",
"736 59 LINE",
"704 59 LINE SMOOTH",
"678 59 OFFCURVE",
"669 69 OFFCURVE",
"669 96 CURVE SMOOTH",
"669 551 LINE SMOOTH",
"669 578 OFFCURVE",
"678 588 OFFCURVE",
"704 588 CURVE SMOOTH",
"736 588 LINE",
"736 647 LINE",
"578 647 LINE",
"388 200 LINE",
"197 647 LINE",
"39 647 LINE",
"39 588 LINE",
"71 588 LINE SMOOTH",
"97 588 OFFCURVE",
"106 578 OFFCURVE",
"106 551 CURVE SMOOTH",
"106 96 LINE SMOOTH",
"106 69 OFFCURVE",
"97 59 OFFCURVE",
"71 59 CURVE SMOOTH",
"39 59 LINE",
"39 0 LINE"
);
}
);
width = 775;
}
);
note = M;
unicode = 004D;
},
{
glyphname = Mdotbelow;
lastChange = "2015-08-01 11:25:26 +0000";
layers = (
{
layerId = "80E8E25D-437F-49DC-8A9F-EB5C20E09398";
name = Light;
paths = (
{
closed = 1;
nodes = (
"253 0 LINE",
"253 59 LINE",
"220 59 LINE SMOOTH",
"195 59 OFFCURVE",
"185 69 OFFCURVE",
"185 95 CURVE SMOOTH",
"185 518 LINE",
"355 119 LINE",
"420 119 LINE",
"590 518 LINE",
"590 95 LINE SMOOTH",
"590 69 OFFCURVE",
"580 59 OFFCURVE",
"555 59 CURVE SMOOTH",
"522 59 LINE",
"522 0 LINE",
"736 0 LINE",
"736 59 LINE",
"704 59 LINE SMOOTH",
"678 59 OFFCURVE",
"669 69 OFFCURVE",
"669 96 CURVE SMOOTH",
"669 551 LINE SMOOTH",
"669 578 OFFCURVE",
"678 588 OFFCURVE",
"704 588 CURVE SMOOTH",
"736 588 LINE",
"736 647 LINE",
"578 647 LINE",
"388 200 LINE",
"197 647 LINE",
"39 647 LINE",
"39 588 LINE",
"71 588 LINE SMOOTH",
"97 588 OFFCURVE",
"106 578 OFFCURVE",
"106 551 CURVE SMOOTH",
"106 96 LINE SMOOTH",
"106 69 OFFCURVE",
"97 59 OFFCURVE",
"71 59 CURVE SMOOTH",
"39 59 LINE",
"39 0 LINE"
);
},
{
closed = 1;
nodes = (
"428 -145 LINE",
"428 -63 LINE",
"348 -63 LINE",
"348 -145 LINE"
);
}
);
width = 775;
}
);
note = Mdotbelow;
unicode = 1E42;
},
{
glyphname = N;
lastChange = "2015-08-01 11:25:16 +0000";
layers = (
{
layerId = "80E8E25D-437F-49DC-8A9F-EB5C20E09398";
name = Light;
paths = (
{
closed = 1;
nodes = (
"253 0 LINE",
"253 59 LINE",
"221 59 LINE SMOOTH",
"195 59 OFFCURVE",
"185 69 OFFCURVE",
"185 95 CURVE SMOOTH",
"185 512 LINE",
"516 0 LINE",
"582 0 LINE",
"582 552 LINE SMOOTH",
"582 578 OFFCURVE",
"591 588 OFFCURVE",
"617 588 CURVE SMOOTH",
"649 588 LINE",
"649 647 LINE",
"435 647 LINE",
"435 588 LINE",
"467 588 LINE SMOOTH",
"493 588 OFFCURVE",
"503 578 OFFCURVE",
"503 552 CURVE SMOOTH",
"503 134 LINE",
"172 647 LINE",
"39 647 LINE",
"39 588 LINE",
"71 588 LINE SMOOTH",
"97 588 OFFCURVE",
"106 578 OFFCURVE",
"106 552 CURVE SMOOTH",
"106 95 LINE SMOOTH",
"106 69 OFFCURVE",
"97 59 OFFCURVE",
"71 59 CURVE SMOOTH",
"39 59 LINE",
"39 0 LINE"
);
}
);
width = 688;
}
);
note = N;
unicode = 004E;
},
{
glyphname = Nacute;
lastChange = "2015-08-01 11:25:26 +0000";
layers = (
{
layerId = "80E8E25D-437F-49DC-8A9F-EB5C20E09398";
name = Light;
paths = (
{
closed = 1;
nodes = (
"253 0 LINE",
"253 59 LINE",
"221 59 LINE SMOOTH",
"195 59 OFFCURVE",
"185 69 OFFCURVE",
"185 95 CURVE SMOOTH",
"185 512 LINE",
"516 0 LINE",
"582 0 LINE",
"582 552 LINE SMOOTH",
"582 578 OFFCURVE",
"591 588 OFFCURVE",
"617 588 CURVE SMOOTH",
"649 588 LINE",
"649 647 LINE",
"435 647 LINE",
"435 588 LINE",
"467 588 LINE SMOOTH",
"493 588 OFFCURVE",
"503 578 OFFCURVE",
"503 552 CURVE SMOOTH",
"503 134 LINE",
"172 647 LINE",
"39 647 LINE",
"39 588 LINE",
"71 588 LINE SMOOTH",
"97 588 OFFCURVE",
"106 578 OFFCURVE",
"106 552 CURVE SMOOTH",
"106 95 LINE SMOOTH",
"106 69 OFFCURVE",
"97 59 OFFCURVE",
"71 59 CURVE SMOOTH",
"39 59 LINE",
"39 0 LINE"
);
},
{
closed = 1;
nodes = (
"357 701 LINE",
"472 880 LINE",
"370 880 LINE",
"287 701 LINE"
);
}
);
width = 688;
}
);
note = Nacute;
unicode = 0143;
},
{
glyphname = Ncaron;
lastChange = "2015-08-01 11:25:24 +0000";
layers = (
{
layerId = "80E8E25D-437F-49DC-8A9F-EB5C20E09398";
name = Light;
paths = (
{
closed = 1;
nodes = (
"253 0 LINE",
"253 59 LINE",
"221 59 LINE SMOOTH",
"195 59 OFFCURVE",
"185 69 OFFCURVE",
"185 95 CURVE SMOOTH",
"185 512 LINE",
"516 0 LINE",
"582 0 LINE",
"582 552 LINE SMOOTH",
"582 578 OFFCURVE",
"591 588 OFFCURVE",
"617 588 CURVE SMOOTH",
"649 588 LINE",
"649 647 LINE",
"435 647 LINE",
"435 588 LINE",
"467 588 LINE SMOOTH",
"493 588 OFFCURVE",
"503 578 OFFCURVE",
"503 552 CURVE SMOOTH",
"503 134 LINE",
"172 647 LINE",
"39 647 LINE",
"39 588 LINE",
"71 588 LINE SMOOTH",
"97 588 OFFCURVE",
"106 578 OFFCURVE",
"106 552 CURVE SMOOTH",
"106 95 LINE SMOOTH",
"106 69 OFFCURVE",
"97 59 OFFCURVE",
"71 59 CURVE SMOOTH",
"39 59 LINE",
"39 0 LINE"
);
},
{
closed = 1;
nodes = (
"378 702 LINE",
"498 885 LINE",
"419 885 LINE",
"335 752 LINE",
"251 885 LINE",
"172 885 LINE",
"292 702 LINE"
);
}
);
width = 688;
}
);
note = Ncaron;
unicode = 0147;
},
{
glyphname = Ncommaaccent;
lastChange = "2015-08-01 11:25:25 +0000";
layers = (
{
layerId = "80E8E25D-437F-49DC-8A9F-EB5C20E09398";
name = Light;
paths = (
{
closed = 1;
nodes = (
"253 0 LINE",
"253 59 LINE",
"221 59 LINE SMOOTH",
"195 59 OFFCURVE",
"185 69 OFFCURVE",
"185 95 CURVE SMOOTH",
"185 512 LINE",
"516 0 LINE",
"582 0 LINE",
"582 552 LINE SMOOTH",
"582 578 OFFCURVE",
"591 588 OFFCURVE",
"617 588 CURVE SMOOTH",
"649 588 LINE",
"649 647 LINE",
"435 647 LINE",
"435 588 LINE",
"467 588 LINE SMOOTH",
"493 588 OFFCURVE",
"503 578 OFFCURVE",
"503 552 CURVE SMOOTH",
"503 134 LINE",
"172 647 LINE",
"39 647 LINE",
"39 588 LINE",
"71 588 LINE SMOOTH",
"97 588 OFFCURVE",
"106 578 OFFCURVE",
"106 552 CURVE SMOOTH",
"106 95 LINE SMOOTH",
"106 69 OFFCURVE",
"97 59 OFFCURVE",
"71 59 CURVE SMOOTH",
"39 59 LINE",
"39 0 LINE"
);
},
{
closed = 1;
nodes = (
"340 -244 LINE",
"399 -49 LINE",
"307 -49 LINE",
"278 -244 LINE"
);
}
);
width = 688;
}
);
note = Ncommaaccent;
unicode = 0145;
},
{
glyphname = Ndotaccent;
lastChange = "2015-08-01 11:25:24 +0000";
layers = (
{
layerId = "80E8E25D-437F-49DC-8A9F-EB5C20E09398";
name = Light;
paths = (
{
closed = 1;
nodes = (
"253 0 LINE",
"253 59 LINE",
"221 59 LINE SMOOTH",
"195 59 OFFCURVE",
"185 69 OFFCURVE",
"185 95 CURVE SMOOTH",
"185 512 LINE",
"516 0 LINE",
"582 0 LINE",
"582 552 LINE SMOOTH",
"582 578 OFFCURVE",
"591 588 OFFCURVE",
"617 588 CURVE SMOOTH",
"649 588 LINE",
"649 647 LINE",
"435 647 LINE",
"435 588 LINE",
"467 588 LINE SMOOTH",
"493 588 OFFCURVE",
"503 578 OFFCURVE",
"503 552 CURVE SMOOTH",
"503 134 LINE",
"172 647 LINE",
"39 647 LINE",
"39 588 LINE",
"71 588 LINE SMOOTH",
"97 588 OFFCURVE",
"106 578 OFFCURVE",
"106 552 CURVE SMOOTH",
"106 95 LINE SMOOTH",
"106 69 OFFCURVE",
"97 59 OFFCURVE",
"71 59 CURVE SMOOTH",
"39 59 LINE",
"39 0 LINE"
);
},
{
closed = 1;
nodes = (
"385 721 LINE",
"385 803 LINE",
"305 803 LINE",
"305 721 LINE"
);
}
);
width = 688;
}
);
note = Ndotaccent;
unicode = 1E44;
},
{
glyphname = Ndotbelow;
lastChange = "2015-08-01 11:25:25 +0000";
layers = (
{
layerId = "80E8E25D-437F-49DC-8A9F-EB5C20E09398";
name = Light;
paths = (
{
closed = 1;
nodes = (
"253 0 LINE",
"253 59 LINE",
"221 59 LINE SMOOTH",
"195 59 OFFCURVE",
"185 69 OFFCURVE",
"185 95 CURVE SMOOTH",
"185 512 LINE",
"516 0 LINE",
"582 0 LINE",
"582 552 LINE SMOOTH",
"582 578 OFFCURVE",
"591 588 OFFCURVE",
"617 588 CURVE SMOOTH",
"649 588 LINE",
"649 647 LINE",
"435 647 LINE",
"435 588 LINE",
"467 588 LINE SMOOTH",
"493 588 OFFCURVE",
"503 578 OFFCURVE",
"503 552 CURVE SMOOTH",
"503 134 LINE",
"172 647 LINE",
"39 647 LINE",
"39 588 LINE",
"71 588 LINE SMOOTH",
"97 588 OFFCURVE",
"106 578 OFFCURVE",
"106 552 CURVE SMOOTH",
"106 95 LINE SMOOTH",
"106 69 OFFCURVE",
"97 59 OFFCURVE",
"71 59 CURVE SMOOTH",
"39 59 LINE",
"39 0 LINE"
);
},
{
closed = 1;
nodes = (
"392 -145 LINE",
"392 -63 LINE",
"312 -63 LINE",
"312 -145 LINE"
);
}
);
width = 688;
}
);
note = Ndotbelow;
unicode = 1E46;
},
{
glyphname = Eng;
lastChange = "2015-08-01 11:25:19 +0000";
layers = (
{
layerId = "80E8E25D-437F-49DC-8A9F-EB5C20E09398";
name = Light;
paths = (
{
closed = 1;
nodes = (
"522 -285 OFFCURVE",
"582 -229 OFFCURVE",
"582 -113 CURVE SMOOTH",
"582 552 LINE SMOOTH",
"582 578 OFFCURVE",
"591 588 OFFCURVE",
"617 588 CURVE SMOOTH",
"649 588 LINE",
"649 647 LINE",
"435 647 LINE",
"435 588 LINE",
"467 588 LINE SMOOTH",
"493 588 OFFCURVE",
"503 578 OFFCURVE",
"503 552 CURVE SMOOTH",
"503 134 LINE",
"172 647 LINE",
"39 647 LINE",
"39 588 LINE",
"71 588 LINE SMOOTH",
"97 588 OFFCURVE",
"106 578 OFFCURVE",
"106 552 CURVE SMOOTH",
"106 95 LINE SMOOTH",
"106 69 OFFCURVE",
"97 59 OFFCURVE",
"71 59 CURVE SMOOTH",
"39 59 LINE",
"39 0 LINE",
"253 0 LINE",
"253 59 LINE",
"221 59 LINE SMOOTH",
"195 59 OFFCURVE",
"185 69 OFFCURVE",
"185 95 CURVE SMOOTH",
"185 512 LINE",
"502 21 LINE",
"502 -121 LINE SMOOTH",
"502 -199 OFFCURVE",
"472 -225 OFFCURVE",
"414 -225 CURVE SMOOTH",
"380 -225 OFFCURVE",
"356 -220 OFFCURVE",
"333 -197 CURVE",
"333 -153 LINE",
"262 -153 LINE",
"262 -227 LINE",
"304 -267 OFFCURVE",
"350 -285 OFFCURVE",
"419 -285 CURVE SMOOTH"
);
}
);
width = 688;
}
);
note = Eng;
unicode = 014A;
},
{
glyphname = Nlinebelow;
lastChange = "2015-08-01 11:25:25 +0000";
layers = (
{
layerId = "80E8E25D-437F-49DC-8A9F-EB5C20E09398";
name = Light;
paths = (
{
closed = 1;
nodes = (
"253 0 LINE",
"253 59 LINE",
"221 59 LINE SMOOTH",
"195 59 OFFCURVE",
"185 69 OFFCURVE",
"185 95 CURVE SMOOTH",
"185 512 LINE",
"516 0 LINE",
"582 0 LINE",
"582 552 LINE SMOOTH",
"582 578 OFFCURVE",
"591 588 OFFCURVE",
"617 588 CURVE SMOOTH",
"649 588 LINE",
"649 647 LINE",
"435 647 LINE",
"435 588 LINE",
"467 588 LINE SMOOTH",
"493 588 OFFCURVE",
"503 578 OFFCURVE",
"503 552 CURVE SMOOTH",
"503 134 LINE",
"172 647 LINE",
"39 647 LINE",
"39 588 LINE",
"71 588 LINE SMOOTH",
"97 588 OFFCURVE",
"106 578 OFFCURVE",
"106 552 CURVE SMOOTH",
"106 95 LINE SMOOTH",
"106 69 OFFCURVE",
"97 59 OFFCURVE",
"71 59 CURVE SMOOTH",
"39 59 LINE",
"39 0 LINE"
);
},
{
closed = 1;
nodes = (
"481 -127 LINE",
"481 -70 LINE",
"201 -70 LINE",
"201 -127 LINE"
);
}
);
width = 688;
}
);
note = Nlinebelow;
unicode = 1E48;
},
{
glyphname = Ntilde;
lastChange = "2015-08-01 11:25:25 +0000";
layers = (
{
layerId = "80E8E25D-437F-49DC-8A9F-EB5C20E09398";
name = Light;
paths = (
{
closed = 1;
nodes = (
"253 0 LINE",
"253 59 LINE",
"221 59 LINE SMOOTH",
"195 59 OFFCURVE",
"185 69 OFFCURVE",
"185 95 CURVE SMOOTH",
"185 512 LINE",
"516 0 LINE",
"582 0 LINE",
"582 552 LINE SMOOTH",
"582 578 OFFCURVE",
"591 588 OFFCURVE",
"617 588 CURVE SMOOTH",
"649 588 LINE",
"649 647 LINE",
"435 647 LINE",
"435 588 LINE",
"467 588 LINE SMOOTH",
"493 588 OFFCURVE",
"503 578 OFFCURVE",
"503 552 CURVE SMOOTH",
"503 134 LINE",
"172 647 LINE",
"39 647 LINE",
"39 588 LINE",
"71 588 LINE SMOOTH",
"97 588 OFFCURVE",
"106 578 OFFCURVE",
"106 552 CURVE SMOOTH",
"106 95 LINE SMOOTH",
"106 69 OFFCURVE",
"97 59 OFFCURVE",
"71 59 CURVE SMOOTH",
"39 59 LINE",
"39 0 LINE"
);
},
{
closed = 1;
nodes = (
"222 702 LINE",
"222 747 OFFCURVE",
"238 758 OFFCURVE",
"267 758 CURVE SMOOTH",
"323 758 OFFCURVE",
"362 702 OFFCURVE",
"430 702 CURVE SMOOTH",
"496 702 OFFCURVE",
"530 738 OFFCURVE",
"530 823 CURVE",
"467 823 LINE",
"467 778 OFFCURVE",
"452 766 OFFCURVE",
"423 766 CURVE SMOOTH",
"372 766 OFFCURVE",
"331 823 OFFCURVE",
"260 823 CURVE SMOOTH",
"194 823 OFFCURVE",
"159 786 OFFCURVE",
"159 702 CURVE"
);
}
);
width = 688;
}
);
note = Ntilde;
unicode = 00D1;
},
{
glyphname = O;
lastChange = "2015-08-01 11:25:26 +0000";
layers = (
{
layerId = "80E8E25D-437F-49DC-8A9F-EB5C20E09398";
name = Light;
paths = (
{
closed = 1;
nodes = (
"524 -15 OFFCURVE",
"616 97 OFFCURVE",
"616 321 CURVE SMOOTH",
"616 545 OFFCURVE",
"531 662 OFFCURVE",
"328 662 CURVE SMOOTH",
"124 662 OFFCURVE",
"39 545 OFFCURVE",
"39 321 CURVE SMOOTH",
"39 97 OFFCURVE",
"131 -15 OFFCURVE",
"328 -15 CURVE SMOOTH"
);
},
{
closed = 1;
nodes = (
"190 45 OFFCURVE",
"116 120 OFFCURVE",
"116 321 CURVE SMOOTH",
"116 526 OFFCURVE",
"188 602 OFFCURVE",
"328 602 CURVE SMOOTH",
"467 602 OFFCURVE",
"539 526 OFFCURVE",
"539 321 CURVE SMOOTH",
"539 120 OFFCURVE",
"465 45 OFFCURVE",
"328 45 CURVE SMOOTH"
);
}
);
width = 655;
}
);
leftKerningGroup = O;
note = O;
rightKerningGroup = O;
unicode = 004F;
},
{
glyphname = Oacute;
lastChange = "2015-08-01 11:25:24 +0000";
layers = (
{
layerId = "80E8E25D-437F-49DC-8A9F-EB5C20E09398";
name = Light;
paths = (
{
closed = 1;
nodes = (
"524 -15 OFFCURVE",
"616 97 OFFCURVE",
"616 321 CURVE SMOOTH",
"616 545 OFFCURVE",
"531 662 OFFCURVE",
"328 662 CURVE SMOOTH",
"124 662 OFFCURVE",
"39 545 OFFCURVE",
"39 321 CURVE SMOOTH",
"39 97 OFFCURVE",
"131 -15 OFFCURVE",
"328 -15 CURVE SMOOTH"
);
},
{
closed = 1;
nodes = (
"190 45 OFFCURVE",
"116 120 OFFCURVE",
"116 321 CURVE SMOOTH",
"116 526 OFFCURVE",
"188 602 OFFCURVE",
"328 602 CURVE SMOOTH",
"467 602 OFFCURVE",
"539 526 OFFCURVE",
"539 321 CURVE SMOOTH",
"539 120 OFFCURVE",
"465 45 OFFCURVE",
"328 45 CURVE SMOOTH"
);
},
{
closed = 1;
nodes = (
"343 701 LINE",
"458 880 LINE",
"356 880 LINE",
"273 701 LINE"
);
}
);
width = 655;
}
);
leftKerningGroup = O;
note = Oacute;
rightKerningGroup = O;
unicode = 00D3;
},
{
glyphname = Obreve;
lastChange = "2015-08-01 11:25:25 +0000";
layers = (
{
layerId = "80E8E25D-437F-49DC-8A9F-EB5C20E09398";
name = Light;
paths = (
{
closed = 1;
nodes = (
"524 -15 OFFCURVE",
"616 97 OFFCURVE",
"616 321 CURVE SMOOTH",
"616 545 OFFCURVE",
"531 662 OFFCURVE",
"328 662 CURVE SMOOTH",
"124 662 OFFCURVE",
"39 545 OFFCURVE",
"39 321 CURVE SMOOTH",
"39 97 OFFCURVE",
"131 -15 OFFCURVE",
"328 -15 CURVE SMOOTH"
);
},
{
closed = 1;
nodes = (
"190 45 OFFCURVE",
"116 120 OFFCURVE",
"116 321 CURVE SMOOTH",
"116 526 OFFCURVE",
"188 602 OFFCURVE",
"328 602 CURVE SMOOTH",
"467 602 OFFCURVE",
"539 526 OFFCURVE",
"539 321 CURVE SMOOTH",
"539 120 OFFCURVE",
"465 45 OFFCURVE",
"328 45 CURVE SMOOTH"
);
},
{
closed = 1;
nodes = (
"415 701 OFFCURVE",
"476 754 OFFCURVE",
"476 838 CURVE",
"411 838 LINE",
"411 785 OFFCURVE",
"379 757 OFFCURVE",
"327 757 CURVE SMOOTH",
"276 757 OFFCURVE",
"242 785 OFFCURVE",
"242 838 CURVE",
"177 838 LINE",
"177 754 OFFCURVE",
"238 701 OFFCURVE",
"327 701 CURVE SMOOTH"
);
}
);
width = 655;
}
);
leftKerningGroup = O;
note = Obreve;
rightKerningGroup = O;
unicode = 014E;
},
{
glyphname = Ocaron;
lastChange = "2015-08-01 11:25:25 +0000";
layers = (
{
layerId = "80E8E25D-437F-49DC-8A9F-EB5C20E09398";
name = Light;
paths = (
{
closed = 1;
nodes = (
"524 -15 OFFCURVE",
"616 97 OFFCURVE",
"616 321 CURVE SMOOTH",
"616 545 OFFCURVE",
"531 662 OFFCURVE",
"328 662 CURVE SMOOTH",
"124 662 OFFCURVE",
"39 545 OFFCURVE",
"39 321 CURVE SMOOTH",
"39 97 OFFCURVE",
"131 -15 OFFCURVE",
"328 -15 CURVE SMOOTH"
);
},
{
closed = 1;
nodes = (
"190 45 OFFCURVE",
"116 120 OFFCURVE",
"116 321 CURVE SMOOTH",
"116 526 OFFCURVE",
"188 602 OFFCURVE",
"328 602 CURVE SMOOTH",
"467 602 OFFCURVE",
"539 526 OFFCURVE",
"539 321 CURVE SMOOTH",
"539 120 OFFCURVE",
"465 45 OFFCURVE",
"328 45 CURVE SMOOTH"
);
},
{
closed = 1;
nodes = (
"370 702 LINE",
"490 885 LINE",
"411 885 LINE",
"327 752 LINE",
"243 885 LINE",
"164 885 LINE",
"284 702 LINE"
);
}
);
width = 655;
}
);
leftKerningGroup = O;
note = Ocaron;
rightKerningGroup = O;
unicode = 01D1;
},
{
glyphname = Ocircumflex;
lastChange = "2015-08-01 11:25:26 +0000";
layers = (
{
layerId = "80E8E25D-437F-49DC-8A9F-EB5C20E09398";
name = Light;
paths = (
{
closed = 1;
nodes = (
"524 -15 OFFCURVE",
"616 97 OFFCURVE",
"616 321 CURVE SMOOTH",
"616 545 OFFCURVE",
"531 662 OFFCURVE",
"328 662 CURVE SMOOTH",
"124 662 OFFCURVE",
"39 545 OFFCURVE",
"39 321 CURVE SMOOTH",
"39 97 OFFCURVE",
"131 -15 OFFCURVE",
"328 -15 CURVE SMOOTH"
);
},
{
closed = 1;
nodes = (
"190 45 OFFCURVE",
"116 120 OFFCURVE",
"116 321 CURVE SMOOTH",
"116 526 OFFCURVE",
"188 602 OFFCURVE",
"328 602 CURVE SMOOTH",
"467 602 OFFCURVE",
"539 526 OFFCURVE",
"539 321 CURVE SMOOTH",
"539 120 OFFCURVE",
"465 45 OFFCURVE",
"328 45 CURVE SMOOTH"
);
},
{
closed = 1;
nodes = (
"243 702 LINE",
"327 834 LINE",
"411 702 LINE",
"490 702 LINE",
"370 885 LINE",
"284 885 LINE",
"164 702 LINE"
);
}
);
width = 655;
}
);
leftKerningGroup = O;
note = Ocircumflex;
rightKerningGroup = O;
unicode = 00D4;
},
{
glyphname = Ocircumflexacute;
lastChange = "2015-08-01 11:25:24 +0000";
layers = (
{
layerId = "80E8E25D-437F-49DC-8A9F-EB5C20E09398";
name = Light;
paths = (
{
closed = 1;
nodes = (
"524 -15 OFFCURVE",
"616 97 OFFCURVE",
"616 321 CURVE SMOOTH",
"616 545 OFFCURVE",
"531 662 OFFCURVE",
"328 662 CURVE SMOOTH",
"124 662 OFFCURVE",
"39 545 OFFCURVE",
"39 321 CURVE SMOOTH",
"39 97 OFFCURVE",
"131 -15 OFFCURVE",
"328 -15 CURVE SMOOTH"
);
},
{
closed = 1;
nodes = (
"190 45 OFFCURVE",
"116 120 OFFCURVE",
"116 321 CURVE SMOOTH",
"116 526 OFFCURVE",
"188 602 OFFCURVE",
"328 602 CURVE SMOOTH",
"467 602 OFFCURVE",
"539 526 OFFCURVE",
"539 321 CURVE SMOOTH",
"539 120 OFFCURVE",
"465 45 OFFCURVE",
"328 45 CURVE SMOOTH"
);
},
{
closed = 1;
nodes = (
"258 702 LINE",
"328 794 LINE",
"397 702 LINE",
"474 702 LINE",
"370 833 LINE",
"286 833 LINE",
"182 702 LINE"
);
},
{
closed = 1;
nodes = (
"485 809 LINE",
"581 930 LINE",
"485 930 LINE",
"422 809 LINE"
);
}
);
width = 655;
}
);
leftKerningGroup = O;
note = Ocircumflexacute;
rightKerningGroup = O;
unicode = 1ED0;
},
{
glyphname = Ocircumflexdotbelow;
lastChange = "2015-08-01 11:25:24 +0000";
layers = (
{
layerId = "80E8E25D-437F-49DC-8A9F-EB5C20E09398";
name = Light;
paths = (
{
closed = 1;
nodes = (
"524 -15 OFFCURVE",
"616 97 OFFCURVE",
"616 321 CURVE SMOOTH",
"616 545 OFFCURVE",
"531 662 OFFCURVE",
"328 662 CURVE SMOOTH",
"124 662 OFFCURVE",
"39 545 OFFCURVE",
"39 321 CURVE SMOOTH",
"39 97 OFFCURVE",
"131 -15 OFFCURVE",
"328 -15 CURVE SMOOTH"
);
},
{
closed = 1;
nodes = (
"367 -145 LINE",
"367 -63 LINE",
"287 -63 LINE",
"287 -145 LINE"
);
},
{
closed = 1;
nodes = (
"190 45 OFFCURVE",
"116 120 OFFCURVE",
"116 321 CURVE SMOOTH",
"116 526 OFFCURVE",
"188 602 OFFCURVE",
"328 602 CURVE SMOOTH",
"467 602 OFFCURVE",
"539 526 OFFCURVE",
"539 321 CURVE SMOOTH",
"539 120 OFFCURVE",
"465 45 OFFCURVE",
"328 45 CURVE SMOOTH"
);
},
{
closed = 1;
nodes = (
"243 702 LINE",
"327 834 LINE",
"411 702 LINE",
"490 702 LINE",
"370 885 LINE",
"284 885 LINE",
"164 702 LINE"
);
}
);
width = 655;
}
);
leftKerningGroup = O;
note = Ocircumflexdotbelow;
rightKerningGroup = O;
unicode = 1ED8;
},
{
glyphname = Ocircumflexgrave;
lastChange = "2015-08-01 11:25:24 +0000";
layers = (
{
layerId = "80E8E25D-437F-49DC-8A9F-EB5C20E09398";
name = Light;
paths = (
{
closed = 1;
nodes = (
"524 -15 OFFCURVE",
"616 97 OFFCURVE",
"616 321 CURVE SMOOTH",
"616 545 OFFCURVE",
"531 662 OFFCURVE",
"328 662 CURVE SMOOTH",
"124 662 OFFCURVE",
"39 545 OFFCURVE",
"39 321 CURVE SMOOTH",
"39 97 OFFCURVE",
"131 -15 OFFCURVE",
"328 -15 CURVE SMOOTH"
);
},
{
closed = 1;
nodes = (
"190 45 OFFCURVE",
"116 120 OFFCURVE",
"116 321 CURVE SMOOTH",
"116 526 OFFCURVE",
"188 602 OFFCURVE",
"328 602 CURVE SMOOTH",
"467 602 OFFCURVE",
"539 526 OFFCURVE",
"539 321 CURVE SMOOTH",
"539 120 OFFCURVE",
"465 45 OFFCURVE",
"328 45 CURVE SMOOTH"
);
},
{
closed = 1;
nodes = (
"225 809 LINE",
"162 930 LINE",
"66 930 LINE",
"162 809 LINE"
);
},
{
closed = 1;
nodes = (
"250 702 LINE",
"320 794 LINE",
"390 702 LINE",
"465 702 LINE",
"362 833 LINE",
"277 833 LINE",
"174 702 LINE"
);
}
);
width = 655;
}
);
leftKerningGroup = O;
note = Ocircumflexgrave;
rightKerningGroup = O;
unicode = 1ED2;
},
{
glyphname = Ocircumflexhookabove;
lastChange = "2015-08-01 11:25:25 +0000";
layers = (
{
layerId = "80E8E25D-437F-49DC-8A9F-EB5C20E09398";
name = Light;
paths = (
{
closed = 1;
nodes = (
"524 -15 OFFCURVE",
"616 97 OFFCURVE",
"616 321 CURVE SMOOTH",
"616 545 OFFCURVE",
"531 662 OFFCURVE",
"328 662 CURVE SMOOTH",
"124 662 OFFCURVE",
"39 545 OFFCURVE",
"39 321 CURVE SMOOTH",
"39 97 OFFCURVE",
"131 -15 OFFCURVE",
"328 -15 CURVE SMOOTH"
);
},
{
closed = 1;
nodes = (
"190 45 OFFCURVE",
"116 120 OFFCURVE",
"116 321 CURVE SMOOTH",
"116 526 OFFCURVE",
"188 602 OFFCURVE",
"328 602 CURVE SMOOTH",
"467 602 OFFCURVE",
"539 526 OFFCURVE",
"539 321 CURVE SMOOTH",
"539 120 OFFCURVE",
"465 45 OFFCURVE",
"328 45 CURVE SMOOTH"
);
},
{
closed = 1;
nodes = (
"251 702 LINE",
"320 794 LINE",
"390 702 LINE",
"466 702 LINE",
"363 833 LINE",
"278 833 LINE",
"175 702 LINE"
);
},
{
closed = 1;
nodes = (
"451 822 LINE",
"451 845 LINE",
"497 852 OFFCURVE",
"516 872 OFFCURVE",
"516 911 CURVE SMOOTH",
"516 955 OFFCURVE",
"491 982 OFFCURVE",
"435 982 CURVE SMOOTH",
"413 982 OFFCURVE",
"390 978 OFFCURVE",
"377 973 CURVE",
"377 927 LINE",
"389 931 OFFCURVE",
"405 935 OFFCURVE",
"421 935 CURVE SMOOTH",
"443 935 OFFCURVE",
"458 927 OFFCURVE",
"458 907 CURVE SMOOTH",
"458 879 OFFCURVE",
"445 871 OFFCURVE",
"394 871 CURVE",
"394 822 LINE"
);
}
);
width = 655;
}
);
leftKerningGroup = O;
note = Ocircumflexhookabove;
rightKerningGroup = O;
unicode = 1ED4;
},
{
glyphname = Ocircumflextilde;
lastChange = "2015-08-01 11:25:24 +0000";
layers = (
{
layerId = "80E8E25D-437F-49DC-8A9F-EB5C20E09398";
name = Light;
paths = (
{
closed = 1;
nodes = (
"524 -15 OFFCURVE",
"616 97 OFFCURVE",
"616 321 CURVE SMOOTH",
"616 545 OFFCURVE",
"531 662 OFFCURVE",
"328 662 CURVE SMOOTH",
"124 662 OFFCURVE",
"39 545 OFFCURVE",
"39 321 CURVE SMOOTH",
"39 97 OFFCURVE",
"131 -15 OFFCURVE",
"328 -15 CURVE SMOOTH"
);
},
{
closed = 1;
nodes = (
"190 45 OFFCURVE",
"116 120 OFFCURVE",
"116 321 CURVE SMOOTH",
"116 526 OFFCURVE",
"188 602 OFFCURVE",
"328 602 CURVE SMOOTH",
"467 602 OFFCURVE",
"539 526 OFFCURVE",
"539 321 CURVE SMOOTH",
"539 120 OFFCURVE",
"465 45 OFFCURVE",
"328 45 CURVE SMOOTH"
);
},
{
closed = 1;
nodes = (
"415 701 OFFCURVE",
"481 754 OFFCURVE",
"481 841 CURVE",
"422 841 LINE",
"422 786 OFFCURVE",
"386 755 OFFCURVE",
"329 755 CURVE SMOOTH",
"272 755 OFFCURVE",
"236 786 OFFCURVE",
"236 841 CURVE",
"177 841 LINE",
"177 754 OFFCURVE",
"243 701 OFFCURVE",
"329 701 CURVE SMOOTH"
);
},
{
closed = 1;
nodes = (
"447 878 OFFCURVE",
"474 903 OFFCURVE",
"474 975 CURVE",
"421 975 LINE",
"421 946 OFFCURVE",
"414 930 OFFCURVE",
"391 930 CURVE SMOOTH",
"354 930 OFFCURVE",
"314 976 OFFCURVE",
"263 976 CURVE SMOOTH",
"211 976 OFFCURVE",
"182 952 OFFCURVE",
"182 879 CURVE",
"235 879 LINE",
"235 908 OFFCURVE",
"242 924 OFFCURVE",
"266 924 CURVE SMOOTH",
"303 924 OFFCURVE",
"345 878 OFFCURVE",
"395 878 CURVE SMOOTH"
);
}
);
width = 655;
}
);
leftKerningGroup = O;
note = Ocircumflextilde;
rightKerningGroup = O;
unicode = 1ED6;
},
{
glyphname = Odieresis;
lastChange = "2015-08-01 11:25:25 +0000";
layers = (
{
layerId = "80E8E25D-437F-49DC-8A9F-EB5C20E09398";
name = Light;
paths = (
{
closed = 1;
nodes = (
"524 -15 OFFCURVE",
"616 97 OFFCURVE",
"616 321 CURVE SMOOTH",
"616 545 OFFCURVE",
"531 662 OFFCURVE",
"328 662 CURVE SMOOTH",
"124 662 OFFCURVE",
"39 545 OFFCURVE",
"39 321 CURVE SMOOTH",
"39 97 OFFCURVE",
"131 -15 OFFCURVE",
"328 -15 CURVE SMOOTH"
);
},
{
closed = 1;
nodes = (
"190 45 OFFCURVE",
"116 120 OFFCURVE",
"116 321 CURVE SMOOTH",
"116 526 OFFCURVE",
"188 602 OFFCURVE",
"328 602 CURVE SMOOTH",
"467 602 OFFCURVE",
"539 526 OFFCURVE",
"539 321 CURVE SMOOTH",
"539 120 OFFCURVE",
"465 45 OFFCURVE",
"328 45 CURVE SMOOTH"
);
},
{
closed = 1;
nodes = (
"267 721 LINE",
"267 803 LINE",
"187 803 LINE",
"187 721 LINE"
);
},
{
closed = 1;
nodes = (
"468 721 LINE",
"468 803 LINE",
"388 803 LINE",
"388 721 LINE"
);
}
);
width = 655;
}
);
leftKerningGroup = O;
note = Odieresis;
rightKerningGroup = O;
unicode = 00D6;
},
{
glyphname = Odotbelow;
lastChange = "2015-08-01 11:25:25 +0000";
layers = (
{
layerId = "80E8E25D-437F-49DC-8A9F-EB5C20E09398";
name = Light;
paths = (
{
closed = 1;
nodes = (
"524 -15 OFFCURVE",
"616 97 OFFCURVE",
"616 321 CURVE SMOOTH",
"616 545 OFFCURVE",
"531 662 OFFCURVE",
"328 662 CURVE SMOOTH",
"124 662 OFFCURVE",
"39 545 OFFCURVE",
"39 321 CURVE SMOOTH",
"39 97 OFFCURVE",
"131 -15 OFFCURVE",
"328 -15 CURVE SMOOTH"
);
},
{
closed = 1;
nodes = (
"362 -145 LINE",
"362 -63 LINE",
"282 -63 LINE",
"282 -145 LINE"
);
},
{
closed = 1;
nodes = (
"190 45 OFFCURVE",
"116 120 OFFCURVE",
"116 321 CURVE SMOOTH",
"116 526 OFFCURVE",
"188 602 OFFCURVE",
"328 602 CURVE SMOOTH",
"467 602 OFFCURVE",
"539 526 OFFCURVE",
"539 321 CURVE SMOOTH",
"539 120 OFFCURVE",
"465 45 OFFCURVE",
"328 45 CURVE SMOOTH"
);
}
);
width = 655;
}
);
leftKerningGroup = O;
note = Odotbelow;
rightKerningGroup = O;
unicode = 1ECC;
},
{
glyphname = Ograve;
lastChange = "2015-08-01 11:25:24 +0000";
layers = (
{
layerId = "80E8E25D-437F-49DC-8A9F-EB5C20E09398";
name = Light;
paths = (
{
closed = 1;
nodes = (
"524 -15 OFFCURVE",
"616 97 OFFCURVE",
"616 321 CURVE SMOOTH",
"616 545 OFFCURVE",
"531 662 OFFCURVE",
"328 662 CURVE SMOOTH",
"124 662 OFFCURVE",
"39 545 OFFCURVE",
"39 321 CURVE SMOOTH",
"39 97 OFFCURVE",
"131 -15 OFFCURVE",
"328 -15 CURVE SMOOTH"
);
},
{
closed = 1;
nodes = (
"190 45 OFFCURVE",
"116 120 OFFCURVE",
"116 321 CURVE SMOOTH",
"116 526 OFFCURVE",
"188 602 OFFCURVE",
"328 602 CURVE SMOOTH",
"467 602 OFFCURVE",
"539 526 OFFCURVE",
"539 321 CURVE SMOOTH",
"539 120 OFFCURVE",
"465 45 OFFCURVE",
"328 45 CURVE SMOOTH"
);
},
{
closed = 1;
nodes = (
"362 701 LINE",
"279 880 LINE",
"177 880 LINE",
"292 701 LINE"
);
}
);
width = 655;
}
);
leftKerningGroup = O;
note = Ograve;
rightKerningGroup = O;
unicode = 00D2;
},
{
glyphname = Ohookabove;
lastChange = "2015-08-01 11:25:24 +0000";
layers = (
{
layerId = "80E8E25D-437F-49DC-8A9F-EB5C20E09398";
name = Light;
paths = (
{
closed = 1;
nodes = (
"524 -15 OFFCURVE",
"616 97 OFFCURVE",
"616 321 CURVE SMOOTH",
"616 545 OFFCURVE",
"531 662 OFFCURVE",
"328 662 CURVE SMOOTH",
"124 662 OFFCURVE",
"39 545 OFFCURVE",
"39 321 CURVE SMOOTH",
"39 97 OFFCURVE",
"131 -15 OFFCURVE",
"328 -15 CURVE SMOOTH"
);
},
{
closed = 1;
nodes = (
"190 45 OFFCURVE",
"116 120 OFFCURVE",
"116 321 CURVE SMOOTH",
"116 526 OFFCURVE",
"188 602 OFFCURVE",
"328 602 CURVE SMOOTH",
"467 602 OFFCURVE",
"539 526 OFFCURVE",
"539 321 CURVE SMOOTH",
"539 120 OFFCURVE",
"465 45 OFFCURVE",
"328 45 CURVE SMOOTH"
);
},
{
closed = 1;
nodes = (
"355 702 LINE",
"355 741 LINE",
"399 752 OFFCURVE",
"423 778 OFFCURVE",
"423 820 CURVE SMOOTH",
"423 881 OFFCURVE",
"381 903 OFFCURVE",
"315 903 CURVE SMOOTH",
"290 903 OFFCURVE",
"266 898 OFFCURVE",
"251 893 CURVE",
"251 843 LINE",
"264 847 OFFCURVE",
"282 851 OFFCURVE",
"300 851 CURVE SMOOTH",
"340 851 OFFCURVE",
"357 843 OFFCURVE",
"357 814 CURVE SMOOTH",
"357 786 OFFCURVE",
"343 767 OFFCURVE",
"290 767 CURVE",
"290 702 LINE"
);
}
);
width = 655;
}
);
leftKerningGroup = O;
note = Ohookabove;
rightKerningGroup = O;
unicode = 1ECE;
},
{
glyphname = Ohorn;
lastChange = "2015-08-01 11:25:24 +0000";
layers = (
{
layerId = "80E8E25D-437F-49DC-8A9F-EB5C20E09398";
name = Light;
paths = (
{
closed = 1;
nodes = (
"524 -15 OFFCURVE",
"616 97 OFFCURVE",
"616 321 CURVE SMOOTH",
"616 401 OFFCURVE",
"605 467 OFFCURVE",
"582 518 CURVE",
"663 530 OFFCURVE",
"696 580 OFFCURVE",
"696 654 CURVE SMOOTH",
"696 689 LINE",
"618 689 LINE",
"618 654 LINE SMOOTH",
"618 604 OFFCURVE",
"604 575 OFFCURVE",
"549 573 CURVE",
"502 632 OFFCURVE",
"430 662 OFFCURVE",
"328 662 CURVE SMOOTH",
"124 662 OFFCURVE",
"39 545 OFFCURVE",
"39 321 CURVE SMOOTH",
"39 97 OFFCURVE",
"131 -15 OFFCURVE",
"328 -15 CURVE SMOOTH"
);
},
{
closed = 1;
nodes = (
"190 45 OFFCURVE",
"116 120 OFFCURVE",
"116 321 CURVE SMOOTH",
"116 526 OFFCURVE",
"188 602 OFFCURVE",
"328 602 CURVE SMOOTH",
"467 602 OFFCURVE",
"539 526 OFFCURVE",
"539 321 CURVE SMOOTH",
"539 120 OFFCURVE",
"465 45 OFFCURVE",
"328 45 CURVE SMOOTH"
);
}
);
width = 700;
}
);
leftKerningGroup = O;
note = Ohorn;
rightKerningGroup = O;
unicode = 01A0;
},
{
glyphname = Ohornacute;
lastChange = "2015-08-01 11:25:25 +0000";
layers = (
{
layerId = "80E8E25D-437F-49DC-8A9F-EB5C20E09398";
name = Light;
paths = (
{
closed = 1;
nodes = (
"524 -15 OFFCURVE",
"616 97 OFFCURVE",
"616 321 CURVE SMOOTH",
"616 401 OFFCURVE",
"605 467 OFFCURVE",
"582 518 CURVE",
"663 530 OFFCURVE",
"696 580 OFFCURVE",
"696 654 CURVE SMOOTH",
"696 689 LINE",
"618 689 LINE",
"618 654 LINE SMOOTH",
"618 604 OFFCURVE",
"604 575 OFFCURVE",
"549 573 CURVE",
"502 632 OFFCURVE",
"430 662 OFFCURVE",
"328 662 CURVE SMOOTH",
"124 662 OFFCURVE",
"39 545 OFFCURVE",
"39 321 CURVE SMOOTH",
"39 97 OFFCURVE",
"131 -15 OFFCURVE",
"328 -15 CURVE SMOOTH"
);
},
{
closed = 1;
nodes = (
"190 45 OFFCURVE",
"116 120 OFFCURVE",
"116 321 CURVE SMOOTH",
"116 526 OFFCURVE",
"188 602 OFFCURVE",
"328 602 CURVE SMOOTH",
"467 602 OFFCURVE",
"539 526 OFFCURVE",
"539 321 CURVE SMOOTH",
"539 120 OFFCURVE",
"465 45 OFFCURVE",
"328 45 CURVE SMOOTH"
);
},
{
closed = 1;
nodes = (
"348 701 LINE",
"463 880 LINE",
"361 880 LINE",
"278 701 LINE"
);
}
);
width = 700;
}
);
leftKerningGroup = O;
note = Ohornacute;
rightKerningGroup = O;
unicode = 1EDA;
},
{
glyphname = Ohorndotbelow;
lastChange = "2015-08-01 11:25:25 +0000";
layers = (
{
layerId = "80E8E25D-437F-49DC-8A9F-EB5C20E09398";
name = Light;
paths = (
{
closed = 1;
nodes = (
"524 -15 OFFCURVE",
"616 97 OFFCURVE",
"616 321 CURVE SMOOTH",
"616 401 OFFCURVE",
"605 467 OFFCURVE",
"582 518 CURVE",
"663 530 OFFCURVE",
"696 580 OFFCURVE",
"696 654 CURVE SMOOTH",
"696 689 LINE",
"618 689 LINE",
"618 654 LINE SMOOTH",
"618 604 OFFCURVE",
"604 575 OFFCURVE",
"549 573 CURVE",
"502 632 OFFCURVE",
"430 662 OFFCURVE",
"328 662 CURVE SMOOTH",
"124 662 OFFCURVE",
"39 545 OFFCURVE",
"39 321 CURVE SMOOTH",
"39 97 OFFCURVE",
"131 -15 OFFCURVE",
"328 -15 CURVE SMOOTH"
);
},
{
closed = 1;
nodes = (
"369 -145 LINE",
"369 -63 LINE",
"289 -63 LINE",
"289 -145 LINE"
);
},
{
closed = 1;
nodes = (
"190 45 OFFCURVE",
"116 120 OFFCURVE",
"116 321 CURVE SMOOTH",
"116 526 OFFCURVE",
"188 602 OFFCURVE",
"328 602 CURVE SMOOTH",
"467 602 OFFCURVE",
"539 526 OFFCURVE",
"539 321 CURVE SMOOTH",
"539 120 OFFCURVE",
"465 45 OFFCURVE",
"328 45 CURVE SMOOTH"
);
}
);
width = 700;
}
);
leftKerningGroup = O;
note = Ohorndotbelow;
rightKerningGroup = O;
unicode = 1EE2;
},
{
glyphname = Ohorngrave;
lastChange = "2015-08-01 11:25:25 +0000";
layers = (
{
layerId = "80E8E25D-437F-49DC-8A9F-EB5C20E09398";
name = Light;
paths = (
{
closed = 1;
nodes = (
"524 -15 OFFCURVE",
"616 97 OFFCURVE",
"616 321 CURVE SMOOTH",
"616 401 OFFCURVE",
"605 467 OFFCURVE",
"582 518 CURVE",
"663 530 OFFCURVE",
"696 580 OFFCURVE",
"696 654 CURVE SMOOTH",
"696 689 LINE",
"618 689 LINE",
"618 654 LINE SMOOTH",
"618 604 OFFCURVE",
"604 575 OFFCURVE",
"549 573 CURVE",
"502 632 OFFCURVE",
"430 662 OFFCURVE",
"328 662 CURVE SMOOTH",
"124 662 OFFCURVE",
"39 545 OFFCURVE",
"39 321 CURVE SMOOTH",
"39 97 OFFCURVE",
"131 -15 OFFCURVE",
"328 -15 CURVE SMOOTH"
);
},
{
closed = 1;
nodes = (
"190 45 OFFCURVE",
"116 120 OFFCURVE",
"116 321 CURVE SMOOTH",
"116 526 OFFCURVE",
"188 602 OFFCURVE",
"328 602 CURVE SMOOTH",
"467 602 OFFCURVE",
"539 526 OFFCURVE",
"539 321 CURVE SMOOTH",
"539 120 OFFCURVE",
"465 45 OFFCURVE",
"328 45 CURVE SMOOTH"
);
},
{
closed = 1;
nodes = (
"356 701 LINE",
"273 880 LINE",
"171 880 LINE",
"286 701 LINE"
);
}
);
width = 700;
}
);
leftKerningGroup = O;
note = Ohorngrave;
rightKerningGroup = O;
unicode = 1EDC;
},
{
glyphname = Ohornhookabove;
lastChange = "2015-08-01 11:25:25 +0000";
layers = (
{
layerId = "80E8E25D-437F-49DC-8A9F-EB5C20E09398";
name = Light;
paths = (
{
closed = 1;
nodes = (
"524 -15 OFFCURVE",
"616 97 OFFCURVE",
"616 321 CURVE SMOOTH",
"616 401 OFFCURVE",
"605 467 OFFCURVE",
"582 518 CURVE",
"663 530 OFFCURVE",
"696 580 OFFCURVE",
"696 654 CURVE SMOOTH",
"696 689 LINE",
"618 689 LINE",
"618 654 LINE SMOOTH",
"618 604 OFFCURVE",
"604 575 OFFCURVE",
"549 573 CURVE",
"502 632 OFFCURVE",
"430 662 OFFCURVE",
"328 662 CURVE SMOOTH",
"124 662 OFFCURVE",
"39 545 OFFCURVE",
"39 321 CURVE SMOOTH",
"39 97 OFFCURVE",
"131 -15 OFFCURVE",
"328 -15 CURVE SMOOTH"
);
},
{
closed = 1;
nodes = (
"190 45 OFFCURVE",
"116 120 OFFCURVE",
"116 321 CURVE SMOOTH",
"116 526 OFFCURVE",
"188 602 OFFCURVE",
"328 602 CURVE SMOOTH",
"467 602 OFFCURVE",
"539 526 OFFCURVE",
"539 321 CURVE SMOOTH",
"539 120 OFFCURVE",
"465 45 OFFCURVE",
"328 45 CURVE SMOOTH"
);
},
{
closed = 1;
nodes = (
"355 702 LINE",
"355 741 LINE",
"399 752 OFFCURVE",
"423 778 OFFCURVE",
"423 820 CURVE SMOOTH",
"423 881 OFFCURVE",
"381 903 OFFCURVE",
"315 903 CURVE SMOOTH",
"290 903 OFFCURVE",
"266 898 OFFCURVE",
"251 893 CURVE",
"251 843 LINE",
"264 847 OFFCURVE",
"282 851 OFFCURVE",
"300 851 CURVE SMOOTH",
"340 851 OFFCURVE",
"357 843 OFFCURVE",
"357 814 CURVE SMOOTH",
"357 786 OFFCURVE",
"343 767 OFFCURVE",
"290 767 CURVE",
"290 702 LINE"
);
}
);
width = 700;
}
);
leftKerningGroup = O;
note = Ohornhookabove;
rightKerningGroup = O;
unicode = 1EDE;
},
{
glyphname = Ohorntilde;
lastChange = "2015-08-01 11:25:25 +0000";
layers = (
{
layerId = "80E8E25D-437F-49DC-8A9F-EB5C20E09398";
name = Light;
paths = (
{
closed = 1;
nodes = (
"524 -15 OFFCURVE",
"616 97 OFFCURVE",
"616 321 CURVE SMOOTH",
"616 401 OFFCURVE",
"605 467 OFFCURVE",
"582 518 CURVE",
"663 530 OFFCURVE",
"696 580 OFFCURVE",
"696 654 CURVE SMOOTH",
"696 689 LINE",
"618 689 LINE",
"618 654 LINE SMOOTH",
"618 604 OFFCURVE",
"604 575 OFFCURVE",
"549 573 CURVE",
"502 632 OFFCURVE",
"430 662 OFFCURVE",
"328 662 CURVE SMOOTH",
"124 662 OFFCURVE",
"39 545 OFFCURVE",
"39 321 CURVE SMOOTH",
"39 97 OFFCURVE",
"131 -15 OFFCURVE",
"328 -15 CURVE SMOOTH"
);
},
{
closed = 1;
nodes = (
"190 45 OFFCURVE",
"116 120 OFFCURVE",
"116 321 CURVE SMOOTH",
"116 526 OFFCURVE",
"188 602 OFFCURVE",
"328 602 CURVE SMOOTH",
"467 602 OFFCURVE",
"539 526 OFFCURVE",
"539 321 CURVE SMOOTH",
"539 120 OFFCURVE",
"465 45 OFFCURVE",
"328 45 CURVE SMOOTH"
);
},
{
closed = 1;
nodes = (
"214 702 LINE",
"214 747 OFFCURVE",
"230 758 OFFCURVE",
"259 758 CURVE SMOOTH",
"315 758 OFFCURVE",
"354 702 OFFCURVE",
"422 702 CURVE SMOOTH",
"488 702 OFFCURVE",
"522 738 OFFCURVE",
"522 823 CURVE",
"459 823 LINE",
"459 778 OFFCURVE",
"444 766 OFFCURVE",
"415 766 CURVE SMOOTH",
"364 766 OFFCURVE",
"323 823 OFFCURVE",
"252 823 CURVE SMOOTH",
"186 823 OFFCURVE",
"151 786 OFFCURVE",
"151 702 CURVE"
);
}
);
width = 700;
}
);
leftKerningGroup = O;
note = Ohorntilde;
rightKerningGroup = O;
unicode = 1EE0;
},
{
glyphname = Ohungarumlaut;
lastChange = "2015-08-01 11:25:26 +0000";
layers = (
{
layerId = "80E8E25D-437F-49DC-8A9F-EB5C20E09398";
name = Light;
paths = (
{
closed = 1;
nodes = (
"524 -15 OFFCURVE",
"616 97 OFFCURVE",
"616 321 CURVE SMOOTH",
"616 545 OFFCURVE",
"531 662 OFFCURVE",
"328 662 CURVE SMOOTH",
"124 662 OFFCURVE",
"39 545 OFFCURVE",
"39 321 CURVE SMOOTH",
"39 97 OFFCURVE",
"131 -15 OFFCURVE",
"328 -15 CURVE SMOOTH"
);
},
{
closed = 1;
nodes = (
"190 45 OFFCURVE",
"116 120 OFFCURVE",
"116 321 CURVE SMOOTH",
"116 526 OFFCURVE",
"188 602 OFFCURVE",
"328 602 CURVE SMOOTH",
"467 602 OFFCURVE",
"539 526 OFFCURVE",
"539 321 CURVE SMOOTH",
"539 120 OFFCURVE",
"465 45 OFFCURVE",
"328 45 CURVE SMOOTH"
);
},
{
closed = 1;
nodes = (
"247 701 LINE",
"365 884 LINE",
"261 884 LINE",
"175 701 LINE"
);
},
{
closed = 1;
nodes = (
"429 701 LINE",
"548 884 LINE",
"444 884 LINE",
"358 701 LINE"
);
}
);
width = 655;
}
);
leftKerningGroup = O;
note = Ohungarumlaut;
rightKerningGroup = O;
unicode = 0150;
},
{
glyphname = Omacron;
lastChange = "2015-08-01 11:25:25 +0000";
layers = (
{
layerId = "80E8E25D-437F-49DC-8A9F-EB5C20E09398";
name = Light;
paths = (
{
closed = 1;
nodes = (
"524 -15 OFFCURVE",
"616 97 OFFCURVE",
"616 321 CURVE SMOOTH",
"616 545 OFFCURVE",
"531 662 OFFCURVE",
"328 662 CURVE SMOOTH",
"124 662 OFFCURVE",
"39 545 OFFCURVE",
"39 321 CURVE SMOOTH",
"39 97 OFFCURVE",
"131 -15 OFFCURVE",
"328 -15 CURVE SMOOTH"
);
},
{
closed = 1;
nodes = (
"190 45 OFFCURVE",
"116 120 OFFCURVE",
"116 321 CURVE SMOOTH",
"116 526 OFFCURVE",
"188 602 OFFCURVE",
"328 602 CURVE SMOOTH",
"467 602 OFFCURVE",
"539 526 OFFCURVE",
"539 321 CURVE SMOOTH",
"539 120 OFFCURVE",
"465 45 OFFCURVE",
"328 45 CURVE SMOOTH"
);
},
{
closed = 1;
nodes = (
"467 722 LINE",
"467 779 LINE",
"187 779 LINE",
"187 722 LINE"
);
}
);
width = 655;
}
);
leftKerningGroup = O;
note = Omacron;
rightKerningGroup = O;
unicode = 014C;
},
{
glyphname = Oslash;
lastChange = "2015-08-01 11:25:26 +0000";
layers = (
{
layerId = "80E8E25D-437F-49DC-8A9F-EB5C20E09398";
name = Light;
paths = (
{
closed = 1;
nodes = (
"212 -43 LINE",
"226 -3 LINE",
"256 -11 OFFCURVE",
"290 -15 OFFCURVE",
"328 -15 CURVE SMOOTH",
"524 -15 OFFCURVE",
"616 97 OFFCURVE",
"616 321 CURVE SMOOTH",
"616 486 OFFCURVE",
"569 593 OFFCURVE",
"463 637 CURVE",
"483 689 LINE",
"429 689 LINE",
"415 652 LINE",
"389 659 OFFCURVE",
"359 662 OFFCURVE",
"328 662 CURVE SMOOTH",
"124 662 OFFCURVE",
"39 545 OFFCURVE",
"39 321 CURVE SMOOTH",
"39 163 OFFCURVE",
"84 61 OFFCURVE",
"179 15 CURVE",
"158 -43 LINE"
);
},
{
closed = 1;
nodes = (
"146 118 OFFCURVE",
"116 194 OFFCURVE",
"116 321 CURVE SMOOTH",
"116 526 OFFCURVE",
"188 602 OFFCURVE",
"328 602 CURVE SMOOTH",
"352 602 OFFCURVE",
"374 599 OFFCURVE",
"394 594 CURVE",
"203 79 LINE"
);
},
{
closed = 1;
nodes = (
"298 45 OFFCURVE",
"271 48 OFFCURVE",
"248 56 CURVE",
"441 576 LINE",
"505 539 OFFCURVE",
"539 459 OFFCURVE",
"539 321 CURVE SMOOTH",
"539 120 OFFCURVE",
"465 45 OFFCURVE",
"328 45 CURVE SMOOTH"
);
}
);
width = 655;
}
);
leftKerningGroup = O;
note = Oslash;
rightKerningGroup = O;
unicode = 00D8;
},
{
glyphname = Oslashacute;
lastChange = "2015-08-01 11:25:24 +0000";
layers = (
{
layerId = "80E8E25D-437F-49DC-8A9F-EB5C20E09398";
name = Light;
paths = (
{
closed = 1;
nodes = (
"212 -43 LINE",
"226 -3 LINE",
"256 -11 OFFCURVE",
"290 -15 OFFCURVE",
"328 -15 CURVE SMOOTH",
"524 -15 OFFCURVE",
"616 97 OFFCURVE",
"616 321 CURVE SMOOTH",
"616 486 OFFCURVE",
"569 593 OFFCURVE",
"463 637 CURVE",
"483 689 LINE",
"429 689 LINE",
"415 652 LINE",
"389 659 OFFCURVE",
"359 662 OFFCURVE",
"328 662 CURVE SMOOTH",
"124 662 OFFCURVE",
"39 545 OFFCURVE",
"39 321 CURVE SMOOTH",
"39 163 OFFCURVE",
"84 61 OFFCURVE",
"179 15 CURVE",
"158 -43 LINE"
);
},
{
closed = 1;
nodes = (
"146 118 OFFCURVE",
"116 194 OFFCURVE",
"116 321 CURVE SMOOTH",
"116 526 OFFCURVE",
"188 602 OFFCURVE",
"328 602 CURVE SMOOTH",
"352 602 OFFCURVE",
"374 599 OFFCURVE",
"394 594 CURVE",
"203 79 LINE"
);
},
{
closed = 1;
nodes = (
"298 45 OFFCURVE",
"271 48 OFFCURVE",
"248 56 CURVE",
"441 576 LINE",
"505 539 OFFCURVE",
"539 459 OFFCURVE",
"539 321 CURVE SMOOTH",
"539 120 OFFCURVE",
"465 45 OFFCURVE",
"328 45 CURVE SMOOTH"
);
},
{
closed = 1;
nodes = (
"353 697 LINE",
"469 876 LINE",
"366 876 LINE",
"284 697 LINE"
);
}
);
width = 655;
}
);
leftKerningGroup = O;
note = Oslashacute;
rightKerningGroup = O;
unicode = 01FE;
},
{
glyphname = Otilde;
lastChange = "2015-08-01 11:25:25 +0000";
layers = (
{
layerId = "80E8E25D-437F-49DC-8A9F-EB5C20E09398";
name = Light;
paths = (
{
closed = 1;
nodes = (
"524 -15 OFFCURVE",
"616 97 OFFCURVE",
"616 321 CURVE SMOOTH",
"616 545 OFFCURVE",
"531 662 OFFCURVE",
"328 662 CURVE SMOOTH",
"124 662 OFFCURVE",
"39 545 OFFCURVE",
"39 321 CURVE SMOOTH",
"39 97 OFFCURVE",
"131 -15 OFFCURVE",
"328 -15 CURVE SMOOTH"
);
},
{
closed = 1;
nodes = (
"190 45 OFFCURVE",
"116 120 OFFCURVE",
"116 321 CURVE SMOOTH",
"116 526 OFFCURVE",
"188 602 OFFCURVE",
"328 602 CURVE SMOOTH",
"467 602 OFFCURVE",
"539 526 OFFCURVE",
"539 321 CURVE SMOOTH",
"539 120 OFFCURVE",
"465 45 OFFCURVE",
"328 45 CURVE SMOOTH"
);
},
{
closed = 1;
nodes = (
"204 702 LINE",
"204 747 OFFCURVE",
"220 758 OFFCURVE",
"249 758 CURVE SMOOTH",
"305 758 OFFCURVE",
"344 702 OFFCURVE",
"412 702 CURVE SMOOTH",
"478 702 OFFCURVE",
"512 738 OFFCURVE",
"512 823 CURVE",
"449 823 LINE",
"449 778 OFFCURVE",
"434 766 OFFCURVE",
"405 766 CURVE SMOOTH",
"354 766 OFFCURVE",
"313 823 OFFCURVE",
"242 823 CURVE SMOOTH",
"176 823 OFFCURVE",
"141 786 OFFCURVE",
"141 702 CURVE"
);
}
);
width = 655;
}
);
leftKerningGroup = O;
note = Otilde;
rightKerningGroup = O;
unicode = 00D5;
},
{
glyphname = OE;
lastChange = "2015-08-01 11:25:26 +0000";
layers = (
{
layerId = "80E8E25D-437F-49DC-8A9F-EB5C20E09398";
name = Light;
paths = (
{
closed = 1;
nodes = (
"772 0 LINE",
"772 117 LINE",
"700 117 LINE",
"700 94 LINE SMOOTH",
"700 69 OFFCURVE",
"690 59 OFFCURVE",
"663 59 CURVE SMOOTH",
"471 59 LINE",
"471 295 LINE",
"644 295 LINE",
"644 354 LINE",
"471 354 LINE",
"471 588 LINE",
"663 588 LINE SMOOTH",
"690 588 OFFCURVE",
"700 578 OFFCURVE",
"700 553 CURVE SMOOTH",
"700 531 LINE",
"772 531 LINE",
"772 647 LINE",
"341 647 LINE SMOOTH",
"137 647 OFFCURVE",
"39 545 OFFCURVE",
"39 321 CURVE SMOOTH",
"39 96 OFFCURVE",
"144 0 OFFCURVE",
"341 0 CURVE SMOOTH"
);
},
{
closed = 1;
nodes = (
"202 59 OFFCURVE",
"116 126 OFFCURVE",
"116 321 CURVE SMOOTH",
"116 519 OFFCURVE",
"201 588 OFFCURVE",
"332 588 CURVE SMOOTH",
"391 588 LINE",
"391 59 LINE",
"332 59 LINE SMOOTH"
);
}
);
width = 811;
}
);
leftKerningGroup = C;
note = OE;
unicode = 0152;
},
{
glyphname = P;
lastChange = "2015-08-01 11:25:26 +0000";
layers = (
{
layerId = "80E8E25D-437F-49DC-8A9F-EB5C20E09398";
name = Light;
paths = (
{
closed = 1;
nodes = (
"253 0 LINE",
"253 59 LINE",
"224 59 LINE SMOOTH",
"194 59 OFFCURVE",
"186 71 OFFCURVE",
"186 95 CURVE SMOOTH",
"186 248 LINE",
"375 248 LINE SMOOTH",
"501 248 OFFCURVE",
"579 327 OFFCURVE",
"579 451 CURVE SMOOTH",
"579 576 OFFCURVE",
"501 647 OFFCURVE",
"376 647 CURVE SMOOTH",
"39 647 LINE",
"39 588 LINE",
"68 588 LINE SMOOTH",
"98 588 OFFCURVE",
"106 577 OFFCURVE",
"106 552 CURVE SMOOTH",
"106 95 LINE SMOOTH",
"106 71 OFFCURVE",
"98 59 OFFCURVE",
"68 59 CURVE SMOOTH",
"39 59 LINE",
"39 0 LINE"
);
},
{
closed = 1;
nodes = (
"186 588 LINE",
"365 588 LINE SMOOTH",
"458 588 OFFCURVE",
"502 555 OFFCURVE",
"502 451 CURVE SMOOTH",
"502 353 OFFCURVE",
"455 307 OFFCURVE",
"365 307 CURVE SMOOTH",
"186 307 LINE"
);
}
);
width = 618;
}
);
note = P;
unicode = 0050;
},
{
glyphname = Thorn;
lastChange = "2015-08-01 11:25:25 +0000";
layers = (
{
layerId = "80E8E25D-437F-49DC-8A9F-EB5C20E09398";
name = Light;
paths = (
{
closed = 1;
nodes = (
"253 0 LINE",
"253 59 LINE",
"224 59 LINE SMOOTH",
"194 59 OFFCURVE",
"186 70 OFFCURVE",
"186 95 CURVE SMOOTH",
"186 133 LINE",
"375 133 LINE SMOOTH",
"504 133 OFFCURVE",
"579 212 OFFCURVE",
"579 335 CURVE SMOOTH",
"579 464 OFFCURVE",
"504 530 OFFCURVE",
"369 530 CURVE SMOOTH",
"186 530 LINE",
"186 647 LINE",
"39 647 LINE",
"39 588 LINE",
"68 588 LINE SMOOTH",
"98 588 OFFCURVE",
"106 576 OFFCURVE",
"106 551 CURVE SMOOTH",
"106 110 LINE SMOOTH",
"106 78 OFFCURVE",
"104 59 OFFCURVE",
"68 59 CURVE SMOOTH",
"39 59 LINE",
"39 0 LINE"
);
},
{
closed = 1;
nodes = (
"186 471 LINE",
"365 471 LINE SMOOTH",
"458 471 OFFCURVE",
"502 438 OFFCURVE",
"502 335 CURVE SMOOTH",
"502 236 OFFCURVE",
"455 192 OFFCURVE",
"365 192 CURVE SMOOTH",
"186 192 LINE"
);
}
);
width = 618;
}
);
note = Thorn;
unicode = 00DE;
},
{
glyphname = Q;
lastChange = "2015-08-01 11:25:26 +0000";
layers = (
{
layerId = "80E8E25D-437F-49DC-8A9F-EB5C20E09398";
name = Light;
paths = (
{
closed = 1;
nodes = (
"511 -145 OFFCURVE",
"557 -125 OFFCURVE",
"585 -85 CURVE",
"585 -28 LINE",
"518 -28 LINE",
"518 -62 LINE",
"504 -78 OFFCURVE",
"484 -86 OFFCURVE",
"446 -86 CURVE SMOOTH",
"399 -86 OFFCURVE",
"370 -64 OFFCURVE",
"364 -14 CURVE",
"535 1 OFFCURVE",
"616 133 OFFCURVE",
"616 321 CURVE SMOOTH",
"616 521 OFFCURVE",
"531 661 OFFCURVE",
"328 661 CURVE SMOOTH",
"124 661 OFFCURVE",
"39 521 OFFCURVE",
"39 321 CURVE SMOOTH",
"39 132 OFFCURVE",
"121 -1 OFFCURVE",
"295 -14 CURVE",
"302 -80 OFFCURVE",
"348 -145 OFFCURVE",
"446 -145 CURVE SMOOTH"
);
},
{
closed = 1;
nodes = (
"190 45 OFFCURVE",
"116 144 OFFCURVE",
"116 321 CURVE SMOOTH",
"116 502 OFFCURVE",
"188 601 OFFCURVE",
"328 601 CURVE SMOOTH",
"467 601 OFFCURVE",
"539 502 OFFCURVE",
"539 321 CURVE SMOOTH",
"539 144 OFFCURVE",
"465 45 OFFCURVE",
"328 45 CURVE SMOOTH"
);
}
);
width = 655;
}
);
leftKerningGroup = O;
note = Q;
rightKerningGroup = O;
unicode = 0051;
},
{
glyphname = R;
lastChange = "2015-08-01 11:25:25 +0000";
layers = (
{
layerId = "80E8E25D-437F-49DC-8A9F-EB5C20E09398";
name = Light;
paths = (
{
closed = 1;
nodes = (
"253 0 LINE",
"253 59 LINE",
"222 59 LINE SMOOTH",
"193 59 OFFCURVE",
"186 70 OFFCURVE",
"186 94 CURVE SMOOTH",
"186 272 LINE",
"312 272 LINE",
"425 59 LINE",
"372 59 LINE",
"372 0 LINE",
"576 0 LINE",
"576 59 LINE",
"545 59 LINE SMOOTH",
"518 59 OFFCURVE",
"500 67 OFFCURVE",
"487 92 CURVE SMOOTH",
"389 277 LINE",
"497 289 OFFCURVE",
"558 361 OFFCURVE",
"558 463 CURVE SMOOTH",
"558 580 OFFCURVE",
"482 647 OFFCURVE",
"355 647 CURVE SMOOTH",
"39 647 LINE",
"39 588 LINE",
"68 588 LINE SMOOTH",
"98 588 OFFCURVE",
"106 577 OFFCURVE",
"106 552 CURVE SMOOTH",
"106 95 LINE SMOOTH",
"106 71 OFFCURVE",
"98 59 OFFCURVE",
"68 59 CURVE SMOOTH",
"39 59 LINE",
"39 0 LINE"
);
},
{
closed = 1;
nodes = (
"186 588 LINE",
"343 588 LINE SMOOTH",
"439 588 OFFCURVE",
"481 551 OFFCURVE",
"481 463 CURVE SMOOTH",
"481 381 OFFCURVE",
"436 331 OFFCURVE",
"343 331 CURVE SMOOTH",
"186 331 LINE"
);
}
);
width = 615;
}
);
note = R;
rightKerningGroup = R;
unicode = 0052;
},
{
glyphname = Racute;
lastChange = "2015-08-01 11:25:26 +0000";
layers = (
{
layerId = "80E8E25D-437F-49DC-8A9F-EB5C20E09398";
name = Light;
paths = (
{
closed = 1;
nodes = (
"253 0 LINE",
"253 59 LINE",
"222 59 LINE SMOOTH",
"193 59 OFFCURVE",
"186 70 OFFCURVE",
"186 94 CURVE SMOOTH",
"186 272 LINE",
"312 272 LINE",
"425 59 LINE",
"372 59 LINE",
"372 0 LINE",
"576 0 LINE",
"576 59 LINE",
"545 59 LINE SMOOTH",
"518 59 OFFCURVE",
"500 67 OFFCURVE",
"487 92 CURVE SMOOTH",
"389 277 LINE",
"497 289 OFFCURVE",
"558 361 OFFCURVE",
"558 463 CURVE SMOOTH",
"558 580 OFFCURVE",
"482 647 OFFCURVE",
"355 647 CURVE SMOOTH",
"39 647 LINE",
"39 588 LINE",
"68 588 LINE SMOOTH",
"98 588 OFFCURVE",
"106 577 OFFCURVE",
"106 552 CURVE SMOOTH",
"106 95 LINE SMOOTH",
"106 71 OFFCURVE",
"98 59 OFFCURVE",
"68 59 CURVE SMOOTH",
"39 59 LINE",
"39 0 LINE"
);
},
{
closed = 1;
nodes = (
"186 588 LINE",
"343 588 LINE SMOOTH",
"439 588 OFFCURVE",
"481 551 OFFCURVE",
"481 463 CURVE SMOOTH",
"481 381 OFFCURVE",
"436 331 OFFCURVE",
"343 331 CURVE SMOOTH",
"186 331 LINE"
);
},
{
closed = 1;
nodes = (
"306 701 LINE",
"421 880 LINE",
"319 880 LINE",
"236 701 LINE"
);
}
);
width = 615;
}
);
note = Racute;
rightKerningGroup = R;
unicode = 0154;
},
{
glyphname = Rcaron;
lastChange = "2015-08-01 11:25:24 +0000";
layers = (
{
layerId = "80E8E25D-437F-49DC-8A9F-EB5C20E09398";
name = Light;
paths = (
{
closed = 1;
nodes = (
"253 0 LINE",
"253 59 LINE",
"222 59 LINE SMOOTH",
"193 59 OFFCURVE",
"186 70 OFFCURVE",
"186 94 CURVE SMOOTH",
"186 272 LINE",
"312 272 LINE",
"425 59 LINE",
"372 59 LINE",
"372 0 LINE",
"576 0 LINE",
"576 59 LINE",
"545 59 LINE SMOOTH",
"518 59 OFFCURVE",
"500 67 OFFCURVE",
"487 92 CURVE SMOOTH",
"389 277 LINE",
"497 289 OFFCURVE",
"558 361 OFFCURVE",
"558 463 CURVE SMOOTH",
"558 580 OFFCURVE",
"482 647 OFFCURVE",
"355 647 CURVE SMOOTH",
"39 647 LINE",
"39 588 LINE",
"68 588 LINE SMOOTH",
"98 588 OFFCURVE",
"106 577 OFFCURVE",
"106 552 CURVE SMOOTH",
"106 95 LINE SMOOTH",
"106 71 OFFCURVE",
"98 59 OFFCURVE",
"68 59 CURVE SMOOTH",
"39 59 LINE",
"39 0 LINE"
);
},
{
closed = 1;
nodes = (
"186 588 LINE",
"343 588 LINE SMOOTH",
"439 588 OFFCURVE",
"481 551 OFFCURVE",
"481 463 CURVE SMOOTH",
"481 381 OFFCURVE",
"436 331 OFFCURVE",
"343 331 CURVE SMOOTH",
"186 331 LINE"
);
},
{
closed = 1;
nodes = (
"346 702 LINE",
"466 885 LINE",
"387 885 LINE",
"303 752 LINE",
"219 885 LINE",
"140 885 LINE",
"260 702 LINE"
);
}
);
width = 615;
}
);
note = Rcaron;
rightKerningGroup = R;
unicode = 0158;
},
{
glyphname = Rcommaaccent;
lastChange = "2015-08-01 11:25:24 +0000";
layers = (
{
layerId = "80E8E25D-437F-49DC-8A9F-EB5C20E09398";
name = Light;
paths = (
{
closed = 1;
nodes = (
"253 0 LINE",
"253 59 LINE",
"222 59 LINE SMOOTH",
"193 59 OFFCURVE",
"186 70 OFFCURVE",
"186 94 CURVE SMOOTH",
"186 272 LINE",
"312 272 LINE",
"425 59 LINE",
"372 59 LINE",
"372 0 LINE",
"576 0 LINE",
"576 59 LINE",
"545 59 LINE SMOOTH",
"518 59 OFFCURVE",
"500 67 OFFCURVE",
"487 92 CURVE SMOOTH",
"389 277 LINE",
"497 289 OFFCURVE",
"558 361 OFFCURVE",
"558 463 CURVE SMOOTH",
"558 580 OFFCURVE",
"482 647 OFFCURVE",
"355 647 CURVE SMOOTH",
"39 647 LINE",
"39 588 LINE",
"68 588 LINE SMOOTH",
"98 588 OFFCURVE",
"106 577 OFFCURVE",
"106 552 CURVE SMOOTH",
"106 95 LINE SMOOTH",
"106 71 OFFCURVE",
"98 59 OFFCURVE",
"68 59 CURVE SMOOTH",
"39 59 LINE",
"39 0 LINE"
);
},
{
closed = 1;
nodes = (
"307 -244 LINE",
"366 -49 LINE",
"274 -49 LINE",
"245 -244 LINE"
);
},
{
closed = 1;
nodes = (
"186 588 LINE",
"343 588 LINE SMOOTH",
"439 588 OFFCURVE",
"481 551 OFFCURVE",
"481 463 CURVE SMOOTH",
"481 381 OFFCURVE",
"436 331 OFFCURVE",
"343 331 CURVE SMOOTH",
"186 331 LINE"
);
}
);
width = 615;
}
);
note = Rcommaaccent;
rightKerningGroup = R;
unicode = 0156;
},
{
glyphname = Rdotbelow;
lastChange = "2015-08-01 11:25:25 +0000";
layers = (
{
layerId = "80E8E25D-437F-49DC-8A9F-EB5C20E09398";
name = Light;
paths = (
{
closed = 1;
nodes = (
"253 0 LINE",
"253 59 LINE",
"222 59 LINE SMOOTH",
"193 59 OFFCURVE",
"186 70 OFFCURVE",
"186 94 CURVE SMOOTH",
"186 272 LINE",
"312 272 LINE",
"425 59 LINE",
"372 59 LINE",
"372 0 LINE",
"576 0 LINE",
"576 59 LINE",
"545 59 LINE SMOOTH",
"518 59 OFFCURVE",
"500 67 OFFCURVE",
"487 92 CURVE SMOOTH",
"389 277 LINE",
"497 289 OFFCURVE",
"558 361 OFFCURVE",
"558 463 CURVE SMOOTH",
"558 580 OFFCURVE",
"482 647 OFFCURVE",
"355 647 CURVE SMOOTH",
"39 647 LINE",
"39 588 LINE",
"68 588 LINE SMOOTH",
"98 588 OFFCURVE",
"106 577 OFFCURVE",
"106 552 CURVE SMOOTH",
"106 95 LINE SMOOTH",
"106 71 OFFCURVE",
"98 59 OFFCURVE",
"68 59 CURVE SMOOTH",
"39 59 LINE",
"39 0 LINE"
);
},
{
closed = 1;
nodes = (
"350 -145 LINE",
"350 -63 LINE",
"270 -63 LINE",
"270 -145 LINE"
);
},
{
closed = 1;
nodes = (
"186 588 LINE",
"343 588 LINE SMOOTH",
"439 588 OFFCURVE",
"481 551 OFFCURVE",
"481 463 CURVE SMOOTH",
"481 381 OFFCURVE",
"436 331 OFFCURVE",
"343 331 CURVE SMOOTH",
"186 331 LINE"
);
}
);
width = 615;
}
);
note = Rdotbelow;
rightKerningGroup = R;
unicode = 1E5A;
},
{
glyphname = Rdotbelowmacron;
lastChange = "2015-08-01 11:25:25 +0000";
layers = (
{
layerId = "80E8E25D-437F-49DC-8A9F-EB5C20E09398";
name = Light;
paths = (
{
closed = 1;
nodes = (
"253 0 LINE",
"253 59 LINE",
"222 59 LINE SMOOTH",
"193 59 OFFCURVE",
"186 70 OFFCURVE",
"186 94 CURVE SMOOTH",
"186 272 LINE",
"312 272 LINE",
"425 59 LINE",
"372 59 LINE",
"372 0 LINE",
"576 0 LINE",
"576 59 LINE",
"545 59 LINE SMOOTH",
"518 59 OFFCURVE",
"500 67 OFFCURVE",
"487 92 CURVE SMOOTH",
"389 277 LINE",
"497 289 OFFCURVE",
"558 361 OFFCURVE",
"558 463 CURVE SMOOTH",
"558 580 OFFCURVE",
"482 647 OFFCURVE",
"355 647 CURVE SMOOTH",
"39 647 LINE",
"39 588 LINE",
"68 588 LINE SMOOTH",
"98 588 OFFCURVE",
"106 577 OFFCURVE",
"106 552 CURVE SMOOTH",
"106 95 LINE SMOOTH",
"106 71 OFFCURVE",
"98 59 OFFCURVE",
"68 59 CURVE SMOOTH",
"39 59 LINE",
"39 0 LINE"
);
},
{
closed = 1;
nodes = (
"346 -145 LINE",
"346 -63 LINE",
"266 -63 LINE",
"266 -145 LINE"
);
},
{
closed = 1;
nodes = (
"186 588 LINE",
"343 588 LINE SMOOTH",
"439 588 OFFCURVE",
"481 551 OFFCURVE",
"481 463 CURVE SMOOTH",
"481 381 OFFCURVE",
"436 331 OFFCURVE",
"343 331 CURVE SMOOTH",
"186 331 LINE"
);
},
{
closed = 1;
nodes = (
"437 722 LINE",
"437 779 LINE",
"157 779 LINE",
"157 722 LINE"
);
}
);
width = 615;
}
);
note = Rdotbelowmacron;
rightKerningGroup = R;
unicode = 1E5C;
},
{
glyphname = Rlinebelow;
lastChange = "2015-08-01 11:25:24 +0000";
layers = (
{
layerId = "80E8E25D-437F-49DC-8A9F-EB5C20E09398";
name = Light;
paths = (
{
closed = 1;
nodes = (
"253 0 LINE",
"253 59 LINE",
"222 59 LINE SMOOTH",
"193 59 OFFCURVE",
"186 70 OFFCURVE",
"186 94 CURVE SMOOTH",
"186 272 LINE",
"312 272 LINE",
"425 59 LINE",
"372 59 LINE",
"372 0 LINE",
"576 0 LINE",
"576 59 LINE",
"545 59 LINE SMOOTH",
"518 59 OFFCURVE",
"500 67 OFFCURVE",
"487 92 CURVE SMOOTH",
"389 277 LINE",
"497 289 OFFCURVE",
"558 361 OFFCURVE",
"558 463 CURVE SMOOTH",
"558 580 OFFCURVE",
"482 647 OFFCURVE",
"355 647 CURVE SMOOTH",
"39 647 LINE",
"39 588 LINE",
"68 588 LINE SMOOTH",
"98 588 OFFCURVE",
"106 577 OFFCURVE",
"106 552 CURVE SMOOTH",
"106 95 LINE SMOOTH",
"106 71 OFFCURVE",
"98 59 OFFCURVE",
"68 59 CURVE SMOOTH",
"39 59 LINE",
"39 0 LINE"
);
},
{
closed = 1;
nodes = (
"453 -127 LINE",
"453 -70 LINE",
"173 -70 LINE",
"173 -127 LINE"
);
},
{
closed = 1;
nodes = (
"186 588 LINE",
"343 588 LINE SMOOTH",
"439 588 OFFCURVE",
"481 551 OFFCURVE",
"481 463 CURVE SMOOTH",
"481 381 OFFCURVE",
"436 331 OFFCURVE",
"343 331 CURVE SMOOTH",
"186 331 LINE"
);
}
);
width = 615;
}
);
note = Rlinebelow;
rightKerningGroup = R;
unicode = 1E5E;
},
{
glyphname = S;
lastChange = "2015-08-01 11:25:26 +0000";
layers = (
{
layerId = "80E8E25D-437F-49DC-8A9F-EB5C20E09398";
name = Light;
paths = (
{
closed = 1;
nodes = (
"412 -15 OFFCURVE",
"488 59 OFFCURVE",
"488 157 CURVE SMOOTH",
"488 273 OFFCURVE",
"402 311 OFFCURVE",
"286 357 CURVE SMOOTH",
"203 390 OFFCURVE",
"122 416 OFFCURVE",
"122 495 CURVE SMOOTH",
"122 572 OFFCURVE",
"181 602 OFFCURVE",
"263 602 CURVE SMOOTH",
"314 602 OFFCURVE",
"363 591 OFFCURVE",
"394 573 CURVE",
"394 513 LINE",
"475 513 LINE",
"475 600 LINE",
"428 635 OFFCURVE",
"350 662 OFFCURVE",
"266 662 CURVE SMOOTH",
"142 662 OFFCURVE",
"45 609 OFFCURVE",
"45 494 CURVE SMOOTH",
"45 390 OFFCURVE",
"125 346 OFFCURVE",
"260 295 CURVE SMOOTH",
"353 260 OFFCURVE",
"411 230 OFFCURVE",
"411 155 CURVE SMOOTH",
"411 85 OFFCURVE",
"364 45 OFFCURVE",
"273 45 CURVE SMOOTH",
"217 45 OFFCURVE",
"156 60 OFFCURVE",
"120 83 CURVE",
"120 144 LINE",
"39 144 LINE",
"39 55 LINE",
"95 13 OFFCURVE",
"183 -15 OFFCURVE",
"270 -15 CURVE SMOOTH"
);
}
);
width = 527;
}
);
leftKerningGroup = dollar;
note = S;
rightKerningGroup = dollar;
unicode = 0053;
},
{
glyphname = Sacute;
lastChange = "2015-08-01 11:25:26 +0000";
layers = (
{
layerId = "80E8E25D-437F-49DC-8A9F-EB5C20E09398";
name = Light;
paths = (
{
closed = 1;
nodes = (
"412 -15 OFFCURVE",
"488 59 OFFCURVE",
"488 157 CURVE SMOOTH",
"488 273 OFFCURVE",
"402 311 OFFCURVE",
"286 357 CURVE SMOOTH",
"203 390 OFFCURVE",
"122 416 OFFCURVE",
"122 495 CURVE SMOOTH",
"122 572 OFFCURVE",
"181 602 OFFCURVE",
"263 602 CURVE SMOOTH",
"314 602 OFFCURVE",
"363 591 OFFCURVE",
"394 573 CURVE",
"394 513 LINE",
"475 513 LINE",
"475 600 LINE",
"428 635 OFFCURVE",
"350 662 OFFCURVE",
"266 662 CURVE SMOOTH",
"142 662 OFFCURVE",
"45 609 OFFCURVE",
"45 494 CURVE SMOOTH",
"45 390 OFFCURVE",
"125 346 OFFCURVE",
"260 295 CURVE SMOOTH",
"353 260 OFFCURVE",
"411 230 OFFCURVE",
"411 155 CURVE SMOOTH",
"411 85 OFFCURVE",
"364 45 OFFCURVE",
"273 45 CURVE SMOOTH",
"217 45 OFFCURVE",
"156 60 OFFCURVE",
"120 83 CURVE",
"120 144 LINE",
"39 144 LINE",
"39 55 LINE",
"95 13 OFFCURVE",
"183 -15 OFFCURVE",
"270 -15 CURVE SMOOTH"
);
},
{
closed = 1;
nodes = (
"297 701 LINE",
"412 880 LINE",
"310 880 LINE",
"227 701 LINE"
);
}
);
width = 527;
}
);
leftKerningGroup = dollar;
note = Sacute;
rightKerningGroup = dollar;
unicode = 015A;
},
{
glyphname = Scaron;
lastChange = "2015-08-01 11:25:25 +0000";
layers = (
{
layerId = "80E8E25D-437F-49DC-8A9F-EB5C20E09398";
name = Light;
paths = (
{
closed = 1;
nodes = (
"412 -15 OFFCURVE",
"488 59 OFFCURVE",
"488 157 CURVE SMOOTH",
"488 273 OFFCURVE",
"402 311 OFFCURVE",
"286 357 CURVE SMOOTH",
"203 390 OFFCURVE",
"122 416 OFFCURVE",
"122 495 CURVE SMOOTH",
"122 572 OFFCURVE",
"181 602 OFFCURVE",
"263 602 CURVE SMOOTH",
"314 602 OFFCURVE",
"363 591 OFFCURVE",
"394 573 CURVE",
"394 513 LINE",
"475 513 LINE",
"475 600 LINE",
"428 635 OFFCURVE",
"350 662 OFFCURVE",
"266 662 CURVE SMOOTH",
"142 662 OFFCURVE",
"45 609 OFFCURVE",
"45 494 CURVE SMOOTH",
"45 390 OFFCURVE",
"125 346 OFFCURVE",
"260 295 CURVE SMOOTH",
"353 260 OFFCURVE",
"411 230 OFFCURVE",
"411 155 CURVE SMOOTH",
"411 85 OFFCURVE",
"364 45 OFFCURVE",
"273 45 CURVE SMOOTH",
"217 45 OFFCURVE",
"156 60 OFFCURVE",
"120 83 CURVE",
"120 144 LINE",
"39 144 LINE",
"39 55 LINE",
"95 13 OFFCURVE",
"183 -15 OFFCURVE",
"270 -15 CURVE SMOOTH"
);
},
{
closed = 1;
nodes = (
"314 702 LINE",
"434 885 LINE",
"355 885 LINE",
"271 752 LINE",
"187 885 LINE",
"108 885 LINE",
"228 702 LINE"
);
}
);
width = 527;
}
);
leftKerningGroup = dollar;
note = Scaron;
rightKerningGroup = dollar;
unicode = 0160;
},
{
glyphname = Scedilla;
lastChange = "2015-08-01 11:25:25 +0000";
layers = (
{
layerId = "80E8E25D-437F-49DC-8A9F-EB5C20E09398";
name = Light;
paths = (
{
closed = 1;
nodes = (
"335 -228 OFFCURVE",
"379 -196 OFFCURVE",
"379 -136 CURVE SMOOTH",
"379 -90 OFFCURVE",
"358 -59 OFFCURVE",
"296 -50 CURVE",
"302 -14 LINE",
"423 -3 OFFCURVE",
"488 66 OFFCURVE",
"488 157 CURVE SMOOTH",
"488 273 OFFCURVE",
"402 311 OFFCURVE",
"286 357 CURVE SMOOTH",
"203 390 OFFCURVE",
"122 416 OFFCURVE",
"122 495 CURVE SMOOTH",
"122 572 OFFCURVE",
"181 602 OFFCURVE",
"263 602 CURVE SMOOTH",
"314 602 OFFCURVE",
"363 591 OFFCURVE",
"394 573 CURVE",
"394 513 LINE",
"475 513 LINE",
"475 600 LINE",
"428 635 OFFCURVE",
"350 662 OFFCURVE",
"266 662 CURVE SMOOTH",
"142 662 OFFCURVE",
"45 609 OFFCURVE",
"45 494 CURVE SMOOTH",
"45 390 OFFCURVE",
"125 346 OFFCURVE",
"260 295 CURVE SMOOTH",
"353 260 OFFCURVE",
"411 230 OFFCURVE",
"411 155 CURVE SMOOTH",
"411 85 OFFCURVE",
"364 45 OFFCURVE",
"273 45 CURVE SMOOTH",
"217 45 OFFCURVE",
"156 60 OFFCURVE",
"120 83 CURVE",
"120 144 LINE",
"39 144 LINE",
"39 55 LINE",
"87 19 OFFCURVE",
"158 -6 OFFCURVE",
"232 -13 CURVE",
"221 -84 LINE",
"298 -84 OFFCURVE",
"313 -99 OFFCURVE",
"313 -136 CURVE SMOOTH",
"313 -164 OFFCURVE",
"291 -177 OFFCURVE",
"248 -177 CURVE SMOOTH",
"224 -177 OFFCURVE",
"203 -172 OFFCURVE",
"188 -167 CURVE",
"188 -217 LINE",
"208 -224 OFFCURVE",
"229 -228 OFFCURVE",
"253 -228 CURVE SMOOTH"
);
}
);
width = 527;
}
);
leftKerningGroup = dollar;
note = Scedilla;
rightKerningGroup = dollar;
unicode = 015E;
},
{
glyphname = Scircumflex;
lastChange = "2015-08-01 11:25:24 +0000";
layers = (
{
layerId = "80E8E25D-437F-49DC-8A9F-EB5C20E09398";
name = Light;
paths = (
{
closed = 1;
nodes = (
"412 -15 OFFCURVE",
"488 59 OFFCURVE",
"488 157 CURVE SMOOTH",
"488 273 OFFCURVE",
"402 311 OFFCURVE",
"286 357 CURVE SMOOTH",
"203 390 OFFCURVE",
"122 416 OFFCURVE",
"122 495 CURVE SMOOTH",
"122 572 OFFCURVE",
"181 602 OFFCURVE",
"263 602 CURVE SMOOTH",
"314 602 OFFCURVE",
"363 591 OFFCURVE",
"394 573 CURVE",
"394 513 LINE",
"475 513 LINE",
"475 600 LINE",
"428 635 OFFCURVE",
"350 662 OFFCURVE",
"266 662 CURVE SMOOTH",
"142 662 OFFCURVE",
"45 609 OFFCURVE",
"45 494 CURVE SMOOTH",
"45 390 OFFCURVE",
"125 346 OFFCURVE",
"260 295 CURVE SMOOTH",
"353 260 OFFCURVE",
"411 230 OFFCURVE",
"411 155 CURVE SMOOTH",
"411 85 OFFCURVE",
"364 45 OFFCURVE",
"273 45 CURVE SMOOTH",
"217 45 OFFCURVE",
"156 60 OFFCURVE",
"120 83 CURVE",
"120 144 LINE",
"39 144 LINE",
"39 55 LINE",
"95 13 OFFCURVE",
"183 -15 OFFCURVE",
"270 -15 CURVE SMOOTH"
);
},
{
closed = 1;
nodes = (
"193 702 LINE",
"277 834 LINE",
"361 702 LINE",
"440 702 LINE",
"320 885 LINE",
"234 885 LINE",
"114 702 LINE"
);
}
);
width = 527;
}
);
leftKerningGroup = dollar;
note = Scircumflex;
rightKerningGroup = dollar;
unicode = 015C;
},
{
glyphname = Scommaaccent;
lastChange = "2015-08-01 11:25:25 +0000";
layers = (
{
layerId = "80E8E25D-437F-49DC-8A9F-EB5C20E09398";
name = Light;
paths = (
{
closed = 1;
nodes = (
"412 -15 OFFCURVE",
"488 59 OFFCURVE",
"488 157 CURVE SMOOTH",
"488 273 OFFCURVE",
"402 311 OFFCURVE",
"286 357 CURVE SMOOTH",
"203 390 OFFCURVE",
"122 416 OFFCURVE",
"122 495 CURVE SMOOTH",
"122 572 OFFCURVE",
"181 602 OFFCURVE",
"263 602 CURVE SMOOTH",
"314 602 OFFCURVE",
"363 591 OFFCURVE",
"394 573 CURVE",
"394 513 LINE",
"475 513 LINE",
"475 600 LINE",
"428 635 OFFCURVE",
"350 662 OFFCURVE",
"266 662 CURVE SMOOTH",
"142 662 OFFCURVE",
"45 609 OFFCURVE",
"45 494 CURVE SMOOTH",
"45 390 OFFCURVE",
"125 346 OFFCURVE",
"260 295 CURVE SMOOTH",
"353 260 OFFCURVE",
"411 230 OFFCURVE",
"411 155 CURVE SMOOTH",
"411 85 OFFCURVE",
"364 45 OFFCURVE",
"273 45 CURVE SMOOTH",
"217 45 OFFCURVE",
"156 60 OFFCURVE",
"120 83 CURVE",
"120 144 LINE",
"39 144 LINE",
"39 55 LINE",
"95 13 OFFCURVE",
"183 -15 OFFCURVE",
"270 -15 CURVE SMOOTH"
);
},
{
closed = 1;
nodes = (
"239 -236 LINE",
"330 -49 LINE",
"224 -49 LINE",
"166 -236 LINE"
);
}
);
width = 527;
}
);
leftKerningGroup = dollar;
note = Scommaaccent;
rightKerningGroup = dollar;
unicode = 0218;
},
{
glyphname = Sdotaccent;
lastChange = "2015-08-01 11:25:25 +0000";
layers = (
{
layerId = "80E8E25D-437F-49DC-8A9F-EB5C20E09398";
name = Light;
paths = (
{
closed = 1;
nodes = (
"412 -15 OFFCURVE",
"488 59 OFFCURVE",
"488 157 CURVE SMOOTH",
"488 273 OFFCURVE",
"402 311 OFFCURVE",
"286 357 CURVE SMOOTH",
"203 390 OFFCURVE",
"122 416 OFFCURVE",
"122 495 CURVE SMOOTH",
"122 572 OFFCURVE",
"181 602 OFFCURVE",
"263 602 CURVE SMOOTH",
"314 602 OFFCURVE",
"363 591 OFFCURVE",
"394 573 CURVE",
"394 513 LINE",
"475 513 LINE",
"475 600 LINE",
"428 635 OFFCURVE",
"350 662 OFFCURVE",
"266 662 CURVE SMOOTH",
"142 662 OFFCURVE",
"45 609 OFFCURVE",
"45 494 CURVE SMOOTH",
"45 390 OFFCURVE",
"125 346 OFFCURVE",
"260 295 CURVE SMOOTH",
"353 260 OFFCURVE",
"411 230 OFFCURVE",
"411 155 CURVE SMOOTH",
"411 85 OFFCURVE",
"364 45 OFFCURVE",
"273 45 CURVE SMOOTH",
"217 45 OFFCURVE",
"156 60 OFFCURVE",
"120 83 CURVE",
"120 144 LINE",
"39 144 LINE",
"39 55 LINE",
"95 13 OFFCURVE",
"183 -15 OFFCURVE",
"270 -15 CURVE SMOOTH"
);
},
{
closed = 1;
nodes = (
"308 721 LINE",
"308 803 LINE",
"228 803 LINE",
"228 721 LINE"
);
}
);
width = 527;
}
);
leftKerningGroup = dollar;
note = Sdotaccent;
rightKerningGroup = dollar;
unicode = 1E60;
},
{
glyphname = Sdotbelow;
lastChange = "2015-08-01 11:25:26 +0000";
layers = (
{
layerId = "80E8E25D-437F-49DC-8A9F-EB5C20E09398";
name = Light;
paths = (
{
closed = 1;
nodes = (
"412 -15 OFFCURVE",
"488 59 OFFCURVE",
"488 157 CURVE SMOOTH",
"488 273 OFFCURVE",
"402 311 OFFCURVE",
"286 357 CURVE SMOOTH",
"203 390 OFFCURVE",
"122 416 OFFCURVE",
"122 495 CURVE SMOOTH",
"122 572 OFFCURVE",
"181 602 OFFCURVE",
"263 602 CURVE SMOOTH",
"314 602 OFFCURVE",
"363 591 OFFCURVE",
"394 573 CURVE",
"394 513 LINE",
"475 513 LINE",
"475 600 LINE",
"428 635 OFFCURVE",
"350 662 OFFCURVE",
"266 662 CURVE SMOOTH",
"142 662 OFFCURVE",
"45 609 OFFCURVE",
"45 494 CURVE SMOOTH",
"45 390 OFFCURVE",
"125 346 OFFCURVE",
"260 295 CURVE SMOOTH",
"353 260 OFFCURVE",
"411 230 OFFCURVE",
"411 155 CURVE SMOOTH",
"411 85 OFFCURVE",
"364 45 OFFCURVE",
"273 45 CURVE SMOOTH",
"217 45 OFFCURVE",
"156 60 OFFCURVE",
"120 83 CURVE",
"120 144 LINE",
"39 144 LINE",
"39 55 LINE",
"95 13 OFFCURVE",
"183 -15 OFFCURVE",
"270 -15 CURVE SMOOTH"
);
},
{
closed = 1;
nodes = (
"313 -145 LINE",
"313 -63 LINE",
"233 -63 LINE",
"233 -145 LINE"
);
}
);
width = 527;
}
);
leftKerningGroup = dollar;
note = Sdotbelow;
rightKerningGroup = dollar;
unicode = 1E62;
},
{
glyphname = Germandbls;
lastChange = "2015-08-01 11:25:23 +0000";
layers = (
{
layerId = "80E8E25D-437F-49DC-8A9F-EB5C20E09398";
name = Light;
paths = (
{
closed = 1;
nodes = (
"558 -15 OFFCURVE",
"620 71 OFFCURVE",
"620 181 CURVE SMOOTH",
"620 305 OFFCURVE",
"565 368 OFFCURVE",
"427 371 CURVE",
"559 530 LINE",
"559 613 OFFCURVE",
"484 690 OFFCURVE",
"338 690 CURVE SMOOTH",
"155 690 OFFCURVE",
"88 588 OFFCURVE",
"88 457 CURVE SMOOTH",
"88 95 LINE SMOOTH",
"88 69 OFFCURVE",
"79 59 OFFCURVE",
"53 59 CURVE SMOOTH",
"29 59 LINE",
"29 0 LINE",
"168 0 LINE",
"168 454 LINE SMOOTH",
"168 568 OFFCURVE",
"216 630 OFFCURVE",
"336 630 CURVE SMOOTH",
"428 630 OFFCURVE",
"478 585 OFFCURVE",
"478 546 CURVE",
"325 359 LINE",
"325 313 LINE",
"414 313 LINE SMOOTH",
"502 313 OFFCURVE",
"543 280 OFFCURVE",
"543 181 CURVE SMOOTH",
"543 99 OFFCURVE",
"503 45 OFFCURVE",
"420 45 CURVE SMOOTH",
"378 45 OFFCURVE",
"343 51 OFFCURVE",
"301 73 CURVE",
"273 20 LINE",
"319 -7 OFFCURVE",
"373 -15 OFFCURVE",
"423 -15 CURVE SMOOTH"
);
}
);
width = 659;
}
);
note = uni1E9E;
unicode = 1E9E;
},
{
glyphname = Schwa;
lastChange = "2015-08-01 11:25:24 +0000";
layers = (
{
layerId = "80E8E25D-437F-49DC-8A9F-EB5C20E09398";
name = Light;
paths = (
{
closed = 1;
nodes = (
"528 -15 OFFCURVE",
"633 106 OFFCURVE",
"633 335 CURVE SMOOTH",
"633 561 OFFCURVE",
"501 662 OFFCURVE",
"326 662 CURVE SMOOTH",
"216 662 OFFCURVE",
"129 640 OFFCURVE",
"61 589 CURVE",
"61 506 LINE",
"141 506 LINE",
"141 566 LINE",
"181 590 OFFCURVE",
"243 602 OFFCURVE",
"326 602 CURVE SMOOTH",
"459 602 OFFCURVE",
"556 522 OFFCURVE",
"556 356 CURVE",
"39 356 LINE",
"39 299 LINE SMOOTH",
"39 115 OFFCURVE",
"131 -15 OFFCURVE",
"330 -15 CURVE SMOOTH"
);
},
{
closed = 1;
nodes = (
"186 45 OFFCURVE",
"117 136 OFFCURVE",
"117 296 CURVE",
"556 296 LINE",
"556 159 OFFCURVE",
"491 45 OFFCURVE",
"330 45 CURVE SMOOTH"
);
}
);
width = 672;
}
);
note = uni018F;
unicode = 018F;
},
{
glyphname = T;
lastChange = "2015-08-01 11:25:25 +0000";
layers = (
{
layerId = "80E8E25D-437F-49DC-8A9F-EB5C20E09398";
name = Light;
paths = (
{
closed = 1;
nodes = (
"381 0 LINE",
"381 59 LINE",
"352 59 LINE SMOOTH",
"322 59 OFFCURVE",
"314 71 OFFCURVE",
"314 95 CURVE SMOOTH",
"314 588 LINE",
"418 588 LINE SMOOTH",
"446 588 OFFCURVE",
"455 578 OFFCURVE",
"455 553 CURVE SMOOTH",
"455 524 LINE",
"519 524 LINE",
"519 646 LINE",
"29 646 LINE",
"29 524 LINE",
"92 524 LINE",
"92 553 LINE SMOOTH",
"92 578 OFFCURVE",
"102 588 OFFCURVE",
"129 588 CURVE SMOOTH",
"234 588 LINE",
"234 95 LINE SMOOTH",
"234 71 OFFCURVE",
"226 59 OFFCURVE",
"196 59 CURVE SMOOTH",
"167 59 LINE",
"167 0 LINE"
);
}
);
width = 548;
}
);
leftKerningGroup = T;
note = T;
rightKerningGroup = T;
unicode = 0054;
},
{
glyphname = Tbar;
lastChange = "2015-08-01 11:25:25 +0000";
layers = (
{
layerId = "80E8E25D-437F-49DC-8A9F-EB5C20E09398";
name = Light;
paths = (
{
closed = 1;
nodes = (
"381 0 LINE",
"381 59 LINE",
"352 59 LINE SMOOTH",
"322 59 OFFCURVE",
"314 71 OFFCURVE",
"314 95 CURVE SMOOTH",
"314 307 LINE",
"443 307 LINE",
"443 364 LINE",
"314 364 LINE",
"314 588 LINE",
"418 588 LINE SMOOTH",
"446 588 OFFCURVE",
"455 578 OFFCURVE",
"455 553 CURVE SMOOTH",
"455 524 LINE",
"519 524 LINE",
"519 646 LINE",
"29 646 LINE",
"29 524 LINE",
"92 524 LINE",
"92 553 LINE SMOOTH",
"92 578 OFFCURVE",
"102 588 OFFCURVE",
"129 588 CURVE SMOOTH",
"234 588 LINE",
"234 364 LINE",
"112 364 LINE",
"112 307 LINE",
"234 307 LINE",
"234 95 LINE SMOOTH",
"234 71 OFFCURVE",
"226 59 OFFCURVE",
"196 59 CURVE SMOOTH",
"167 59 LINE",
"167 0 LINE"
);
}
);
width = 548;
}
);
leftKerningGroup = T;
note = Tbar;
rightKerningGroup = T;
unicode = 0166;
},
{
glyphname = Tcaron;
lastChange = "2015-08-01 11:25:26 +0000";
layers = (
{
layerId = "80E8E25D-437F-49DC-8A9F-EB5C20E09398";
name = Light;
paths = (
{
closed = 1;
nodes = (
"381 0 LINE",
"381 59 LINE",
"352 59 LINE SMOOTH",
"322 59 OFFCURVE",
"314 71 OFFCURVE",
"314 95 CURVE SMOOTH",
"314 588 LINE",
"418 588 LINE SMOOTH",
"446 588 OFFCURVE",
"455 578 OFFCURVE",
"455 553 CURVE SMOOTH",
"455 524 LINE",
"519 524 LINE",
"519 646 LINE",
"29 646 LINE",
"29 524 LINE",
"92 524 LINE",
"92 553 LINE SMOOTH",
"92 578 OFFCURVE",
"102 588 OFFCURVE",
"129 588 CURVE SMOOTH",
"234 588 LINE",
"234 95 LINE SMOOTH",
"234 71 OFFCURVE",
"226 59 OFFCURVE",
"196 59 CURVE SMOOTH",
"167 59 LINE",
"167 0 LINE"
);
},
{
closed = 1;
nodes = (
"316 702 LINE",
"436 885 LINE",
"357 885 LINE",
"273 752 LINE",
"189 885 LINE",
"110 885 LINE",
"230 702 LINE"
);
}
);
width = 548;
}
);
leftKerningGroup = T;
note = Tcaron;
rightKerningGroup = T;
unicode = 0164;
},
{
glyphname = Tcedilla;
lastChange = "2015-08-01 11:25:26 +0000";
layers = (
{
layerId = "80E8E25D-437F-49DC-8A9F-EB5C20E09398";
name = Light;
paths = (
{
closed = 1;
nodes = (
"381 0 LINE",
"381 59 LINE",
"352 59 LINE SMOOTH",
"322 59 OFFCURVE",
"314 71 OFFCURVE",
"314 95 CURVE SMOOTH",
"314 588 LINE",
"418 588 LINE SMOOTH",
"446 588 OFFCURVE",
"455 578 OFFCURVE",
"455 553 CURVE SMOOTH",
"455 524 LINE",
"519 524 LINE",
"519 646 LINE",
"29 646 LINE",
"29 524 LINE",
"92 524 LINE",
"92 553 LINE SMOOTH",
"92 578 OFFCURVE",
"102 588 OFFCURVE",
"129 588 CURVE SMOOTH",
"234 588 LINE",
"234 95 LINE SMOOTH",
"234 71 OFFCURVE",
"226 59 OFFCURVE",
"196 59 CURVE SMOOTH",
"167 59 LINE",
"167 0 LINE"
);
},
{
closed = 1;
nodes = (
"341 -228 OFFCURVE",
"385 -196 OFFCURVE",
"385 -136 CURVE SMOOTH",
"385 -90 OFFCURVE",
"364 -59 OFFCURVE",
"302 -50 CURVE",
"309 0 LINE",
"239 0 LINE",
"227 -84 LINE",
"303 -84 OFFCURVE",
"319 -99 OFFCURVE",
"319 -136 CURVE SMOOTH",
"319 -164 OFFCURVE",
"296 -177 OFFCURVE",
"253 -177 CURVE SMOOTH",
"230 -177 OFFCURVE",
"209 -172 OFFCURVE",
"194 -167 CURVE",
"194 -217 LINE",
"214 -224 OFFCURVE",
"235 -228 OFFCURVE",
"259 -228 CURVE SMOOTH"
);
}
);
width = 548;
}
);
leftKerningGroup = T;
note = Tcedilla;
rightKerningGroup = T;
unicode = 0162;
},
{
glyphname = Tcommaaccent;
lastChange = "2015-08-01 11:25:25 +0000";
layers = (
{
layerId = "80E8E25D-437F-49DC-8A9F-EB5C20E09398";
name = Light;
paths = (
{
closed = 1;
nodes = (
"381 0 LINE",
"381 59 LINE",
"352 59 LINE SMOOTH",
"322 59 OFFCURVE",
"314 71 OFFCURVE",
"314 95 CURVE SMOOTH",
"314 588 LINE",
"418 588 LINE SMOOTH",
"446 588 OFFCURVE",
"455 578 OFFCURVE",
"455 553 CURVE SMOOTH",
"455 524 LINE",
"519 524 LINE",
"519 646 LINE",
"29 646 LINE",
"29 524 LINE",
"92 524 LINE",
"92 553 LINE SMOOTH",
"92 578 OFFCURVE",
"102 588 OFFCURVE",
"129 588 CURVE SMOOTH",
"234 588 LINE",
"234 95 LINE SMOOTH",
"234 71 OFFCURVE",
"226 59 OFFCURVE",
"196 59 CURVE SMOOTH",
"167 59 LINE",
"167 0 LINE"
);
},
{
closed = 1;
nodes = (
"276 -244 LINE",
"335 -49 LINE",
"243 -49 LINE",
"214 -244 LINE"
);
}
);
width = 548;
}
);
leftKerningGroup = T;
note = Tcommaaccent;
rightKerningGroup = T;
unicode = 021A;
},
{
glyphname = Tdotbelow;
lastChange = "2015-08-01 11:25:25 +0000";
layers = (
{
layerId = "80E8E25D-437F-49DC-8A9F-EB5C20E09398";
name = Light;
paths = (
{
closed = 1;
nodes = (
"381 0 LINE",
"381 59 LINE",
"352 59 LINE SMOOTH",
"322 59 OFFCURVE",
"314 71 OFFCURVE",
"314 95 CURVE SMOOTH",
"314 588 LINE",
"418 588 LINE SMOOTH",
"446 588 OFFCURVE",
"455 578 OFFCURVE",
"455 553 CURVE SMOOTH",
"455 524 LINE",
"519 524 LINE",
"519 646 LINE",
"29 646 LINE",
"29 524 LINE",
"92 524 LINE",
"92 553 LINE SMOOTH",
"92 578 OFFCURVE",
"102 588 OFFCURVE",
"129 588 CURVE SMOOTH",
"234 588 LINE",
"234 95 LINE SMOOTH",
"234 71 OFFCURVE",
"226 59 OFFCURVE",
"196 59 CURVE SMOOTH",
"167 59 LINE",
"167 0 LINE"
);
},
{
closed = 1;
nodes = (
"314 -145 LINE",
"314 -63 LINE",
"234 -63 LINE",
"234 -145 LINE"
);
}
);
width = 548;
}
);
leftKerningGroup = T;
note = Tdotbelow;
rightKerningGroup = T;
unicode = 1E6C;
},
{
glyphname = Tlinebelow;
lastChange = "2015-08-01 11:25:26 +0000";
layers = (
{
layerId = "80E8E25D-437F-49DC-8A9F-EB5C20E09398";
name = Light;
paths = (
{
closed = 1;
nodes = (
"381 0 LINE",
"381 59 LINE",
"352 59 LINE SMOOTH",
"322 59 OFFCURVE",
"314 71 OFFCURVE",
"314 95 CURVE SMOOTH",
"314 588 LINE",
"418 588 LINE SMOOTH",
"446 588 OFFCURVE",
"455 578 OFFCURVE",
"455 553 CURVE SMOOTH",
"455 524 LINE",
"519 524 LINE",
"519 646 LINE",
"29 646 LINE",
"29 524 LINE",
"92 524 LINE",
"92 553 LINE SMOOTH",
"92 578 OFFCURVE",
"102 588 OFFCURVE",
"129 588 CURVE SMOOTH",
"234 588 LINE",
"234 95 LINE SMOOTH",
"234 71 OFFCURVE",
"226 59 OFFCURVE",
"196 59 CURVE SMOOTH",
"167 59 LINE",
"167 0 LINE"
);
},
{
closed = 1;
nodes = (
"409 -127 LINE",
"409 -70 LINE",
"129 -70 LINE",
"129 -127 LINE"
);
}
);
width = 548;
}
);
leftKerningGroup = T;
note = Tlinebelow;
rightKerningGroup = T;
unicode = 1E6E;
},
{
glyphname = U;
lastChange = "2015-08-01 11:25:25 +0000";
layers = (
{
layerId = "80E8E25D-437F-49DC-8A9F-EB5C20E09398";
name = Light;
paths = (
{
closed = 1;
nodes = (
"489 -15 OFFCURVE",
"565 64 OFFCURVE",
"565 179 CURVE SMOOTH",
"565 552 LINE SMOOTH",
"565 578 OFFCURVE",
"575 588 OFFCURVE",
"601 588 CURVE SMOOTH",
"624 588 LINE",
"624 647 LINE",
"427 647 LINE",
"427 588 LINE",
"449 588 LINE SMOOTH",
"475 588 OFFCURVE",
"485 578 OFFCURVE",
"485 551 CURVE SMOOTH",
"485 173 LINE SMOOTH",
"485 85 OFFCURVE",
"430 45 OFFCURVE",
"326 45 CURVE SMOOTH",
"222 45 OFFCURVE",
"168 85 OFFCURVE",
"168 173 CURVE SMOOTH",
"168 551 LINE SMOOTH",
"168 578 OFFCURVE",
"177 588 OFFCURVE",
"203 588 CURVE SMOOTH",
"225 588 LINE",
"225 647 LINE",
"29 647 LINE",
"29 588 LINE",
"53 588 LINE SMOOTH",
"79 588 OFFCURVE",
"88 578 OFFCURVE",
"88 552 CURVE SMOOTH",
"88 179 LINE SMOOTH",
"88 64 OFFCURVE",
"163 -15 OFFCURVE",
"326 -15 CURVE SMOOTH"
);
}
);
width = 653;
}
);
leftKerningGroup = U;
note = U;
rightKerningGroup = U;
unicode = 0055;
},
{
glyphname = Uacute;
lastChange = "2015-08-01 11:25:26 +0000";
layers = (
{
layerId = "80E8E25D-437F-49DC-8A9F-EB5C20E09398";
name = Light;
paths = (
{
closed = 1;
nodes = (
"489 -15 OFFCURVE",
"565 64 OFFCURVE",
"565 179 CURVE SMOOTH",
"565 552 LINE SMOOTH",
"565 578 OFFCURVE",
"575 588 OFFCURVE",
"601 588 CURVE SMOOTH",
"624 588 LINE",
"624 647 LINE",
"427 647 LINE",
"427 588 LINE",
"449 588 LINE SMOOTH",
"475 588 OFFCURVE",
"485 578 OFFCURVE",
"485 551 CURVE SMOOTH",
"485 173 LINE SMOOTH",
"485 85 OFFCURVE",
"430 45 OFFCURVE",
"326 45 CURVE SMOOTH",
"222 45 OFFCURVE",
"168 85 OFFCURVE",
"168 173 CURVE SMOOTH",
"168 551 LINE SMOOTH",
"168 578 OFFCURVE",
"177 588 OFFCURVE",
"203 588 CURVE SMOOTH",
"225 588 LINE",
"225 647 LINE",
"29 647 LINE",
"29 588 LINE",
"53 588 LINE SMOOTH",
"79 588 OFFCURVE",
"88 578 OFFCURVE",
"88 552 CURVE SMOOTH",
"88 179 LINE SMOOTH",
"88 64 OFFCURVE",
"163 -15 OFFCURVE",
"326 -15 CURVE SMOOTH"
);
},
{
closed = 1;
nodes = (
"341 701 LINE",
"456 880 LINE",
"354 880 LINE",
"271 701 LINE"
);
}
);
width = 653;
}
);
leftKerningGroup = U;
note = Uacute;
rightKerningGroup = U;
unicode = 00DA;
},
{
glyphname = Ubreve;
lastChange = "2015-08-01 11:25:25 +0000";
layers = (
{
layerId = "80E8E25D-437F-49DC-8A9F-EB5C20E09398";
name = Light;
paths = (
{
closed = 1;
nodes = (
"489 -15 OFFCURVE",
"565 64 OFFCURVE",
"565 179 CURVE SMOOTH",
"565 552 LINE SMOOTH",
"565 578 OFFCURVE",
"575 588 OFFCURVE",
"601 588 CURVE SMOOTH",
"624 588 LINE",
"624 647 LINE",
"427 647 LINE",
"427 588 LINE",
"449 588 LINE SMOOTH",
"475 588 OFFCURVE",
"485 578 OFFCURVE",
"485 551 CURVE SMOOTH",
"485 173 LINE SMOOTH",
"485 85 OFFCURVE",
"430 45 OFFCURVE",
"326 45 CURVE SMOOTH",
"222 45 OFFCURVE",
"168 85 OFFCURVE",
"168 173 CURVE SMOOTH",
"168 551 LINE SMOOTH",
"168 578 OFFCURVE",
"177 588 OFFCURVE",
"203 588 CURVE SMOOTH",
"225 588 LINE",
"225 647 LINE",
"29 647 LINE",
"29 588 LINE",
"53 588 LINE SMOOTH",
"79 588 OFFCURVE",
"88 578 OFFCURVE",
"88 552 CURVE SMOOTH",
"88 179 LINE SMOOTH",
"88 64 OFFCURVE",
"163 -15 OFFCURVE",
"326 -15 CURVE SMOOTH"
);
},
{
closed = 1;
nodes = (
"413 701 OFFCURVE",
"474 754 OFFCURVE",
"474 838 CURVE",
"409 838 LINE",
"409 785 OFFCURVE",
"377 757 OFFCURVE",
"325 757 CURVE SMOOTH",
"274 757 OFFCURVE",
"240 785 OFFCURVE",
"240 838 CURVE",
"175 838 LINE",
"175 754 OFFCURVE",
"236 701 OFFCURVE",
"325 701 CURVE SMOOTH"
);
}
);
width = 653;
}
);
leftKerningGroup = U;
note = Ubreve;
rightKerningGroup = U;
unicode = 016C;
},
{
glyphname = Ucaron;
lastChange = "2015-08-01 11:25:25 +0000";
layers = (
{
layerId = "80E8E25D-437F-49DC-8A9F-EB5C20E09398";
name = Light;
paths = (
{
closed = 1;
nodes = (
"489 -15 OFFCURVE",
"565 64 OFFCURVE",
"565 179 CURVE SMOOTH",
"565 552 LINE SMOOTH",
"565 578 OFFCURVE",
"575 588 OFFCURVE",
"601 588 CURVE SMOOTH",
"624 588 LINE",
"624 647 LINE",
"427 647 LINE",
"427 588 LINE",
"449 588 LINE SMOOTH",
"475 588 OFFCURVE",
"485 578 OFFCURVE",
"485 551 CURVE SMOOTH",
"485 173 LINE SMOOTH",
"485 85 OFFCURVE",
"430 45 OFFCURVE",
"326 45 CURVE SMOOTH",
"222 45 OFFCURVE",
"168 85 OFFCURVE",
"168 173 CURVE SMOOTH",
"168 551 LINE SMOOTH",
"168 578 OFFCURVE",
"177 588 OFFCURVE",
"203 588 CURVE SMOOTH",
"225 588 LINE",
"225 647 LINE",
"29 647 LINE",
"29 588 LINE",
"53 588 LINE SMOOTH",
"79 588 OFFCURVE",
"88 578 OFFCURVE",
"88 552 CURVE SMOOTH",
"88 179 LINE SMOOTH",
"88 64 OFFCURVE",
"163 -15 OFFCURVE",
"326 -15 CURVE SMOOTH"
);
},
{
closed = 1;
nodes = (
"369 702 LINE",
"489 885 LINE",
"410 885 LINE",
"326 752 LINE",
"242 885 LINE",
"163 885 LINE",
"283 702 LINE"
);
}
);
width = 653;
}
);
leftKerningGroup = U;
note = Ucaron;
rightKerningGroup = U;
unicode = 01D3;
},
{
glyphname = Ucircumflex;
lastChange = "2015-08-01 11:25:24 +0000";
layers = (
{
layerId = "80E8E25D-437F-49DC-8A9F-EB5C20E09398";
name = Light;
paths = (
{
closed = 1;
nodes = (
"489 -15 OFFCURVE",
"565 64 OFFCURVE",
"565 179 CURVE SMOOTH",
"565 552 LINE SMOOTH",
"565 578 OFFCURVE",
"575 588 OFFCURVE",
"601 588 CURVE SMOOTH",
"624 588 LINE",
"624 647 LINE",
"427 647 LINE",
"427 588 LINE",
"449 588 LINE SMOOTH",
"475 588 OFFCURVE",
"485 578 OFFCURVE",
"485 551 CURVE SMOOTH",
"485 173 LINE SMOOTH",
"485 85 OFFCURVE",
"430 45 OFFCURVE",
"326 45 CURVE SMOOTH",
"222 45 OFFCURVE",
"168 85 OFFCURVE",
"168 173 CURVE SMOOTH",
"168 551 LINE SMOOTH",
"168 578 OFFCURVE",
"177 588 OFFCURVE",
"203 588 CURVE SMOOTH",
"225 588 LINE",
"225 647 LINE",
"29 647 LINE",
"29 588 LINE",
"53 588 LINE SMOOTH",
"79 588 OFFCURVE",
"88 578 OFFCURVE",
"88 552 CURVE SMOOTH",
"88 179 LINE SMOOTH",
"88 64 OFFCURVE",
"163 -15 OFFCURVE",
"326 -15 CURVE SMOOTH"
);
},
{
closed = 1;
nodes = (
"242 702 LINE",
"326 834 LINE",
"410 702 LINE",
"489 702 LINE",
"369 885 LINE",
"283 885 LINE",
"163 702 LINE"
);
}
);
width = 653;
}
);
leftKerningGroup = U;
note = Ucircumflex;
rightKerningGroup = U;
unicode = 00DB;
},
{
glyphname = Udieresis;
lastChange = "2015-11-23 16:03:33 +0000";
layers = (
{
layerId = "80E8E25D-437F-49DC-8A9F-EB5C20E09398";
name = Light;
paths = (
{
closed = 1;
nodes = (
"489 -15 OFFCURVE",
"565 64 OFFCURVE",
"565 179 CURVE SMOOTH",
"565 552 LINE SMOOTH",
"565 578 OFFCURVE",
"575 588 OFFCURVE",
"601 588 CURVE SMOOTH",
"624 588 LINE",
"624 647 LINE",
"427 647 LINE",
"427 588 LINE",
"449 588 LINE SMOOTH",
"475 588 OFFCURVE",
"485 578 OFFCURVE",
"485 551 CURVE SMOOTH",
"485 173 LINE SMOOTH",
"485 85 OFFCURVE",
"430 45 OFFCURVE",
"326 45 CURVE SMOOTH",
"222 45 OFFCURVE",
"168 85 OFFCURVE",
"168 173 CURVE SMOOTH",
"168 551 LINE SMOOTH",
"168 578 OFFCURVE",
"177 588 OFFCURVE",
"203 588 CURVE SMOOTH",
"225 588 LINE",
"225 647 LINE",
"29 647 LINE",
"29 588 LINE",
"53 588 LINE SMOOTH",
"79 588 OFFCURVE",
"88 578 OFFCURVE",
"88 552 CURVE SMOOTH",
"88 179 LINE SMOOTH",
"88 64 OFFCURVE",
"163 -15 OFFCURVE",
"326 -15 CURVE SMOOTH"
);
},
{
closed = 1;
nodes = (
"266 721 LINE",
"266 803 LINE",
"186 803 LINE",
"186 721 LINE"
);
},
{
closed = 1;
nodes = (
"467 721 LINE",
"467 803 LINE",
"387 803 LINE",
"387 721 LINE"
);
}
);
width = 653;
}
);
leftKerningGroup = U;
note = Udieresis;
rightKerningGroup = U;
unicode = 00DC;
},
{
glyphname = Udieresisacute;
lastChange = "2015-08-01 11:25:24 +0000";
layers = (
{
layerId = "80E8E25D-437F-49DC-8A9F-EB5C20E09398";
name = Light;
paths = (
{
closed = 1;
nodes = (
"489 -15 OFFCURVE",
"565 64 OFFCURVE",
"565 179 CURVE SMOOTH",
"565 552 LINE SMOOTH",
"565 578 OFFCURVE",
"575 588 OFFCURVE",
"601 588 CURVE SMOOTH",
"624 588 LINE",
"624 647 LINE",
"427 647 LINE",
"427 588 LINE",
"449 588 LINE SMOOTH",
"475 588 OFFCURVE",
"485 578 OFFCURVE",
"485 551 CURVE SMOOTH",
"485 173 LINE SMOOTH",
"485 85 OFFCURVE",
"430 45 OFFCURVE",
"326 45 CURVE SMOOTH",
"222 45 OFFCURVE",
"168 85 OFFCURVE",
"168 173 CURVE SMOOTH",
"168 551 LINE SMOOTH",
"168 578 OFFCURVE",
"177 588 OFFCURVE",
"203 588 CURVE SMOOTH",
"225 588 LINE",
"225 647 LINE",
"29 647 LINE",
"29 588 LINE",
"53 588 LINE SMOOTH",
"79 588 OFFCURVE",
"88 578 OFFCURVE",
"88 552 CURVE SMOOTH",
"88 179 LINE SMOOTH",
"88 64 OFFCURVE",
"163 -15 OFFCURVE",
"326 -15 CURVE SMOOTH"
);
},
{
closed = 1;
nodes = (
"267 723 LINE",
"267 805 LINE",
"187 805 LINE",
"187 723 LINE"
);
},
{
closed = 1;
nodes = (
"468 723 LINE",
"468 805 LINE",
"388 805 LINE",
"388 723 LINE"
);
},
{
closed = 1;
nodes = (
"356 836 LINE",
"458 974 LINE",
"362 974 LINE",
"293 836 LINE"
);
}
);
width = 653;
}
);
leftKerningGroup = U;
note = Udieresisacute;
rightKerningGroup = U;
unicode = 01D7;
},
{
glyphname = Udieresiscaron;
lastChange = "2015-08-01 11:25:25 +0000";
layers = (
{
layerId = "80E8E25D-437F-49DC-8A9F-EB5C20E09398";
name = Light;
paths = (
{
closed = 1;
nodes = (
"489 -15 OFFCURVE",
"565 64 OFFCURVE",
"565 179 CURVE SMOOTH",
"565 552 LINE SMOOTH",
"565 578 OFFCURVE",
"575 588 OFFCURVE",
"601 588 CURVE SMOOTH",
"624 588 LINE",
"624 647 LINE",
"427 647 LINE",
"427 588 LINE",
"449 588 LINE SMOOTH",
"475 588 OFFCURVE",
"485 578 OFFCURVE",
"485 551 CURVE SMOOTH",
"485 173 LINE SMOOTH",
"485 85 OFFCURVE",
"430 45 OFFCURVE",
"326 45 CURVE SMOOTH",
"222 45 OFFCURVE",
"168 85 OFFCURVE",
"168 173 CURVE SMOOTH",
"168 551 LINE SMOOTH",
"168 578 OFFCURVE",
"177 588 OFFCURVE",
"203 588 CURVE SMOOTH",
"225 588 LINE",
"225 647 LINE",
"29 647 LINE",
"29 588 LINE",
"53 588 LINE SMOOTH",
"79 588 OFFCURVE",
"88 578 OFFCURVE",
"88 552 CURVE SMOOTH",
"88 179 LINE SMOOTH",
"88 64 OFFCURVE",
"163 -15 OFFCURVE",
"326 -15 CURVE SMOOTH"
);
},
{
closed = 1;
nodes = (
"266 723 LINE",
"266 805 LINE",
"185 805 LINE",
"185 723 LINE"
);
},
{
closed = 1;
nodes = (
"467 723 LINE",
"467 805 LINE",
"387 805 LINE",
"387 723 LINE"
);
},
{
closed = 1;
nodes = (
"369 835 LINE",
"470 967 LINE",
"394 967 LINE",
"326 875 LINE",
"259 967 LINE",
"183 967 LINE",
"284 835 LINE"
);
}
);
width = 653;
}
);
leftKerningGroup = U;
note = Udieresiscaron;
rightKerningGroup = U;
unicode = 01D9;
},
{
glyphname = Udieresisgrave;
lastChange = "2015-08-01 11:25:26 +0000";
layers = (
{
layerId = "80E8E25D-437F-49DC-8A9F-EB5C20E09398";
name = Light;
paths = (
{
closed = 1;
nodes = (
"489 -15 OFFCURVE",
"565 64 OFFCURVE",
"565 179 CURVE SMOOTH",
"565 552 LINE SMOOTH",
"565 578 OFFCURVE",
"575 588 OFFCURVE",
"601 588 CURVE SMOOTH",
"624 588 LINE",
"624 647 LINE",
"427 647 LINE",
"427 588 LINE",
"449 588 LINE SMOOTH",
"475 588 OFFCURVE",
"485 578 OFFCURVE",
"485 551 CURVE SMOOTH",
"485 173 LINE SMOOTH",
"485 85 OFFCURVE",
"430 45 OFFCURVE",
"326 45 CURVE SMOOTH",
"222 45 OFFCURVE",
"168 85 OFFCURVE",
"168 173 CURVE SMOOTH",
"168 551 LINE SMOOTH",
"168 578 OFFCURVE",
"177 588 OFFCURVE",
"203 588 CURVE SMOOTH",
"225 588 LINE",
"225 647 LINE",
"29 647 LINE",
"29 588 LINE",
"53 588 LINE SMOOTH",
"79 588 OFFCURVE",
"88 578 OFFCURVE",
"88 552 CURVE SMOOTH",
"88 179 LINE SMOOTH",
"88 64 OFFCURVE",
"163 -15 OFFCURVE",
"326 -15 CURVE SMOOTH"
);
},
{
closed = 1;
nodes = (
"266 723 LINE",
"266 805 LINE",
"185 805 LINE",
"185 723 LINE"
);
},
{
closed = 1;
nodes = (
"360 836 LINE",
"291 974 LINE",
"195 974 LINE",
"297 836 LINE"
);
},
{
closed = 1;
nodes = (
"467 723 LINE",
"467 805 LINE",
"387 805 LINE",
"387 723 LINE"
);
}
);
width = 653;
}
);
leftKerningGroup = U;
note = Udieresisgrave;
rightKerningGroup = U;
unicode = 01DB;
},
{
glyphname = Udieresismacron;
lastChange = "2015-08-01 11:25:26 +0000";
layers = (
{
layerId = "80E8E25D-437F-49DC-8A9F-EB5C20E09398";
name = Light;
paths = (
{
closed = 1;
nodes = (
"489 -15 OFFCURVE",
"565 64 OFFCURVE",
"565 179 CURVE SMOOTH",
"565 552 LINE SMOOTH",
"565 578 OFFCURVE",
"575 588 OFFCURVE",
"601 588 CURVE SMOOTH",
"624 588 LINE",
"624 647 LINE",
"427 647 LINE",
"427 588 LINE",
"449 588 LINE SMOOTH",
"475 588 OFFCURVE",
"485 578 OFFCURVE",
"485 551 CURVE SMOOTH",
"485 173 LINE SMOOTH",
"485 85 OFFCURVE",
"430 45 OFFCURVE",
"326 45 CURVE SMOOTH",
"222 45 OFFCURVE",
"168 85 OFFCURVE",
"168 173 CURVE SMOOTH",
"168 551 LINE SMOOTH",
"168 578 OFFCURVE",
"177 588 OFFCURVE",
"203 588 CURVE SMOOTH",
"225 588 LINE",
"225 647 LINE",
"29 647 LINE",
"29 588 LINE",
"53 588 LINE SMOOTH",
"79 588 OFFCURVE",
"88 578 OFFCURVE",
"88 552 CURVE SMOOTH",
"88 179 LINE SMOOTH",
"88 64 OFFCURVE",
"163 -15 OFFCURVE",
"326 -15 CURVE SMOOTH"
);
},
{
closed = 1;
nodes = (
"265 717 LINE",
"265 799 LINE",
"185 799 LINE",
"185 717 LINE"
);
},
{
closed = 1;
nodes = (
"466 717 LINE",
"466 799 LINE",
"386 799 LINE",
"386 717 LINE"
);
},
{
closed = 1;
nodes = (
"466 884 LINE",
"466 941 LINE",
"186 941 LINE",
"186 884 LINE"
);
}
);
width = 653;
}
);
leftKerningGroup = U;
note = Udieresismacron;
rightKerningGroup = U;
unicode = 01D5;
},
{
glyphname = Udotbelow;
lastChange = "2015-08-01 11:25:24 +0000";
layers = (
{
layerId = "80E8E25D-437F-49DC-8A9F-EB5C20E09398";
name = Light;
paths = (
{
closed = 1;
nodes = (
"489 -15 OFFCURVE",
"565 64 OFFCURVE",
"565 179 CURVE SMOOTH",
"565 552 LINE SMOOTH",
"565 578 OFFCURVE",
"575 588 OFFCURVE",
"601 588 CURVE SMOOTH",
"624 588 LINE",
"624 647 LINE",
"427 647 LINE",
"427 588 LINE",
"449 588 LINE SMOOTH",
"475 588 OFFCURVE",
"485 578 OFFCURVE",
"485 551 CURVE SMOOTH",
"485 173 LINE SMOOTH",
"485 85 OFFCURVE",
"430 45 OFFCURVE",
"326 45 CURVE SMOOTH",
"222 45 OFFCURVE",
"168 85 OFFCURVE",
"168 173 CURVE SMOOTH",
"168 551 LINE SMOOTH",
"168 578 OFFCURVE",
"177 588 OFFCURVE",
"203 588 CURVE SMOOTH",
"225 588 LINE",
"225 647 LINE",
"29 647 LINE",
"29 588 LINE",
"53 588 LINE SMOOTH",
"79 588 OFFCURVE",
"88 578 OFFCURVE",
"88 552 CURVE SMOOTH",
"88 179 LINE SMOOTH",
"88 64 OFFCURVE",
"163 -15 OFFCURVE",
"326 -15 CURVE SMOOTH"
);
},
{
closed = 1;
nodes = (
"367 -145 LINE",
"367 -63 LINE",
"287 -63 LINE",
"287 -145 LINE"
);
}
);
width = 653;
}
);
leftKerningGroup = U;
note = Udotbelow;
rightKerningGroup = U;
unicode = 1EE4;
},
{
glyphname = Ugrave;
lastChange = "2015-08-01 11:25:25 +0000";
layers = (
{
layerId = "80E8E25D-437F-49DC-8A9F-EB5C20E09398";
name = Light;
paths = (
{
closed = 1;
nodes = (
"489 -15 OFFCURVE",
"565 64 OFFCURVE",
"565 179 CURVE SMOOTH",
"565 552 LINE SMOOTH",
"565 578 OFFCURVE",
"575 588 OFFCURVE",
"601 588 CURVE SMOOTH",
"624 588 LINE",
"624 647 LINE",
"427 647 LINE",
"427 588 LINE",
"449 588 LINE SMOOTH",
"475 588 OFFCURVE",
"485 578 OFFCURVE",
"485 551 CURVE SMOOTH",
"485 173 LINE SMOOTH",
"485 85 OFFCURVE",
"430 45 OFFCURVE",
"326 45 CURVE SMOOTH",
"222 45 OFFCURVE",
"168 85 OFFCURVE",
"168 173 CURVE SMOOTH",
"168 551 LINE SMOOTH",
"168 578 OFFCURVE",
"177 588 OFFCURVE",
"203 588 CURVE SMOOTH",
"225 588 LINE",
"225 647 LINE",
"29 647 LINE",
"29 588 LINE",
"53 588 LINE SMOOTH",
"79 588 OFFCURVE",
"88 578 OFFCURVE",
"88 552 CURVE SMOOTH",
"88 179 LINE SMOOTH",
"88 64 OFFCURVE",
"163 -15 OFFCURVE",
"326 -15 CURVE SMOOTH"
);
},
{
closed = 1;
nodes = (
"362 701 LINE",
"279 880 LINE",
"177 880 LINE",
"292 701 LINE"
);
}
);
width = 653;
}
);
leftKerningGroup = U;
note = Ugrave;
rightKerningGroup = U;
unicode = 00D9;
},
{
glyphname = Uhookabove;
lastChange = "2015-08-01 11:25:24 +0000";
layers = (
{
layerId = "80E8E25D-437F-49DC-8A9F-EB5C20E09398";
name = Light;
paths = (
{
closed = 1;
nodes = (
"489 -15 OFFCURVE",
"565 64 OFFCURVE",
"565 179 CURVE SMOOTH",
"565 552 LINE SMOOTH",
"565 578 OFFCURVE",
"575 588 OFFCURVE",
"601 588 CURVE SMOOTH",
"624 588 LINE",
"624 647 LINE",
"427 647 LINE",
"427 588 LINE",
"449 588 LINE SMOOTH",
"475 588 OFFCURVE",
"485 578 OFFCURVE",
"485 551 CURVE SMOOTH",
"485 173 LINE SMOOTH",
"485 85 OFFCURVE",
"430 45 OFFCURVE",
"326 45 CURVE SMOOTH",
"222 45 OFFCURVE",
"168 85 OFFCURVE",
"168 173 CURVE SMOOTH",
"168 551 LINE SMOOTH",
"168 578 OFFCURVE",
"177 588 OFFCURVE",
"203 588 CURVE SMOOTH",
"225 588 LINE",
"225 647 LINE",
"29 647 LINE",
"29 588 LINE",
"53 588 LINE SMOOTH",
"79 588 OFFCURVE",
"88 578 OFFCURVE",
"88 552 CURVE SMOOTH",
"88 179 LINE SMOOTH",
"88 64 OFFCURVE",
"163 -15 OFFCURVE",
"326 -15 CURVE SMOOTH"
);
},
{
closed = 1;
nodes = (
"335 702 LINE",
"335 741 LINE",
"379 752 OFFCURVE",
"403 778 OFFCURVE",
"403 820 CURVE SMOOTH",
"403 881 OFFCURVE",
"361 903 OFFCURVE",
"295 903 CURVE SMOOTH",
"270 903 OFFCURVE",
"246 898 OFFCURVE",
"231 893 CURVE",
"231 843 LINE",
"244 847 OFFCURVE",
"262 851 OFFCURVE",
"280 851 CURVE SMOOTH",
"320 851 OFFCURVE",
"337 843 OFFCURVE",
"337 814 CURVE SMOOTH",
"337 786 OFFCURVE",
"323 767 OFFCURVE",
"270 767 CURVE",
"270 702 LINE"
);
}
);
width = 653;
}
);
leftKerningGroup = U;
note = Uhookabove;
rightKerningGroup = U;
unicode = 1EE6;
},
{
glyphname = Uhorn;
lastChange = "2015-08-01 11:25:24 +0000";
layers = (
{
layerId = "80E8E25D-437F-49DC-8A9F-EB5C20E09398";
name = Light;
paths = (
{
closed = 1;
nodes = (
"489 -15 OFFCURVE",
"565 64 OFFCURVE",
"565 179 CURVE SMOOTH",
"565 515 LINE",
"669 519 OFFCURVE",
"707 572 OFFCURVE",
"707 654 CURVE SMOOTH",
"707 689 LINE",
"629 689 LINE",
"629 654 LINE SMOOTH",
"629 604 OFFCURVE",
"617 576 OFFCURVE",
"565 574 CURVE",
"565 647 LINE",
"427 647 LINE",
"427 588 LINE",
"449 588 LINE SMOOTH",
"475 588 OFFCURVE",
"485 578 OFFCURVE",
"485 551 CURVE SMOOTH",
"485 173 LINE SMOOTH",
"485 85 OFFCURVE",
"430 45 OFFCURVE",
"326 45 CURVE SMOOTH",
"222 45 OFFCURVE",
"168 85 OFFCURVE",
"168 173 CURVE SMOOTH",
"168 551 LINE SMOOTH",
"168 578 OFFCURVE",
"177 588 OFFCURVE",
"203 588 CURVE SMOOTH",
"225 588 LINE",
"225 647 LINE",
"29 647 LINE",
"29 588 LINE",
"53 588 LINE SMOOTH",
"79 588 OFFCURVE",
"88 578 OFFCURVE",
"88 552 CURVE SMOOTH",
"88 179 LINE SMOOTH",
"88 64 OFFCURVE",
"163 -15 OFFCURVE",
"326 -15 CURVE SMOOTH"
);
}
);
width = 711;
}
);
leftKerningGroup = U;
note = Uhorn;
rightKerningGroup = U;
unicode = 01AF;
},
{
glyphname = Uhornacute;
lastChange = "2015-08-01 11:25:25 +0000";
layers = (
{
layerId = "80E8E25D-437F-49DC-8A9F-EB5C20E09398";
name = Light;
paths = (
{
closed = 1;
nodes = (
"489 -15 OFFCURVE",
"565 64 OFFCURVE",
"565 179 CURVE SMOOTH",
"565 515 LINE",
"669 519 OFFCURVE",
"707 572 OFFCURVE",
"707 654 CURVE SMOOTH",
"707 689 LINE",
"629 689 LINE",
"629 654 LINE SMOOTH",
"629 604 OFFCURVE",
"617 576 OFFCURVE",
"565 574 CURVE",
"565 647 LINE",
"427 647 LINE",
"427 588 LINE",
"449 588 LINE SMOOTH",
"475 588 OFFCURVE",
"485 578 OFFCURVE",
"485 551 CURVE SMOOTH",
"485 173 LINE SMOOTH",
"485 85 OFFCURVE",
"430 45 OFFCURVE",
"326 45 CURVE SMOOTH",
"222 45 OFFCURVE",
"168 85 OFFCURVE",
"168 173 CURVE SMOOTH",
"168 551 LINE SMOOTH",
"168 578 OFFCURVE",
"177 588 OFFCURVE",
"203 588 CURVE SMOOTH",
"225 588 LINE",
"225 647 LINE",
"29 647 LINE",
"29 588 LINE",
"53 588 LINE SMOOTH",
"79 588 OFFCURVE",
"88 578 OFFCURVE",
"88 552 CURVE SMOOTH",
"88 179 LINE SMOOTH",
"88 64 OFFCURVE",
"163 -15 OFFCURVE",
"326 -15 CURVE SMOOTH"
);
},
{
closed = 1;
nodes = (
"346 701 LINE",
"461 880 LINE",
"359 880 LINE",
"276 701 LINE"
);
}
);
width = 711;
}
);
leftKerningGroup = U;
note = Uhornacute;
rightKerningGroup = U;
unicode = 1EE8;
},
{
glyphname = Uhorndotbelow;
lastChange = "2015-08-01 11:25:26 +0000";
layers = (
{
layerId = "80E8E25D-437F-49DC-8A9F-EB5C20E09398";
name = Light;
paths = (
{
closed = 1;
nodes = (
"489 -15 OFFCURVE",
"565 64 OFFCURVE",
"565 179 CURVE SMOOTH",
"565 515 LINE",
"669 519 OFFCURVE",
"707 572 OFFCURVE",
"707 654 CURVE SMOOTH",
"707 689 LINE",
"629 689 LINE",
"629 654 LINE SMOOTH",
"629 604 OFFCURVE",
"617 576 OFFCURVE",
"565 574 CURVE",
"565 647 LINE",
"427 647 LINE",
"427 588 LINE",
"449 588 LINE SMOOTH",
"475 588 OFFCURVE",
"485 578 OFFCURVE",
"485 551 CURVE SMOOTH",
"485 173 LINE SMOOTH",
"485 85 OFFCURVE",
"430 45 OFFCURVE",
"326 45 CURVE SMOOTH",
"222 45 OFFCURVE",
"168 85 OFFCURVE",
"168 173 CURVE SMOOTH",
"168 551 LINE SMOOTH",
"168 578 OFFCURVE",
"177 588 OFFCURVE",
"203 588 CURVE SMOOTH",
"225 588 LINE",
"225 647 LINE",
"29 647 LINE",
"29 588 LINE",
"53 588 LINE SMOOTH",
"79 588 OFFCURVE",
"88 578 OFFCURVE",
"88 552 CURVE SMOOTH",
"88 179 LINE SMOOTH",
"88 64 OFFCURVE",
"163 -15 OFFCURVE",
"326 -15 CURVE SMOOTH"
);
},
{
closed = 1;
nodes = (
"358 -145 LINE",
"358 -63 LINE",
"278 -63 LINE",
"278 -145 LINE"
);
}
);
width = 711;
}
);
leftKerningGroup = U;
note = Uhorndotbelow;
rightKerningGroup = U;
unicode = 1EF0;
},
{
glyphname = Uhorngrave;
lastChange = "2015-08-01 11:25:26 +0000";
layers = (
{
layerId = "80E8E25D-437F-49DC-8A9F-EB5C20E09398";
name = Light;
paths = (
{
closed = 1;
nodes = (
"489 -15 OFFCURVE",
"565 64 OFFCURVE",
"565 179 CURVE SMOOTH",
"565 515 LINE",
"669 519 OFFCURVE",
"707 572 OFFCURVE",
"707 654 CURVE SMOOTH",
"707 689 LINE",
"629 689 LINE",
"629 654 LINE SMOOTH",
"629 604 OFFCURVE",
"617 576 OFFCURVE",
"565 574 CURVE",
"565 647 LINE",
"427 647 LINE",
"427 588 LINE",
"449 588 LINE SMOOTH",
"475 588 OFFCURVE",
"485 578 OFFCURVE",
"485 551 CURVE SMOOTH",
"485 173 LINE SMOOTH",
"485 85 OFFCURVE",
"430 45 OFFCURVE",
"326 45 CURVE SMOOTH",
"222 45 OFFCURVE",
"168 85 OFFCURVE",
"168 173 CURVE SMOOTH",
"168 551 LINE SMOOTH",
"168 578 OFFCURVE",
"177 588 OFFCURVE",
"203 588 CURVE SMOOTH",
"225 588 LINE",
"225 647 LINE",
"29 647 LINE",
"29 588 LINE",
"53 588 LINE SMOOTH",
"79 588 OFFCURVE",
"88 578 OFFCURVE",
"88 552 CURVE SMOOTH",
"88 179 LINE SMOOTH",
"88 64 OFFCURVE",
"163 -15 OFFCURVE",
"326 -15 CURVE SMOOTH"
);
},
{
closed = 1;
nodes = (
"369 701 LINE",
"286 880 LINE",
"184 880 LINE",
"299 701 LINE"
);
}
);
width = 711;
}
);
leftKerningGroup = U;
note = Uhorngrave;
rightKerningGroup = U;
unicode = 1EEA;
},
{
glyphname = Uhornhookabove;
lastChange = "2015-08-01 11:25:25 +0000";
layers = (
{
layerId = "80E8E25D-437F-49DC-8A9F-EB5C20E09398";
name = Light;
paths = (
{
closed = 1;
nodes = (
"489 -15 OFFCURVE",
"565 64 OFFCURVE",
"565 179 CURVE SMOOTH",
"565 515 LINE",
"669 519 OFFCURVE",
"707 572 OFFCURVE",
"707 654 CURVE SMOOTH",
"707 689 LINE",
"629 689 LINE",
"629 654 LINE SMOOTH",
"629 604 OFFCURVE",
"617 576 OFFCURVE",
"565 574 CURVE",
"565 647 LINE",
"427 647 LINE",
"427 588 LINE",
"449 588 LINE SMOOTH",
"475 588 OFFCURVE",
"485 578 OFFCURVE",
"485 551 CURVE SMOOTH",
"485 173 LINE SMOOTH",
"485 85 OFFCURVE",
"430 45 OFFCURVE",
"326 45 CURVE SMOOTH",
"222 45 OFFCURVE",
"168 85 OFFCURVE",
"168 173 CURVE SMOOTH",
"168 551 LINE SMOOTH",
"168 578 OFFCURVE",
"177 588 OFFCURVE",
"203 588 CURVE SMOOTH",
"225 588 LINE",
"225 647 LINE",
"29 647 LINE",
"29 588 LINE",
"53 588 LINE SMOOTH",
"79 588 OFFCURVE",
"88 578 OFFCURVE",
"88 552 CURVE SMOOTH",
"88 179 LINE SMOOTH",
"88 64 OFFCURVE",
"163 -15 OFFCURVE",
"326 -15 CURVE SMOOTH"
);
},
{
closed = 1;
nodes = (
"346 702 LINE",
"346 741 LINE",
"390 752 OFFCURVE",
"414 778 OFFCURVE",
"414 820 CURVE SMOOTH",
"414 881 OFFCURVE",
"372 903 OFFCURVE",
"306 903 CURVE SMOOTH",
"281 903 OFFCURVE",
"257 898 OFFCURVE",
"242 893 CURVE",
"242 843 LINE",
"255 847 OFFCURVE",
"273 851 OFFCURVE",
"291 851 CURVE SMOOTH",
"331 851 OFFCURVE",
"348 843 OFFCURVE",
"348 814 CURVE SMOOTH",
"348 786 OFFCURVE",
"334 767 OFFCURVE",
"281 767 CURVE",
"281 702 LINE"
);
}
);
width = 711;
}
);
leftKerningGroup = U;
note = Uhornhookabove;
rightKerningGroup = U;
unicode = 1EEC;
},
{
glyphname = Uhorntilde;
lastChange = "2015-08-01 11:25:26 +0000";
layers = (
{
layerId = "80E8E25D-437F-49DC-8A9F-EB5C20E09398";
name = Light;
paths = (
{
closed = 1;
nodes = (
"489 -15 OFFCURVE",
"565 64 OFFCURVE",
"565 179 CURVE SMOOTH",
"565 515 LINE",
"669 519 OFFCURVE",
"707 572 OFFCURVE",
"707 654 CURVE SMOOTH",
"707 689 LINE",
"629 689 LINE",
"629 654 LINE SMOOTH",
"629 604 OFFCURVE",
"617 576 OFFCURVE",
"565 574 CURVE",
"565 647 LINE",
"427 647 LINE",
"427 588 LINE",
"449 588 LINE SMOOTH",
"475 588 OFFCURVE",
"485 578 OFFCURVE",
"485 551 CURVE SMOOTH",
"485 173 LINE SMOOTH",
"485 85 OFFCURVE",
"430 45 OFFCURVE",
"326 45 CURVE SMOOTH",
"222 45 OFFCURVE",
"168 85 OFFCURVE",
"168 173 CURVE SMOOTH",
"168 551 LINE SMOOTH",
"168 578 OFFCURVE",
"177 588 OFFCURVE",
"203 588 CURVE SMOOTH",
"225 588 LINE",
"225 647 LINE",
"29 647 LINE",
"29 588 LINE",
"53 588 LINE SMOOTH",
"79 588 OFFCURVE",
"88 578 OFFCURVE",
"88 552 CURVE SMOOTH",
"88 179 LINE SMOOTH",
"88 64 OFFCURVE",
"163 -15 OFFCURVE",
"326 -15 CURVE SMOOTH"
);
},
{
closed = 1;
nodes = (
"212 702 LINE",
"212 747 OFFCURVE",
"228 758 OFFCURVE",
"257 758 CURVE SMOOTH",
"313 758 OFFCURVE",
"352 702 OFFCURVE",
"420 702 CURVE SMOOTH",
"486 702 OFFCURVE",
"520 738 OFFCURVE",
"520 823 CURVE",
"457 823 LINE",
"457 778 OFFCURVE",
"442 766 OFFCURVE",
"413 766 CURVE SMOOTH",
"362 766 OFFCURVE",
"321 823 OFFCURVE",
"250 823 CURVE SMOOTH",
"184 823 OFFCURVE",
"149 786 OFFCURVE",
"149 702 CURVE"
);
}
);
width = 711;
}
);
leftKerningGroup = U;
note = Uhorntilde;
rightKerningGroup = U;
unicode = 1EEE;
},
{
glyphname = Uhungarumlaut;
lastChange = "2015-08-01 11:25:25 +0000";
layers = (
{
layerId = "80E8E25D-437F-49DC-8A9F-EB5C20E09398";
name = Light;
paths = (
{
closed = 1;
nodes = (
"489 -15 OFFCURVE",
"565 64 OFFCURVE",
"565 179 CURVE SMOOTH",
"565 552 LINE SMOOTH",
"565 578 OFFCURVE",
"575 588 OFFCURVE",
"601 588 CURVE SMOOTH",
"624 588 LINE",
"624 647 LINE",
"427 647 LINE",
"427 588 LINE",
"449 588 LINE SMOOTH",
"475 588 OFFCURVE",
"485 578 OFFCURVE",
"485 551 CURVE SMOOTH",
"485 173 LINE SMOOTH",
"485 85 OFFCURVE",
"430 45 OFFCURVE",
"326 45 CURVE SMOOTH",
"222 45 OFFCURVE",
"168 85 OFFCURVE",
"168 173 CURVE SMOOTH",
"168 551 LINE SMOOTH",
"168 578 OFFCURVE",
"177 588 OFFCURVE",
"203 588 CURVE SMOOTH",
"225 588 LINE",
"225 647 LINE",
"29 647 LINE",
"29 588 LINE",
"53 588 LINE SMOOTH",
"79 588 OFFCURVE",
"88 578 OFFCURVE",
"88 552 CURVE SMOOTH",
"88 179 LINE SMOOTH",
"88 64 OFFCURVE",
"163 -15 OFFCURVE",
"326 -15 CURVE SMOOTH"
);
},
{
closed = 1;
nodes = (
"250 701 LINE",
"368 884 LINE",
"264 884 LINE",
"178 701 LINE"
);
},
{
closed = 1;
nodes = (
"432 701 LINE",
"551 884 LINE",
"447 884 LINE",
"361 701 LINE"
);
}
);
width = 653;
}
);
leftKerningGroup = U;
note = Uhungarumlaut;
rightKerningGroup = U;
unicode = 0170;
},
{
glyphname = Umacron;
lastChange = "2015-08-01 11:25:26 +0000";
layers = (
{
layerId = "80E8E25D-437F-49DC-8A9F-EB5C20E09398";
name = Light;
paths = (
{
closed = 1;
nodes = (
"489 -15 OFFCURVE",
"565 64 OFFCURVE",
"565 179 CURVE SMOOTH",
"565 552 LINE SMOOTH",
"565 578 OFFCURVE",
"575 588 OFFCURVE",
"601 588 CURVE SMOOTH",
"624 588 LINE",
"624 647 LINE",
"427 647 LINE",
"427 588 LINE",
"449 588 LINE SMOOTH",
"475 588 OFFCURVE",
"485 578 OFFCURVE",
"485 551 CURVE SMOOTH",
"485 173 LINE SMOOTH",
"485 85 OFFCURVE",
"430 45 OFFCURVE",
"326 45 CURVE SMOOTH",
"222 45 OFFCURVE",
"168 85 OFFCURVE",
"168 173 CURVE SMOOTH",
"168 551 LINE SMOOTH",
"168 578 OFFCURVE",
"177 588 OFFCURVE",
"203 588 CURVE SMOOTH",
"225 588 LINE",
"225 647 LINE",
"29 647 LINE",
"29 588 LINE",
"53 588 LINE SMOOTH",
"79 588 OFFCURVE",
"88 578 OFFCURVE",
"88 552 CURVE SMOOTH",
"88 179 LINE SMOOTH",
"88 64 OFFCURVE",
"163 -15 OFFCURVE",
"326 -15 CURVE SMOOTH"
);
},
{
closed = 1;
nodes = (
"456 722 LINE",
"456 779 LINE",
"176 779 LINE",
"176 722 LINE"
);
}
);
width = 653;
}
);
leftKerningGroup = U;
note = Umacron;
rightKerningGroup = U;
unicode = 016A;
},
{
glyphname = Uogonek;
lastChange = "2015-08-01 11:25:26 +0000";
layers = (
{
layerId = "80E8E25D-437F-49DC-8A9F-EB5C20E09398";
name = Light;
paths = (
{
closed = 1;
nodes = (
"384 -205 OFFCURVE",
"400 -200 OFFCURVE",
"416 -191 CURVE",
"416 -142 LINE",
"401 -147 OFFCURVE",
"385 -149 OFFCURVE",
"370 -149 CURVE SMOOTH",
"343 -149 OFFCURVE",
"330 -134 OFFCURVE",
"330 -99 CURVE SMOOTH",
"330 -66 OFFCURVE",
"343 -38 OFFCURVE",
"367 -13 CURVE",
"502 0 OFFCURVE",
"565 74 OFFCURVE",
"565 179 CURVE SMOOTH",
"565 552 LINE SMOOTH",
"565 578 OFFCURVE",
"575 588 OFFCURVE",
"601 588 CURVE SMOOTH",
"624 588 LINE",
"624 647 LINE",
"427 647 LINE",
"427 588 LINE",
"449 588 LINE SMOOTH",
"475 588 OFFCURVE",
"485 578 OFFCURVE",
"485 551 CURVE SMOOTH",
"485 173 LINE SMOOTH",
"485 85 OFFCURVE",
"430 45 OFFCURVE",
"326 45 CURVE SMOOTH",
"222 45 OFFCURVE",
"168 85 OFFCURVE",
"168 173 CURVE SMOOTH",
"168 551 LINE SMOOTH",
"168 578 OFFCURVE",
"177 588 OFFCURVE",
"203 588 CURVE SMOOTH",
"225 588 LINE",
"225 647 LINE",
"29 647 LINE",
"29 588 LINE",
"53 588 LINE SMOOTH",
"79 588 OFFCURVE",
"88 578 OFFCURVE",
"88 552 CURVE SMOOTH",
"88 179 LINE SMOOTH",
"88 70 OFFCURVE",
"155 -6 OFFCURVE",
"300 -14 CURVE",
"277 -41 OFFCURVE",
"264 -73 OFFCURVE",
"264 -109 CURVE SMOOTH",
"264 -178 OFFCURVE",
"307 -205 OFFCURVE",
"362 -205 CURVE SMOOTH"
);
}
);
width = 653;
}
);
leftKerningGroup = U;
note = Uogonek;
rightKerningGroup = U;
unicode = 0172;
},
